<svg xmlns="http://www.w3.org/2000/svg" enable-background="new 0 0 128 128" viewBox="0 0 128 128" id="cassette">
  <path fill="#010101" d="M18.1,77.1c-2.5-1.5-5-3-7.4-4.8c-2.4-1.7-4.7-3.6-6.6-5.9c-1-1.1-1.9-2.4-2.3-3.9C1.3,61,1.5,59.4,1.8,58    c0.4-1.5,0.9-2.9,1.5-4.2L5,49.7c0.6-1.4,1.1-2.7,1.7-4.1c0.6-1.4,1.5-2.8,2.7-3.8c1.1-1.1,2.3-2,3.2-3c1-1,1.8-2.1,2.6-3.3    c1.5-2.4,2.7-5,4-7.7c1.3-2.7,2.6-5.3,4.2-7.9c1.6-2.5,3.2-5,5.1-7.4c0.9-1.2,1.9-2.3,2.8-3.5c0.5-0.6,1-1.1,1.5-1.7    c0.5-0.6,1.1-1.2,1.9-1.7c0.4-0.2,0.9-0.4,1.3-0.6C36.5,5,36.9,5,37.4,5c0.9,0,1.8,0.2,2.5,0.5C41.5,6,42.7,6.9,44,7.6    c2.5,1.5,5,3.1,7.5,4.8c4.9,3.3,9.4,7.1,14.1,10.6c4.7,3.5,9.6,6.7,14.7,9.7c5.1,3,10.2,5.8,15.3,8.8c5.1,2.9,10.2,5.9,15.1,9.1    c2.5,1.6,4.9,3.3,7.2,5.1c1.2,0.9,2.3,1.8,3.5,2.8c1.2,0.9,2.3,2,3.3,3.2c1,1.2,1.8,2.9,1.8,4.8c-0.1,1.9-1,3.4-1.8,4.6l-4.9,7.4    L110,93.2l-2.4,3.7l-1.2,1.8c-0.4,0.6-0.8,1.2-1.1,1.8c-0.3,0.6-0.5,1-0.5,1.4c0,0.4,0.1,1.1,0.2,2c0,0.2,0,0.5,0,0.7l0,0.2l0,0.1    c0,0.1,0,0.3-0.1,0.4c-0.1,0.5-0.3,1-0.4,1.4c-0.4,0.8-0.8,1.5-1.2,2.1c-1.6,2.5-3.3,4.9-5,7.3c-0.9,1.2-1.7,2.4-2.6,3.6l-1.4,1.8    c-0.3,0.3-0.6,0.8-1.3,1.1c-0.3,0.2-0.8,0.3-1.1,0.3c-0.5,0-0.8,0-1.1-0.1c-1.2-0.4-1.7-0.9-2.4-1.2l-1.9-1.2l-3.7-2.4l-7.4-4.8    l1.9-0.3c-0.4,0.5-1.2,0.9-1.9,1c-0.7,0.1-1.2-0.1-1.6-0.2c-0.5-0.2-0.9-0.3-1.2-0.6c-0.4-0.2-0.7-0.5-1-0.7l-3.5-2.5    c-2.3-1.7-4.6-3.4-6.9-5c-4.6-3.3-9.3-6.6-14-9.8c-2.4-1.6-4.7-3.2-7.1-4.7c-2.4-1.6-4.8-3.1-7.2-4.6c-2.4-1.5-4.9-3-7.3-4.5    L18.1,77.1z M18.2,76.8l7.4,4.3l7.4,4.3l7.4,4.3c2.5,1.4,4.9,2.9,7.4,4.4c4.9,3,9.8,6,14.6,9.1c2.4,1.6,4.8,3.1,7.2,4.8l3.5,2.4    c0.3,0.2,0.5,0.4,0.8,0.5c0.2,0.1,0.5,0.2,0.7,0.3c0.2,0.1,0.4,0.1,0.5,0.1c0.1,0,0,0,0,0l1.3-0.6L77,111l7.5,4.7l3.7,2.3l1.9,1.2    c0.6,0.4,1.3,0.8,1.5,0.8c0,0,0.1,0,0,0c0,0-0.1,0,0,0c0,0,0.2-0.1,0.3-0.4l1.3-1.7c0.9-1.2,1.7-2.3,2.6-3.5    c1.7-2.4,3.3-4.8,4.9-7.2c0.4-0.6,0.8-1.2,1-1.7c0.1-0.3,0.2-0.5,0.2-0.7c0-0.1,0,0,0-0.1l0-0.1c0,0,0,0,0,0c0-0.1,0-0.2,0-0.4    c0-0.6-0.2-1.3-0.2-2.4c0-0.5,0.1-1,0.3-1.5c0.2-0.5,0.4-0.9,0.6-1.2c0.4-0.7,0.9-1.3,1.3-1.9l1.2-1.8l2.5-3.6l10-14.5l5-7.2    c0.8-1.2,1.5-2.3,1.5-3.4c0.1-1.1-0.4-2.3-1.2-3.3c-0.8-1.1-1.8-2-2.9-3c-1.1-0.9-2.2-1.9-3.3-2.8c-2.3-1.8-4.6-3.6-7-5.3    c-4.8-3.4-9.7-6.5-14.8-9.5c-5.1-3-10.2-5.9-15.2-8.9c-5.1-3-10.1-6.1-14.9-9.5l-7.2-5.1c-2.4-1.7-4.8-3.3-7.3-4.9    c-2.5-1.6-5-3-7.5-4.5c-1.3-0.7-2.5-1.4-3.8-1.8c-0.6-0.2-1.2-0.3-1.8-0.3c-0.3,0-0.6,0.1-0.7,0.1c-0.3,0.1-0.5,0.2-0.7,0.3    c-0.9,0.6-1.8,1.8-2.8,2.9c-0.9,1.1-1.8,2.2-2.7,3.4c-1.8,2.3-3.4,4.7-4.9,7.2c-1.5,2.5-2.9,5-4.2,7.6c-1.3,2.6-2.6,5.3-4.4,7.8    c-0.9,1.2-1.9,2.5-3,3.5c-1.1,1.1-2.4,1.9-3.4,2.9c-2.1,1.7-3.1,4.5-4.4,7.2l-1.9,4c-0.6,1.3-1.2,2.6-1.6,4    c-0.4,1.3-0.6,2.8-0.3,4.1c0.3,1.4,1.1,2.6,2,3.7c1.8,2.3,4,4.2,6.4,6C13.2,73.8,15.7,75.3,18.2,76.8z"></path>
  <path fill="#010101" d="M12.6,72.5c1.6-2,3.4-3.9,5.3-5.7c0.9-0.9,1.9-1.8,2.8-2.7c1-0.9,1.9-1.7,2.9-2.6l0.6-0.5l0.8,0.4l3.5,2.1    c1.2,0.7,2.3,1.4,3.4,2.2c1.1,0.7,2.2,1.5,3.3,2.3l3.3,2.4c4.4,3.1,9.1,5.8,14,8.3c2.4,1.2,4.9,2.4,7.3,3.6    c2.4,1.2,4.8,2.5,7.2,3.9c2.4,1.3,4.7,2.8,7,4.2c1.1,0.8,2.2,1.5,3.4,2.3c1.1,0.8,2.2,1.6,3.3,2.5l0.8,0.6l-0.3,0.8    c-0.4,1.3-0.8,2.6-1.3,3.9c-0.4,1.3-0.9,2.6-1.3,3.9c-0.5,1.3-0.9,2.6-1.4,3.8c-0.2,0.6-0.5,1.3-0.8,1.9c-0.3,0.6-0.7,1.3-1.3,1.7    l-0.2-0.2c0.7-1.1,0.9-2.4,1.2-3.8c0.2-1.3,0.5-2.7,0.8-4c0.3-1.3,0.5-2.7,0.8-4c0.3-1.3,0.6-2.7,0.9-4l0.5,1.4l-3.4-2.2    c-1.1-0.7-2.3-1.5-3.4-2.2c-2.3-1.5-4.5-2.9-6.8-4.3c-2.3-1.4-4.6-2.8-6.9-4.2c-2.3-1.4-4.6-2.9-6.8-4.5c-2.2-1.5-4.5-3-6.8-4.4    c-1.1-0.7-2.3-1.4-3.5-2.1c-1.2-0.7-2.4-1.3-3.6-1.9l-3.6-1.9c-1.2-0.6-2.4-1.2-3.6-1.9c-1.2-0.6-2.3-1.4-3.5-2l-3.4-2.2l1.4-0.1    l-6.2,4.7c-2.1,1.5-4.1,3.1-6.3,4.6L12.6,72.5z"></path>
  <path fill="#010101" d="M25 77.3c0 0-.3 0-.9 0-.3 0-.7 0-1.1 0-.5 0-1.1-.2-1.6-.6-.5-.4-.9-1.1-.9-1.8-.1-.8.2-1.5.7-2.1.4-.6.9-1 1.4-1.5.6-.5 1.1-.9 1.8-1.2.7-.3 1.6-.4 2.5 0 .9.4 1.5 1.2 1.9 1.9.2.4.3.7.4 1.1 0 .1.1.4.1.6 0 .2 0 .4 0 .5-.1.7-.3 1.4-.7 1.9-.4.5-1 .9-1.4 1-.5.2-.9.2-1.2.2C25.3 77.3 25 77.3 25 77.3zM25 77c0 0 .3 0 .7-.2.2-.1.4-.4.5-.7.1-.3.1-.6 0-1-.1-.3-.1-.6-.1-1 0-.1 0-.2 0-.3 0-.1 0-.1 0-.2 0-.2-.1-.4-.1-.5-.1-.3-.1-.6-.3-.8-.2-.2-.5-.5-1-.6-.5-.2-1.1-.1-1.4.2-.4.3-.6.9-.5 1.4 0 .5.3.9.4 1.1.1.3.2.5.3.8.1.3.1.6.3.9.2.3.4.5.7.6C24.7 77.1 25 77 25 77zM38.4 80.1c0 0-.2.3-.5.8-.1.1-.2.3-.2.4-.1.2-.2.4-.3.6-.3.4-.6.8-1.2 1.2-.6.3-1.4.5-2.2.2-.8-.3-1.4-1-1.7-1.7-.3-.7-.4-1.4-.6-2.1-.1-.3-.1-.7-.2-1.1 0-.2 0-.4 0-.6l0-.2c0-.1 0-.2 0-.3.1-.8.5-1.7 1.2-2.2.7-.5 1.5-.9 2.4-1 .2 0 .5 0 .7 0l.1 0 0 0 0 0 .1 0 0 0 .1 0c.1 0 .1 0 .3.1.5.1.9.3 1.2.5.7.5 1.1 1 1.4 1.7.2.6.2 1.3.1 1.8-.1.5-.2.9-.3 1.2C38.6 79.9 38.4 80.1 38.4 80.1zM38.1 80c0 0 .2-.3.1-.8 0-.3-.2-.6-.4-.8-.2-.3-.6-.5-.9-.6-.3-.2-.6-.3-.9-.4-.1 0-.2-.1-.3-.1 0 0-.1 0-.2 0l-.1 0 0 0c0 0 .1 0 .1 0l0 0 0 0 0 0c-.1 0-.1 0-.2 0-.3 0-.7 0-1.1.1-.4.2-.8.3-1.2.7 0 0-.1.1-.1.1l-.1.2c-.1.1-.1.2-.2.3-.1.3-.1.5-.1.8.1.6.5 1 .9 1.3.5.2.9.2 1.1.2.3 0 .5 0 .9.1.4 0 .8.1 1.1 0 .2 0 .4-.1.5-.1.2-.1.3-.1.4-.2.2-.2.4-.3.4-.4C38.1 80.1 38.1 80 38.1 80zM59.6 91.7c0 0 .1 0 .2.1.2.1.3.1.7.2.3.1.7.2 1.1.5.4.2.9.6 1.2 1.2.3.6.4 1.4.2 2.1-.2.8-.8 1.4-1.5 1.8-.6.4-1.2.7-1.9 1-.6.3-1.4.6-2.3.5-.2 0-.4 0-.6-.1l-.2 0c-.1-.1-.1 0-.2-.1-.1 0-.2 0-.3-.1-.5-.2-.8-.5-1.1-.8-.6-.6-1-1.4-1.2-2.3-.2-.9-.1-1.7.3-2.6l.1-.2.2-.3c.1-.2.2-.3.4-.5.3-.3.6-.5.9-.6.6-.3 1.2-.4 1.7-.3.5 0 .9.1 1.2.1C59.3 91.6 59.6 91.7 59.6 91.7L59.6 91.7zM59.5 91.9c0 0-.3-.1-.8 0-.3.1-.5.3-.8.6-.2.3-.4.6-.6 1-.1.2-.1.3-.2.5 0 .1-.1.2-.1.2 0 0 0 0 0 .1L57 94.5c0 .2-.1.5-.1.9 0 .4.1.8.2 1.1.1.2.2.4.3.5 0 0 .1.1.2.2 0 0 .1.1 0 .1l.1.1c.1.1.2.2.3.3.4.3.9.4 1.5.2.5-.2.9-.7 1.1-1.3.2-.5.1-1 .1-1.3 0-.3 0-.6.1-1 .1-.3.1-.7 0-1.1-.1-.4-.2-.6-.4-.8-.2-.1-.4-.3-.5-.3C59.6 92 59.5 91.9 59.5 91.9L59.5 91.9zM65.8 104.9c0 0-.2-.2-.7-.6-.2-.2-.5-.5-.8-.9-.3-.4-.6-.9-.6-1.6-.1-.7.2-1.5.8-2 .5-.5 1.2-.8 1.9-.9.7-.1 1.4-.2 2.1-.2.7 0 1.5.1 2.2.5.7.4 1.4 1 1.7 1.8.2.4.2.8.3 1.3 0 .5 0 .8-.2 1.3-.2.8-.8 1.5-1.4 2-.6.5-1.3.7-1.9.8-.7 0-1.2-.2-1.7-.4-.4-.2-.8-.4-1-.6C66 105.2 65.8 105 65.8 104.9L65.8 104.9zM65.9 104.7c0 0 .2.2.8.3.3 0 .6 0 .9-.2.2-.1.3-.2.5-.3.1-.1.1-.1.2-.2 0-.1.1-.1.2-.2.2-.3.5-.5.7-.7.2-.3.4-.5.5-.8.1-.1.2-.3.2-.4 0-.1.1-.3.1-.5 0-.4 0-.8-.2-1.3-.2-.5-.7-.8-1.2-.8-.5 0-1.1.3-1.4.7-.3.4-.6.9-.7 1.2-.1.3-.3.4-.4.7-.2.3-.4.6-.5.9-.1.3-.1.7 0 .9C65.6 104.6 66 104.7 65.9 104.7L65.9 104.7zM40.6 50.8c0 0 .1.1.2.4.1.2.4.6.8.9.4.3.9.7 1.6.9.7.2 1.4.4 2.2.5.4 0 .7 0 1.1 0 0 0 .5 0 .6 0 .1 0 .4 0 .5-.1.8-.2 1.7-.4 2.5-1 .8-.6 1.4-1.6 1.5-2.7.1-1.1-.2-2.3-.7-3.3-.2-.6-.5-1-.8-1.2-.3-.3-.7-.6-1.1-.8-.8-.4-1.8-.5-2.7-.5-.5 0-.9.1-1.4.2-.4.1-1 .2-1.2.3-.5.2-1.1.7-1.6 1.3-.5.6-1 1.2-1.3 1.9-.3.6-.5 1.2-.5 1.7 0 .5 0 .9.1 1.2C40.5 50.6 40.6 50.8 40.6 50.8zM40.3 50.9c0 0-.1-.1-.2-.4-.1-.3-.2-.7-.4-1.2-.1-.5-.2-1.2-.2-2.1 0-.8.1-1.8.4-2.8.4-1 1-2.1 2.4-2.9.7-.4 1.3-.5 1.9-.6.6-.1 1.3-.2 2-.1 1.4 0 2.8.5 4 1.3.6.4 1.1 1 1.5 1.7.4.7.5 1.5.6 2.1.1 1.3.2 2.6 0 3.8-.2 1.3-.6 2.5-1.2 3.6-.7 1.1-1.7 2.1-2.9 2.5-.3.1-.6.2-1 .2-.4.1-.5.1-.9 0-.6 0-1.2-.2-1.7-.4-1-.4-1.7-1.1-2.3-1.7-.6-.6-1-1.1-1.3-1.6-.3-.5-.5-.8-.7-1.1C40.4 51 40.3 50.9 40.3 50.9z"></path>
  <path fill="#010101" d="M50.1 45.5c.2.4.4.9.5 1.3l0 .2-.2.1c-.4.2-.8.4-1.2.6l.3-.5c.2.7.4 1.3.5 2.1l-.6-.9c.5.1 1.1.2 1.6.4l.6.2 0 .9c.1 1.7-1.1 3.2-2.7 3.7l-.7.2-.4-.3c-.5-.4-.9-1-1.2-1.5l1.7-.6c0 .2-.1.5-.2.7-.1.2-.3.3-.4.4-.3.2-.5.2-.8.2-.2 0-.4 0-.5-.1l-.2-.1c.1-.1-.2 0-.1 0 0 0 0 0 0 0 0 0-.1.1-.1.1-.1.1-.1.3 0 .3l.5.6-.7.1c-.5.1-1.1 0-1.5-.2-.2-.1-.4-.2-.6-.3-.2-.1-.4-.2-.6-.3-.2-.1-.4-.3-.6-.5-.1-.1-.2-.3-.3-.5-.1-.2-.1-.4 0-.6 0 0 0 0 0-.1 0-.1 0-.1.1-.2 0-.1.1-.2.1-.2.1-.1.2-.3.2-.3.1-.2.2-.3.1-.3l.1.8c-.3-.3-.5-.7-.7-1.1-.1-.2-.2-.4-.2-.6 0-.1 0-.2-.1-.3 0-.1 0-.2 0-.2 0 0 0 .1.1.3 0 .1 0 .1.1.2-.1-.1.1.1.1.1.1.1.2.1.2.1.2.1-.1 0-.2 0l-.9-.1-1.1-.1 0-1.3c0-.4 0-.8.1-1.3 0-.1.1-.3.1-.4l.1-.2c0 0 .1-.1.1-.2.1-.3.3-.5.5-.8.2-.2.5-.5.9-.6.1 0 .2-.1.3-.1.1 0 0 0 .2-.1l.1 0c.3-.1.5-.1.7 0 .4 0 .8.2 1.2.4.4.3.8.7.9 1.2L42.5 45c.8-.6 1.7-1 2.7-1.1l-1.3 1.7c0-.5-.1-1-.1-1.4l0-1.6 1.3.1c.7 0 1.4.1 2.1.3l.9.2.1.5c.1.7-.1 1.3-.3 1.9l-.6-.7c.3 0 .5.1.7.2.2.1.3.2.4.4.2.2.3.4.4.4 0 0 .1 0 .1 0 .1 0 .1 0 .1-.1.1-.1.2-.2.3-.3.1-.1.3-.2.5-.2C49.9 45.2 50 45.4 50.1 45.5zM49.8 45.7c-.1-.2-.2-.2-.4 0-.1.1-.2.2-.3.3 0 .1-.2.1-.2.2-.1.1-.2.1-.3.1-.2 0-.4-.1-.6-.1-.2-.1-.3-.1-.4-.2-.1-.1-.2-.1-.3-.1-.1 0-.1 0-.1.1l-.6-.7c0-.4-.2-.8-.4-1l1 .7c-.7.2-1.4.4-2 .5l1.3-1.5c.1.5.2.9.3 1.4l.2 1.3-1.6.3c-.4.1-.7.2-1 .5L42 46.6c.1.2.2.4.3.4.1.1.2.1.2.1 0 0 .1 0 .2 0l-.1 0c.1 0 0 0 .1 0l0 0c0 0 0 0 0 0 0 0-.1 0-.1.1 0 0 0 0 0 0l0 0c0 0 0 0 0 0l0 0c0 0 0 .1-.1.1-.1.2-.1.5-.2.8l-1.1-1.4.9.2.2.1c.1 0 .2.1.5.2.1.1.3.1.4.2.1 0 .2.2.2.2.1.1.1.2.2.3.2.3.2.6.2.7 0 .2 0 .2 0 .3l0 .1c0 .1 0 .2 0 .3 0 .2.1.4.1.6l.2.6-.1.2c-.2.4-.5.6-.6.8l-.2.1c0 0 0 0 0 0 0 0 0 0 0 0 0 0 0 0 0 .1 0-.1 0 0 0 0 0 0 0 0 0 .1 0 .1.1.2.3.3.3.2.7.5 1 .6.3.1.7.2 1 .1l-.2.8c-.3-.3-.4-.8-.3-1.2 0-.2.1-.4.3-.6.1-.1.1-.2.3-.3.2-.1.1-.1.3-.2.2-.1.4-.1.6-.1.2 0 .3 0 .3-.1 0 0 0-.1 0-.1 0 0-.1 0-.1.1-.1.1-.1.2-.1.3l1.7-.6c.4.3.7.5 1.1.7l-1.1-.1c.5-.3 1-.9 1.2-1.5l.6 1.1c-.3-.2-.6-.5-.9-.7l-.8-.5.2-.5c.2-.6.3-1.2.4-1.8l0-.5.3 0c.4 0 .9-.1 1.3-.2l-.2.2C50.2 46.5 50.1 46.1 49.8 45.7zM78.1 74.7c0 0 .1.1.2.4.1.2.4.6.8.9.4.3.9.7 1.6.9.7.2 1.4.4 2.2.5.4 0 .7 0 1.1 0 0 0 .5 0 .6 0 .1 0 .4 0 .5-.1.8-.2 1.7-.4 2.5-1 .8-.6 1.4-1.6 1.5-2.7.1-1.1-.2-2.3-.7-3.3-.2-.6-.5-1-.8-1.2-.3-.3-.7-.6-1.1-.8-.8-.4-1.8-.5-2.7-.5-.5 0-.9.1-1.4.2-.4.1-1 .2-1.2.3-.5.2-1.1.7-1.6 1.3-.5.6-1 1.2-1.3 1.9-.3.6-.5 1.2-.5 1.7 0 .5 0 .9.1 1.2C78 74.5 78.1 74.7 78.1 74.7zM77.8 74.8c0 0-.1-.1-.2-.4-.1-.3-.2-.7-.4-1.2-.1-.5-.2-1.2-.2-2.1 0-.8.1-1.8.4-2.8.4-1 1-2.1 2.4-2.9.7-.4 1.3-.5 1.9-.6.6-.1 1.3-.2 2-.1 1.4 0 2.8.5 4 1.3.6.4 1.1 1 1.5 1.7.4.7.5 1.5.6 2.1.1 1.3.2 2.6 0 3.8-.2 1.3-.6 2.5-1.2 3.6-.7 1.1-1.7 2.1-2.9 2.5-.3.1-.6.2-1 .2-.4.1-.5.1-.9 0-.6 0-1.2-.2-1.7-.4-1-.4-1.7-1.1-2.3-1.7-.6-.6-1-1.1-1.3-1.6-.3-.5-.5-.8-.7-1.1C77.9 74.9 77.8 74.8 77.8 74.8z"></path>
  <path fill="#010101" d="M87.6,69.4c0.2,0.4,0.4,0.9,0.5,1.3l0,0.2L88,71c-0.4,0.2-0.8,0.4-1.2,0.6l0.3-0.5    c0.2,0.7,0.4,1.3,0.5,2.1l-0.6-0.9c0.5,0.1,1.1,0.2,1.6,0.4l0.6,0.2l0,0.9c0.1,1.7-1.1,3.2-2.7,3.7l-0.7,0.2l-0.4-0.3    c-0.5-0.4-0.9-1-1.2-1.5l1.7-0.6c0,0.2-0.1,0.5-0.2,0.7c-0.1,0.2-0.3,0.3-0.4,0.4c-0.3,0.2-0.5,0.2-0.8,0.2c-0.2,0-0.4,0-0.5-0.1    l-0.2-0.1c0.1-0.1-0.2,0-0.1,0c0,0,0,0,0,0c0,0-0.1,0.1-0.1,0.1c-0.1,0.1-0.1,0.3,0,0.3l0.5,0.6l-0.7,0.1c-0.5,0.1-1.1,0-1.5-0.2    c-0.2-0.1-0.4-0.2-0.6-0.3c-0.2-0.1-0.4-0.2-0.6-0.3c-0.2-0.1-0.4-0.3-0.6-0.5c-0.1-0.1-0.2-0.3-0.3-0.5c-0.1-0.2-0.1-0.4,0-0.6    c0,0,0,0,0-0.1c0-0.1,0-0.1,0.1-0.2c0-0.1,0.1-0.2,0.1-0.2c0.1-0.1,0.2-0.3,0.2-0.3c0.1-0.2,0.2-0.3,0.1-0.3l0.1,0.8    c-0.3-0.3-0.5-0.7-0.7-1.1c-0.1-0.2-0.2-0.4-0.2-0.6c0-0.1,0-0.2-0.1-0.3c0-0.1,0-0.2,0-0.2c0,0,0,0.1,0.1,0.3    c0,0.1,0,0.1,0.1,0.2c-0.1-0.1,0.1,0.1,0.1,0.1c0.1,0.1,0.2,0.1,0.2,0.1c0.2,0.1-0.1,0-0.2,0l-0.9-0.1L77.3,73l0-1.3    c0-0.4,0-0.8,0.1-1.3c0-0.1,0.1-0.3,0.1-0.4l0.1-0.2c0,0,0.1-0.1,0.1-0.2c0.1-0.3,0.3-0.5,0.5-0.8c0.2-0.2,0.5-0.5,0.9-0.6    c0.1,0,0.2-0.1,0.3-0.1c0.1,0,0,0,0.2-0.1l0.1,0c0.3-0.1,0.5-0.1,0.7,0c0.4,0,0.8,0.2,1.2,0.4c0.4,0.3,0.8,0.7,0.9,1.2l-2.5-0.7    c0.8-0.6,1.7-1,2.7-1.1l-1.3,1.7c0-0.5-0.1-1-0.1-1.4l0-1.6l1.3,0.1c0.7,0,1.4,0.1,2.1,0.3l0.9,0.2l0.1,0.5    c0.1,0.7-0.1,1.3-0.3,1.9l-0.6-0.7c0.3,0,0.5,0.1,0.7,0.2c0.2,0.1,0.3,0.2,0.4,0.4c0.2,0.2,0.3,0.4,0.4,0.4c0,0,0.1,0,0.1,0    c0.1,0,0.1,0,0.1-0.1c0.1-0.1,0.2-0.2,0.3-0.3c0.1-0.1,0.3-0.2,0.5-0.2C87.4,69.1,87.6,69.3,87.6,69.4z M87.4,69.6    c-0.1-0.2-0.2-0.2-0.4,0c-0.1,0.1-0.2,0.2-0.3,0.3c0,0.1-0.2,0.1-0.2,0.2c-0.1,0.1-0.2,0.1-0.3,0.1c-0.2,0-0.4-0.1-0.6-0.1    c-0.2-0.1-0.3-0.1-0.4-0.2c-0.1-0.1-0.2-0.1-0.3-0.1c-0.1,0-0.1,0-0.1,0.1L84.2,69c0-0.4-0.2-0.8-0.4-1l1,0.7    c-0.7,0.2-1.4,0.4-2,0.5l1.3-1.5c0.1,0.5,0.2,0.9,0.3,1.4l0.2,1.3L83,70.8c-0.4,0.1-0.7,0.2-1,0.5l-2.5-0.7    c0.1,0.2,0.2,0.4,0.3,0.4C80,71,80,71,80.1,71c0,0,0.1,0,0.2,0l-0.1,0c0.1,0,0,0,0.1,0l0,0c0,0,0,0,0,0c0,0-0.1,0-0.1,0.1    c0,0,0,0,0,0l0,0c0,0,0,0,0,0l0,0c0,0,0,0.1-0.1,0.1c-0.1,0.2-0.1,0.5-0.2,0.8l-1.1-1.4l0.9,0.2l0.2,0.1c0.1,0,0.2,0.1,0.5,0.2    c0.1,0.1,0.3,0.1,0.4,0.2c0.1,0,0.2,0.2,0.2,0.2c0.1,0.1,0.1,0.2,0.2,0.3c0.2,0.3,0.2,0.6,0.2,0.7c0,0.2,0,0.2,0,0.3l0,0.1    c0,0.1,0,0.2,0,0.3c0,0.2,0.1,0.4,0.1,0.6l0.2,0.6l-0.1,0.2c-0.2,0.4-0.5,0.6-0.6,0.8l-0.2,0.1c0,0,0,0,0,0c0,0,0,0,0,0    c0,0,0,0,0,0.1c0-0.1,0,0,0,0c0,0,0,0,0,0.1c0,0.1,0.1,0.2,0.3,0.3c0.3,0.2,0.7,0.5,1,0.6c0.3,0.1,0.7,0.2,1,0.1l-0.2,0.8    c-0.3-0.3-0.4-0.8-0.3-1.2c0-0.2,0.1-0.4,0.3-0.6c0.1-0.1,0.1-0.2,0.3-0.3c0.2-0.1,0.1-0.1,0.3-0.2c0.2-0.1,0.4-0.1,0.6-0.1    c0.2,0,0.3,0,0.3-0.1c0,0,0-0.1,0-0.1c0,0-0.1,0-0.1,0.1C84,74.9,84,75,84,75.1l1.7-0.6c0.4,0.3,0.7,0.5,1.1,0.7l-1.1-0.1    c0.5-0.3,1-0.9,1.2-1.5l0.6,1.1c-0.3-0.2-0.6-0.5-0.9-0.7l-0.8-0.5l0.2-0.5c0.2-0.6,0.3-1.2,0.4-1.8l0-0.5l0.3,0    c0.4,0,0.9-0.1,1.3-0.2l-0.2,0.2C87.7,70.4,87.6,70,87.4,69.6z"></path>
  <path fill="#010101" d="M43,40.4c2.3-1.1,5.2-0.9,7.5,0.5c2.2,1.3,4.4,2.5,6.7,3.7c2.2,1.2,4.5,2.4,6.6,3.7c2.2,1.3,4.4,2.6,6.5,4    c2.1,1.4,4.2,2.8,6.3,4.3l6.2,4.4l1.6,1.1c0.6,0.4,1,0.9,1.5,1.3c0.2,0.2,0.4,0.4,0.6,0.6l0.7,0.6c0.5,0.4,1,0.8,1.5,1.3l0.3,0.4    l0.2,0.2l0.1,0.2l0.6,0.8c0.3,0.6,0.7,1.2,0.9,1.8c0.4,1.3,0.7,2.6,0.6,3.9c-0.1,1.3-0.4,2.7-1.1,3.9c-0.7,1.2-1.6,2.2-2.7,3    c-1.2,0.7-2.5,1.2-3.9,1.4c-0.7,0.1-1.4,0.1-2.1,0.1c-0.7,0-1.4-0.1-2.1-0.3c-1.4-0.3-2.6-0.9-3.8-1.6l-3.3-2l-6.5-4l-6.5-4    c-2.1-1.4-4.3-2.7-6.4-4.1c-2.1-1.4-4.3-2.8-6.4-4.2c-2.1-1.4-4.2-2.9-6.2-4.4l-0.3-0.2l-0.1-0.2c-0.2-0.4-0.3-0.7-0.5-1    c-0.1-0.1-0.1-0.2-0.3-0.4l-0.4-0.5c-0.5-0.7-1-1.4-1.4-2.1c-0.4-0.8-0.7-1.6-0.9-2.4c0-0.2-0.1-0.4-0.1-0.7l0-0.6    c0-0.5,0-0.9,0.1-1.3c0.2-0.8,0.5-1.6,0.9-2.4c0.4-0.7,0.9-1.4,1.4-2c0.5-0.6,1.1-1.2,1.8-1.7c0.3-0.2,0.6-0.5,1-0.7    C42.3,40.7,42.6,40.6,43,40.4z M43.1,40.7c-0.4,0.2-0.7,0.3-1.1,0.5c-0.3,0.2-0.6,0.4-0.9,0.7c-0.6,0.5-1.2,1.1-1.6,1.7    c-0.5,0.6-0.9,1.3-1.2,2c-0.3,0.7-0.5,1.5-0.6,2.2c0,0.4,0,0.7,0,1.1c0,0.2,0.1,0.4,0.1,0.6c0,0.1,0.1,0.3,0.1,0.5    c0.2,0.7,0.6,1.3,1,1.9c0.4,0.6,0.9,1.2,1.5,1.7l0.4,0.4c0.1,0.1,0.3,0.4,0.5,0.5c0.3,0.4,0.5,0.8,0.7,1.1l-0.4-0.4    c2.2,1.2,4.4,2.5,6.6,3.8c2.2,1.3,4.3,2.7,6.5,4c2.2,1.3,4.3,2.7,6.4,4.1l6.4,4.2l6.3,4.2l3.2,2.1c1,0.7,2,1.2,3.1,1.6    c2.2,0.7,4.7,0.7,6.7-0.4c1-0.6,1.9-1.4,2.5-2.4c0.6-1,1-2.2,1.1-3.4c0.1-1.2-0.1-2.4-0.4-3.6c-0.2-0.6-0.5-1.1-0.8-1.6l-0.6-0.7    L88.6,67l-0.1-0.1l-0.3-0.3c-0.4-0.4-0.9-0.8-1.4-1.1l-0.8-0.6c-0.3-0.2-0.5-0.4-0.8-0.6c-0.5-0.4-0.9-0.8-1.4-1.1l-1.6-0.9    l-6.6-3.8c-2.2-1.3-4.4-2.6-6.5-3.9c-2.2-1.3-4.3-2.7-6.4-4.2c-2.1-1.4-4.2-2.9-6.2-4.4c-2-1.5-4.1-3-6.2-4.5    c-1-0.7-2.2-1.2-3.4-1.3C45.5,40,44.3,40.2,43.1,40.7z"></path>
  <path fill="#010101" d="M53.5,57.2c0,0.1,0.2,0.3,0.4,0.4c0.2,0.2,0.3,0.3,0.5,0.4c0.3,0.3,0.7,0.5,1.1,0.8    c0.8,0.5,1.6,0.9,2.4,1.3c1.6,0.8,3.3,1.5,4.8,2.5c1.5,0.9,3,2,4.4,3.1c0.7,0.6,1.4,1.2,2.1,1.8c0.7,0.6,1.4,1.2,2.1,1.7l-0.8,0.2    c0.5-0.7,0.9-1.3,1.3-2c0.2-0.3,0.4-0.7,0.6-1c0.2-0.3,0.4-0.7,0.6-1c0.8-1.4,1.6-2.7,2.4-4.1l0.1,1.1l-2.2-1.5l-2.2-1.5    c-1.5-1-3-1.9-4.5-2.8l-4.6-2.7c-0.8-0.4-1.5-0.9-2.3-1.3c-0.4-0.2-0.8-0.5-1.1-0.7c-0.4-0.2-0.8-0.5-1.1-0.7l1.3-0.4    c-0.9,1-1.9,2-2.8,3.1c-0.5,0.5-0.9,1.1-1.3,1.6c-0.2,0.3-0.4,0.6-0.6,0.8l-0.3,0.4C53.6,56.9,53.5,57.1,53.5,57.2L53.5,57.2z     M53.2,57.2c0-0.3,0.1-0.4,0.2-0.6l0.3-0.4c0.2-0.3,0.4-0.6,0.5-0.9c0.4-0.6,0.7-1.2,1-1.8c0.6-1.2,1.2-2.5,1.8-3.8l0.3-0.7l1,0.3    c0.9,0.2,1.8,0.5,2.6,0.9c0.9,0.3,1.7,0.7,2.5,1.1c1.6,0.8,3.2,1.7,4.8,2.8c1.5,1,3,2.1,4.4,3.3c0.7,0.6,1.4,1.2,2.1,1.8    c0.7,0.6,1.3,1.3,1.9,2l0.6,0.6l-0.5,0.5c-1.1,1.2-2.1,2.4-3,3.7c-0.5,0.6-0.9,1.3-1.3,2c-0.4,0.7-0.8,1.4-1.1,2.1l-0.2,0.5    l-0.5-0.3c-0.8-0.5-1.6-0.9-2.4-1.3c-0.8-0.4-1.6-0.8-2.4-1.3c-1.6-0.9-3.1-1.8-4.5-2.9c-1.4-1.1-2.7-2.4-4.1-3.6    c-0.7-0.6-1.4-1.2-2-1.8l-1-0.9l-0.5-0.5C53.5,57.7,53.3,57.5,53.2,57.2L53.2,57.2z"></path>
  <path fill="#010101" d="M68.1,56.3c0,0-0.4,0.3-1.1,0.8c-0.6,0.5-1.4,1.2-2.2,1.9c-1.6,1.4-3.1,3-3.1,3s0.9-2,2-3.9    c0.5-1,1.1-1.9,1.6-2.6c0.5-0.7,0.8-1.2,0.8-1.2L68.1,56.3z"></path>
  <path fill="#010101" d="M70.4,57.8c0,0-0.4,0.3-1,0.7c-0.6,0.4-1.4,1-2.1,1.6c-1.5,1.2-2.9,2.7-2.9,2.7s0.8-1.8,1.8-3.6    c0.5-0.9,1.1-1.7,1.5-2.4c0.4-0.6,0.7-1,0.7-1L70.4,57.8z"></path>
  <polygon fill="#010101" points="72.3 58.7 66 63.3 70.2 56.7"></polygon>
  <path fill="#010101" d="M73.9,60.1c0,0-0.4,0.2-0.9,0.6c-0.5,0.3-1.2,0.8-1.9,1.3c-1.4,1-2.7,2.1-2.7,2.1s0.8-1.6,1.7-3.1    c0.4-0.8,0.9-1.5,1.3-2.1c0.4-0.6,0.6-0.9,0.6-0.9L73.9,60.1z"></path>
  <path fill="#010101" d="M75.4,61.8c0,0-0.3,0.2-0.8,0.5c-0.5,0.3-1.1,0.7-1.7,1.2c-1.2,0.9-2.4,2-2.4,2s0.5-1.5,1.2-3    c0.4-0.7,0.8-1.4,1.1-2c0.3-0.5,0.6-0.9,0.6-0.9L75.4,61.8z"></path>
  <polygon fill="#010101" points="76.9 62.8 72 66 74.7 60.9"></polygon>
  <path fill="#010101" d="M95.2 101.7c.7-1.4 1.4-2.8 2.1-4.3.7-1.4 1.5-2.8 2.3-4.2.8-1.4 1.6-2.8 2.4-4.1.8-1.4 1.7-2.7 2.5-4 3.4-5.4 7-10.6 10.8-15.6l0 1.4c-1.3-1.8-2.4-3.8-3.2-5.9-.4-1-.7-2.2-1-2.9-.4-.7-1-1.2-1.8-1.7-.8-.5-1.8-1-2.7-1.5l-2.8-1.6-5.5-3.2-5.4-3.3c-1.8-1.1-3.6-2.3-5.4-3.4-3.6-2.3-7.1-4.7-10.6-7.1l-10.5-7.2-10.5-7.3-10.4-7.3-2.6-1.8c-.9-.6-1.7-1.2-2.5-1.4-.4-.1-.8 0-1.3.1l-1.5.4-3.1.8.5-.4c-1.6 3-3.2 5.9-4.8 8.9-1.6 3-3.3 5.9-5 8.8-3.4 5.8-7 11.5-10.6 17.2l-.4-2 10.4 6.5 10.3 6.6c3.4 2.2 6.8 4.4 10.3 6.7 3.4 2.2 6.8 4.5 10.2 6.7l10.2 6.8c3.4 2.2 6.8 4.5 10.2 6.8 3.4 2.3 6.8 4.6 10.1 6.9 3.4 2.3 6.7 4.6 10.1 7l-.2.2c-3.5-2.1-7-4.2-10.5-6.3-3.5-2.1-7-4.2-10.5-6.4-3.5-2.1-7-4.2-10.4-6.4l-10.4-6.5c-3.5-2.1-6.9-4.3-10.4-6.5-3.4-2.2-6.9-4.3-10.3-6.6l-10.3-6.6-10.2-6.7-1.2-.8.8-1.2c1.9-2.8 3.7-5.6 5.5-8.4l5.4-8.5c1.8-2.8 3.5-5.7 5.3-8.6 1.7-2.9 3.5-5.7 5.2-8.6l.2-.3L34 15l3.1-.7 1.6-.3c.6-.1 1.2-.2 1.9 0 1.3.3 2.2 1.1 3 1.7l2.5 1.9c1.7 1.3 3.4 2.5 5.1 3.8 1.7 1.3 3.4 2.5 5.2 3.7 1.7 1.2 3.5 2.4 5.2 3.6 1.8 1.2 3.5 2.4 5.3 3.5 1.8 1.1 3.6 2.3 5.4 3.4l5.4 3.3c3.6 2.2 7.3 4.4 10.9 6.5l11 6.4 5.5 3.2 2.8 1.6c.9.5 1.8 1 2.8 1.6.5.3 1 .7 1.4 1.1.2.2.4.5.7.7l.2.2.1.2c.1.2.2.3.3.5.3.6.5 1.2.6 1.7.2.5.3 1 .5 1.4.7 1.9 1.6 3.7 2.8 5.3l.5.7-.5.7c-1.9 2.5-3.9 5-5.8 7.5l-2.8 3.8-2.8 3.8c-1.8 2.6-3.6 5.2-5.3 7.8-.9 1.3-1.7 2.6-2.5 4l-2.5 4L95.2 101.7zM37.2 8.6c0 0 0-.1.1-.2 0-.1.2-.2.4-.3C38 8 38.8 7.9 39.4 8.3c.3.2.6.5.8.9.2.4.1 1-.1 1.4l-.2.3c-.1.1-.1.1-.2.2-.1.2-.2.4-.3.5-.2.3-.4.7-.6 1.1-.3.4-.7.8-1.2.9-.3.1-.5.1-.8.1-.1 0-.3 0-.4-.1l-.1 0 0 0 0 0c0 0 .1 0-.1 0l0 0-.1 0-.1 0c-1.2-.5-1.6-1.6-1.5-2.3 0-.8.4-1.4.8-1.6.4-.3.6-.3.6-.3l.2.2c0 0 .1.2.2.5.1.1.2.2.3.4.1.1.2.2.4.3.2.1.5.1.3.2l.1.1 0 0 0 0c-.2-.1-.1 0-.1 0l0 0 0 0 0 0c0 0 0 0 0 .1 0 0 0 .1.1.1.1.1.3.2.6.3.3.1.6 0 .7-.2.1-.1.1-.2.1-.3 0 0 0-.1-.1-.2 0 0-.1-.1-.1-.1-.2-.2-.5-.2-.6-.2-.1 0-.1-.1-.2-.2-.1-.2-.1-.5-.3-.8 0-.1-.1-.2-.2-.3-.1-.1-.1-.1-.1-.1L37.2 8.6zM117.6 64.3C117.6 64.3 117.6 64.3 117.6 64.3c0 .1 0 .1-.2.2-.2.1-.6 0-.8-.3-.2-.3-.4-.6-.3-1.1 0-.1.1-.3.2-.4l0 0c0 0 0 0 0-.1l0 0 0 0 0 0 0 0 0-.1c0-.1.1-.2.2-.3.1-.1.2-.2.2-.2.4-.3.8-.5 1.3-.4.5 0 .9.3 1.2.7.2.2.3.4.4.5.1.1.2.3.4.4.2.3.6.6.9.9.3.3.6.8.7 1.3.1.5.1 1-.1 1.5-.1.3-.2.5-.4.8-.1.1-.2.2-.3.3L121 68l-.1.1 0 0-.1.1c-.1 0-.4.2-.5.2-.1 0-.3.1-.4.1-.3 0-.5 0-.8-.1-.9-.3-1.3-.9-1.4-1.4 0-.2 0-.4 0-.5 0-.1.1-.2.1-.2l.3-.1c0 0 .1 0 .2 0 .1 0 .2 0 .4 0 .1 0 .3-.1.4-.1.1-.1.2-.2.3-.3 0 0 0-.1 0-.1 0 0 0 0 0 0 0 0-.2.1-.1 0 0-.1-.1 0 0 0 .1 0 .2-.2.3-.4.1-.2.3-.4.4-.7.1-.3.1-.6 0-.8-.1-.1-.2-.1-.3-.2-.1 0-.3 0-.4.1-.3.1-.4.3-.5.4-.1.1-.2 0-.2 0l-.1 0c0 0 0-.1 0-.1l-.1 0 0 0 0 0 0 0 0 0c.1-.1 0 0 0 0l0 0c0-.1 0-.1 0-.2-.1-.1-.2-.1-.3-.1-.1 0-.3 0-.4.1-.1.1 0 .1 0 .1 0 0 0 0 0 0L117.6 64.3zM5.3 60.4c0 0-.2-.2-.3-.8 0-.3 0-.6.1-1 .1-.4.3-.8.6-1.2.3-.4.8-.8 1.4-1 .6-.2 1.4 0 2 .4.6.4 1 .8 1.4 1.2.4.4.8.9 1 1.5.1.3.2.7.2 1.1 0 .1 0 .4 0 .6 0 .2-.1.4-.2.5-.3.7-.8 1.3-1.3 1.7-.6.4-1.3.6-2 .6-.3 0-.2 0-.5 0-.2 0-.4-.1-.5-.1-.3-.1-.6-.2-.8-.4-.9-.6-1.3-1.4-1.4-2C5 61.2 5 61 5 60.9c0-.1 0-.2 0-.2l.3-.1c0 0 .3.2.7.3.4.1.9.3 1.4.2.1 0 .2 0 .3 0 .1 0 .1 0 .1 0 0 0 .3 0 .2 0 .2-.1.3-.1.6-.2.2-.1.5-.2.7-.4l.2-.1c.1-.1.1 0 .2-.1.1-.1.2-.2.3-.4.2-.4.1-.8-.1-1.2-.2-.3-.7-.5-1-.3-.4.1-.5.4-.7.5-.2.1-.4.2-.6.4C7 59.4 6.5 59.7 6.2 60c-.3.2-.6.5-.6.5L5.3 60.4zM87.7 114.9c0 0 0-.1-.1-.2-.1-.1-.1-.3-.2-.5-.1-.4-.1-1.1.5-1.7.1-.1.1-.1.3-.2 0 0 0 0 .1-.1l.2-.1c.2-.1.4-.2.7-.2.5-.1 1 .2 1.4.6.4.4.6.8.8 1.1.1.2.2.3.3.5.1.1.3.3.4.5.3.4.5.8.5 1.3 0 .5-.1 1-.4 1.5-.1.2-.4.5-.6.6l-.2.1 0 0-.1.1c-.2.1-.4.2-.5.2-.6.1-1.1 0-1.5-.2-.8-.4-1.2-1.1-1.2-1.7 0-.3.1-.4.2-.5.1-.1.1-.1.1-.1l.3 0c0 0 0 0 .1.1.1 0 .2.1.3.1.1 0 .3 0 .4-.1.1-.1.2-.1.3-.2.1-.1.1-.2.1-.2 0 0-.1 0-.1 0-.1 0 0 0 0 0l0 0 0 0 0 0 0 0c-.2.1-.1 0-.1.1l0 0c0 0 0 0 .1 0 .1 0 .2 0 .3-.2.1-.1.3-.3.5-.6.1-.2.1-.2.1-.4 0-.1 0-.3-.1-.4-.1-.2-.4-.3-.6-.1-.2.2-.3.4-.3.5 0 0-.1.1-.1.1l0 0c0 0-.1 0-.1 0 0 0 0 0 0 0-.4 0-1.4.5-1.4.5L87.7 114.9z"></path>
</svg>
