<svg xmlns="http://www.w3.org/2000/svg" enable-background="new 0 0 128 128" viewBox="0 0 128 128" id="cornet">
  <path fill="#010101" d="M18.6,106.7c3-6.7,6-13.4,8.3-20.3c2.3-6.9,3.9-14.1,3.7-21.2c0-0.9-0.1-1.8-0.1-2.7l-0.1-1.3l-0.2-1.3     c-0.1-0.9-0.2-1.8-0.4-2.6c-0.2-0.8-0.5-1.6-0.9-2.3c-0.4-0.7-0.8-1.3-1.4-1.7c-0.5-0.4-1-0.5-1.7-0.4c-0.5,0.1-1.1,0.5-1.7,1     c-0.3,0.3-0.6,0.6-0.9,0.9l-0.9,1c-2.3,2.7-4.3,5.7-6,8.8c-1.8,3.1-3.3,6.4-4.8,9.7c-2.9,6.6-5.3,13.5-7,20.6     c-0.8,3.5-1.6,7.1-1.9,10.7c-0.1,1.8-0.1,3.6,0.1,5.4c0.1,0.9,0.3,1.8,0.5,2.6c0.3,0.8,0.5,1.8,0.9,2.4c0.4,0.6,1.2,0.8,2,0.7     c0.2,0,0.4-0.1,0.6-0.1c0.2-0.1,0.5-0.1,0.7-0.2c0.4-0.1,0.8-0.3,1.3-0.4c1.7-0.6,3.3-1.5,5-2.3c3.3-1.6,6.9-2.7,10.6-3.2     c7.4-1.1,14.8-0.4,22.1,0.9c7.3,1.3,14.4,3.2,21.5,4.6c7.1,1.4,14.4,2.2,21.4,1.3c1.8-0.2,3.5-0.6,5.2-1c1.7-0.4,3.4-1.1,5-1.7     c3.3-1.4,6.3-3.2,9.1-5.4c2.8-2.2,5.2-4.8,7.3-7.6c2.1-2.9,3.7-6,5-9.3c1.2-3.3,2-6.8,2.3-10.3c0.3-3.5,0.1-7.1-0.5-10.6     c-0.6-3.5-1.5-7-2.5-10.5l-3-10.6c-2.1-7-4-14.1-6-21.1c-0.5-1.8-1-3.5-1.5-5.3c-0.4-1.8-0.7-3.8-0.2-5.7     c0.2-0.9,0.4-1.8,0.6-2.7c0.1-0.9,0.1-1.7,0.1-2.6c-0.2-1.7-0.9-3.4-1.9-4.9l0.3,0.1c-1.7,0.1-3.5,0.7-5,1.6l-0.2-0.2     c1.5-1,3.2-1.7,5.1-2l0.2,0l0.1,0.1c1.2,1.5,2,3.2,2.3,5.1c0.2,0.9,0.2,1.9,0.1,2.9c-0.1,1-0.3,1.9-0.4,2.7     c-0.6,3.4,1,6.9,2.1,10.4c2.3,7,4.5,13.9,6.7,20.9l3.3,10.5c1.1,3.5,2.2,7.1,2.9,10.8c1.4,7.4,0.8,15.3-1.8,22.4     c-1.3,3.6-3.1,7-5.4,10c-2.3,3.1-5,5.8-8,8.1c-3,2.3-6.3,4.2-9.8,5.7c-1.8,0.7-3.5,1.3-5.4,1.8c-1.8,0.4-3.7,0.8-5.6,1     c-7.5,0.9-15-0.2-22.2-1.7c-7.2-1.6-14.2-3.8-21.3-5.3c-7.1-1.5-14.4-2.4-21.6-1.4c-3.6,0.5-7.1,1.5-10.4,3     c-1.6,0.8-3.3,1.7-5,2.3c-0.4,0.2-0.9,0.3-1.3,0.4c-0.2,0.1-0.4,0.1-0.7,0.2c-0.2,0.1-0.5,0.1-0.7,0.1c-0.5,0.1-1,0.1-1.6-0.1     c-0.5-0.2-1-0.5-1.3-1c-0.6-0.9-0.9-1.8-1.2-2.7c-0.3-0.9-0.5-1.8-0.6-2.7c-0.3-1.9-0.4-3.7-0.3-5.6c0.1-3.7,0.8-7.4,1.5-11     c1.5-7.2,3.6-14.3,6.4-21.2c1.4-3.4,2.9-6.8,4.8-10.1c1.8-3.3,3.9-6.4,6.4-9.3l0.9-1c0.3-0.4,0.7-0.7,1.1-1.1     c0.8-0.7,1.7-1.4,3-1.7c0.5-0.1,1.2-0.1,1.8,0c0.6,0.2,1.2,0.4,1.7,0.8c1,0.7,1.6,1.6,2.1,2.5c0.5,0.9,0.8,1.9,1.1,2.9     c0.2,1,0.3,1.9,0.4,2.8l0.2,1.4l0.1,1.4c0,0.9,0.1,1.9,0.1,2.8c0,3.8-0.5,7.5-1.3,11.1c-0.8,3.6-1.9,7.2-3.2,10.6     c-1.3,3.5-2.8,6.8-4.4,10.1c-1.6,3.3-3.3,6.6-5,9.8L18.6,106.7z"></path>
  <path fill="#010101" d="M31.2,53.6c0,0,0.2,0.4,0.5,1c0.3,0.6,0.7,1.5,1.3,2.5c0.3,0.5,0.6,1.1,1,1.6c0.3,0.6,0.8,1.2,1.2,1.8     c0.8,1.2,1.8,2.5,2.8,3.7c1,1.2,2.1,2.4,3.2,3.4c0.5,0.5,1.1,1,1.6,1.5c0.5,0.5,1,0.9,1.5,1.2c0.9,0.8,1.7,1.3,2.3,1.7     c0.6,0.4,0.9,0.6,0.9,0.6s-0.4-0.2-1-0.5c-0.6-0.3-1.5-0.8-2.5-1.5c-0.5-0.3-1.1-0.7-1.6-1.1c-0.6-0.4-1.2-0.8-1.8-1.3     c-1.2-0.9-2.4-2-3.6-3.1c-1.2-1.1-2.3-2.3-3.3-3.5c-0.5-0.6-1-1.1-1.4-1.7c-0.4-0.6-0.8-1.1-1.2-1.6c-0.7-1-1.3-1.9-1.7-2.5     c-0.4-0.6-0.6-0.9-0.6-0.9L31.2,53.6z"></path>
  <path fill="#010101" d="M113.2,48.7c0,0-1.5-1-4.2-2.6c-1.3-0.8-3-1.8-4.9-2.8c-1.9-1-4.1-2.1-6.5-2.9c-1.2-0.4-2.5-0.8-3.8-0.9     c-0.7-0.1-1.5-0.2-2.2-0.3c-0.7-0.1-1.5-0.1-2.2-0.2c-3-0.2-6.2-0.5-9.5-0.3c-3.3,0.2-6.8,0.8-10.1,1.9c-3.3,1.1-6.5,2.8-9.3,5     c-2.8,2.1-5.2,4.7-7.1,7.5c-0.4,0.7-0.9,1.5-1.3,2.1c-0.4,0.8-0.8,1.6-1.2,2.3c-0.3,0.8-0.6,1.5-0.9,2.3     c-0.2,0.8-0.5,1.6-0.7,2.3c-0.4,1.6-0.8,3.1-0.9,4.7c-0.1,0.8-0.2,1.5-0.2,2.3c0,0.4-0.1,0.8-0.1,1.1c0,0.4,0,0.7,0,1.1     c-0.1,3,0.1,5.8,0.6,8.4c0.2,1.3,0.5,2.5,0.8,3.7c0.4,1.1,0.7,2.2,1,3.2c0.8,2,1.6,3.7,2.3,5.1c0.4,0.7,0.7,1.3,1,1.8     c0.3,0.5,0.6,0.9,0.9,1.3c0.5,0.7,0.7,1.1,0.7,1.1L55.1,96c0,0-0.3-0.3-0.9-0.9c-0.3-0.3-0.7-0.7-1.1-1.2c-0.4-0.5-0.8-1-1.3-1.7     c-1-1.3-2-2.9-3-4.9c-0.3-0.5-0.5-1-0.7-1.6c-0.2-0.6-0.5-1.1-0.7-1.7c-0.4-1.2-0.9-2.5-1.2-3.8c-0.4-1.3-0.6-2.8-0.8-4.3     c-0.2-1.5-0.3-3.1-0.3-4.7c0-0.4,0-0.8,0-1.2c0-0.4,0.1-0.8,0.1-1.2c0.1-0.8,0.1-1.7,0.3-2.5c0.2-1.7,0.6-3.4,1.1-5.1     c0.3-0.8,0.6-1.7,0.9-2.5c0.4-0.8,0.7-1.7,1.1-2.5c0.4-0.8,0.8-1.5,1.3-2.3c0.5-0.9,1-1.6,1.6-2.3c2.2-3,5.1-5.4,8.3-7.3     c3.2-1.9,6.5-3.4,9.9-4.5c3.4-1.1,6.8-2,10.2-2.6c3.4-0.6,6.7-0.9,9.9-0.7c0.8,0,1.6,0.1,2.4,0.2c0.7,0.1,1.5,0.2,2.2,0.3     c1.5,0.2,3,0.7,4.3,1.2c2.6,1.1,4.8,2.3,6.7,3.6c1.9,1.2,3.4,2.4,4.6,3.5c1.2,1,2.1,1.9,2.7,2.5c0.6,0.6,0.9,0.9,0.9,0.9     L113.2,48.7z"></path>
  <path fill="#010101" d="M70.1,105.6c0,0,0.6,0.3,1.8,0.9c0.6,0.3,1.4,0.6,2.2,0.9c0.9,0.3,1.9,0.7,3.1,0.9c2.4,0.6,5.3,1.1,8.7,1     c3.4,0,7.2-0.5,11.1-1.8c2-0.6,4-1.4,5.9-2.5c2-1,3.9-2.2,5.7-3.7c1.8-1.5,3.4-3.2,4.6-5.4c1.2-2.1,2.1-4.5,2.8-7.1     c0.7-2.6,1.3-5.2,1.5-7.9c0.1-1.4,0.2-2.7,0.1-4.1c0-0.7-0.1-1.4-0.1-2.1c0-0.7-0.2-1.4-0.3-2c-0.9-5.5-3.4-10.7-6.9-15     c-1.8-2.1-3.8-4-6.1-5.7c-2.2-1.6-4.6-3-7.1-4c-5-2.1-10.4-2.9-15.5-2.5c-2.5,0.2-5,0.7-7.4,1.4C72.2,47.8,70,48.9,68,50     c-4,2.4-7.3,5.5-9.5,8.9l-0.4,0.6l-0.2,0.3l-0.2,0.3c-0.2,0.5-0.5,0.9-0.7,1.3c-0.2,0.4-0.4,0.9-0.6,1.3     c-0.2,0.4-0.3,0.9-0.5,1.3c-0.6,1.8-1.1,3.5-1.3,5.2c-0.3,1.7-0.3,3.2-0.3,4.7c0.1,1.5,0.2,2.8,0.5,4c0.5,2.4,1.2,4.2,1.7,5.4     c0.3,0.6,0.5,1,0.7,1.4c0.2,0.3,0.2,0.5,0.2,0.5L57,85.4c0,0-0.1-0.1-0.3-0.4c-0.2-0.3-0.5-0.7-0.9-1.3c-0.7-1.2-1.6-3-2.3-5.4     c-0.7-2.4-1.2-5.6-0.9-9.2c0.2-1.8,0.5-3.7,1-5.6c0.2-0.5,0.3-1,0.5-1.5c0.2-0.5,0.4-1,0.6-1.5c0.2-0.5,0.4-0.9,0.7-1.4l0.2-0.4     l0.2-0.4l0.4-0.7c2.3-3.9,5.7-7.5,10.1-10.1c2.2-1.4,4.6-2.5,7.2-3.3c2.6-0.8,5.3-1.3,8.1-1.5c5.6-0.3,11.4,0.7,16.7,3.1     c2.6,1.2,5.2,2.7,7.5,4.6c2.2,1.9,4.3,4,6,6.4c1.7,2.4,3.1,4.9,4.2,7.6c1.1,2.7,1.9,5.4,2.4,8.2c1,5.6,0.4,11.3-0.6,16.6     c-0.5,2.7-1.3,5.3-2.5,7.7c-0.6,1.2-1.3,2.4-2.1,3.4c-0.8,1-1.8,2-2.7,2.8c-1.9,1.7-4,3-6.2,4.1c-2.1,1.1-4.3,1.9-6.4,2.5     c-4.2,1.2-8.3,1.6-11.9,1.4c-3.6-0.2-6.6-0.9-9-1.8c-1.2-0.4-2.2-0.9-3.1-1.3c-0.9-0.5-1.6-0.9-2.2-1.2c-1.1-0.8-1.7-1.2-1.7-1.2     L70.1,105.6z"></path>
  <path fill="#010101" d="M96.1 77.9c.4.8 1.2 1 2 1 .4 0 .7-.1 1-.3.1-.1.2-.2.4-.3.1-.1.2-.2.3-.4.3-.6.4-1.3.3-2 0-.2-.1-.3-.1-.5l0-.1c0 0 0 0 0 0l-.1-.1-.1-.2c-.2-.3-.3-.6-.6-.8-.2-.2-.5-.4-.7-.5-.3-.1-.5-.2-.8-.2-.1 0-.4.1-.6.2-.2.1-.4.3-.4.5-.1.2-.1.2-.1.4 0 .1 0 .3 0 .5 0 .1 0 .3-.1.5-.1.2-.2.4-.3.5-.4.4-.7.5-1 .5-.2 0-.4.1-.5.1l-2.5.2L91.4 77l-.4-.8c-.2-.4-.5-.8-.7-1.3l1.4.7-4 .4c-1.3.2-2.7.3-4 .4-1.3.1-2.7.2-4 .3l-4 .3c-1.3.1-2.7.1-3.9.2-.6.1-1.2.2-1.7.4-.2.1-.5.2-.7.4l-.2.1c0 0-.1.1-.2.1-.1.1-.1.1-.2.3-.6.8-.8 2.1-.2 3.1.3.5.7.9 1.3 1.2.6.3 1.2.5 1.9.4-.6.2-1.4.3-2.1.1-.7-.2-1.4-.6-1.9-1.2-.5-.6-.8-1.4-.9-2.1-.1-.8.1-1.6.5-2.3.1-.2.2-.4.4-.5.1-.1.1-.1.2-.2l.2-.2c.3-.3.6-.5 1-.7.7-.4 1.5-.6 2.2-.8.7-.2 1.4-.2 2.1-.3.7-.1 1.3-.2 2-.3l4-.5c1.3-.2 2.7-.3 4-.4 1.3-.1 2.7-.3 4-.4l4-.3.9-.1.4.8c.2.4.4.9.6 1.3l-1.3-.7 2.5-.1c.1 0 .2 0 .1 0 0 0-.1 0-.4.3 0 0-.1.1-.1.1 0 0-.1.1-.1.1 0 .1 0 .2 0 .2 0 .1 0 0 0-.1-.1-.6.2-1.4.6-1.9.4-.5.9-.9 1.4-1.2.6-.3 1.1-.4 1.8-.3.5 0 1.1.2 1.6.5.5.3.9.7 1.2 1.1 1.2 1.7 1.3 4 .1 5.5-.2.2-.3.4-.5.5-.2.1-.4.3-.6.4-.5.2-1 .2-1.4.2-.5-.1-.9-.2-1.2-.5C96.5 78.7 96.2 78.3 96.1 77.9zM96.4 69.2c1.6-.4 2.7-1.7 2.9-3.1.1-.3.1-.7 0-1-.1-.3-.2-.6-.3-.9-.3-.6-.8-1.1-1.4-1.4-.3-.1-.6-.3-.9-.3-.3-.1-.6-.1-.8 0-.1 0-.2.1-.3.1-.1 0-.1 0-.2.2 0 0-.1.3-.2.5-.1.3-.1.7-.2 1.1-.1.4-.2 1.1-.6 1.6-.4.5-.9.9-1.6 1.2-.3.1-.8.2-1.3.1-.5-.1-1-.6-1.3-1l-.2-.4.1-.5c0-.1-.1-.4-.4-.6-.1-.1-.3-.2-.5-.3 0 0-.1 0-.1 0l0 0c.1 0 0 0 0 0l-.1 0-.1 0-.2 0c-.5 0-1.1.1-1.8.3-.7.2-1.4.4-2.1.5-1.4.3-2.9.6-4.4.9-1.5.3-2.9.4-4.4.5-.7.1-1.5.1-2.2.1l-2.2.1c-1.4.1-2.7.3-3.8.9-.5.3-1 .7-1.4 1.2-.2.2-.3.5-.4.8C66.1 69.7 66 69.9 66 70l0 .3 0 .2c0 .6.3 1.2.7 1.7.4.5 1.1.9 1.8.8-.7.3-1.6.1-2.2-.4-.6-.5-1.1-1.2-1.3-2l-.1-.3 0-.3c0-.3 0-.4 0-.7.1-.4.2-.8.4-1.2.4-.8 1-1.4 1.6-1.9.7-.5 1.4-.9 2.2-1.2.8-.2 1.5-.4 2.3-.5 1.5-.2 2.9-.3 4.3-.5 1.4-.2 2.8-.5 4.2-.7 1.4-.3 2.8-.6 4.2-.9l2.1-.5c.7-.2 1.6-.4 2.5-.3.1 0 .2 0 .4 0l.4.1.1 0 .1 0 .1 0c.1 0 .3.1.4.1.5.2 1 .5 1.4.8.4.4.8.8 1 1.4.2.6.3 1.2.2 1.9L92.7 65c0-.1-.2-.2-.4-.2-.1 0-.2 0-.2 0 .1 0 .3-.1.4-.2.1-.1.1-.2.2-.6.1-.4.2-.8.3-1.2.2-.5.4-1 1-1.6.2-.2.5-.4.8-.5.3-.1.6-.2.9-.2 1.1-.1 2.1.3 2.9.9.8.6 1.4 1.4 1.7 2.3.2.4.2 1 .2 1.4 0 .5-.1.9-.2 1.4C99.8 68.1 98 69.3 96.4 69.2zM99.3 89.6c1.3-.2 2.4-1 3-2 .1-.3.3-.5.4-.8l.1-.2c0 0 0-.1 0-.1l0-.1c0-.2 0-.3 0-.4 0-.5-.1-1.1-.4-1.5-.3-.5-.6-.8-1-1.1-.1 0-.2-.1-.3-.1 0 0-.1-.1-.1 0l-.2-.1c-.2 0-.4 0-.6 0-.4.1-.9.3-1.2.6-.3.3-.5.7-.5 1l0 .6-.6.3c-1.2.7-2.7.6-3.9-.2-.3-.2-.6-.4-.8-.7-.2-.2-.3-.4-.4-.4 0 0 0 0 0 0 .1.1-.1-.1 0 0 0 0 0 0 0 0 0 0-.1 0-.3 0-.8.1-1.8.3-2.7.4L87 85.3c-1.8.3-3.7.5-5.5.7-1.8.2-3.7.5-5.5.7l-5.5.6L69 87.4c-.4 0-.3.1-.3 0-.1.1-.2.7-.3 1.1-.1.4-.2.9-.2 1.3-.1.8-.1 1.6.3 2.2.3.6 1 1.2 1.7 1.5 1.5.7 3.5.5 5.3.2-.9.3-1.8.7-2.7.8-.9.2-2 .2-3 0-1-.3-2-.8-2.7-1.7-.7-.9-.9-2.1-.9-3.1 0-.5 0-1 .1-1.5l.1-.7c0-.2.1-.6.2-.9.1-.2.2-.3.4-.6.1-.1.3-.3.5-.4.4-.2.7-.3 1-.4l1.4-.3 5.5-.9c1.8-.3 3.7-.5 5.5-.8 1.8-.3 3.7-.5 5.5-.7l2.8-.3c.5-.1.9-.1 1.4-.2l1.4-.1c.3 0 .7 0 1.1.1.1 0 .2.1.3.1.2.1.1 0 .3.1.2.1.4.3.5.4.3.3.4.5.6.6.1.1.2.2.3.3.4.3 1 .4 1.4.2l-.6.9c.1-1 .7-1.8 1.3-2.3.7-.5 1.5-.9 2.3-.9.4 0 .9 0 1.3.1l.2.1c.2.1.2.1.3.1.2.1.4.2.5.3.7.5 1.1 1.2 1.4 1.9.3.7.3 1.5.2 2.3 0 .2-.1.4-.1.5l0 .1c0 .1 0 .1-.1.2l-.1.3c-.2.3-.4.6-.6.9C102 89.1 100.6 89.7 99.3 89.6z"></path>
  <path fill="#010101" d="M76.3,44.5c0,0,0.6,0.9,1.6,2.5c1,1.6,2.3,3.9,3.8,6.9c0.7,1.5,1.5,3,2.1,4.8c0.4,0.9,0.7,1.7,1.1,2.7     c0.4,0.9,0.7,1.8,1,2.8c0.6,1.9,1.3,3.9,1.8,6c0.3,1,0.5,2.1,0.8,3.1c0.2,1.1,0.5,2.1,0.7,3.2c0.4,2.1,0.7,4.3,1,6.4     c0.3,2.1,0.4,4.2,0.6,6.2c0.1,1,0.1,2,0.1,3c0,1,0,1.9,0,2.9c0,0.9,0,1.8-0.1,2.7c0,0.9-0.1,1.7-0.2,2.5     c-0.2,1.6-0.4,3.1-0.8,4.4c-0.4,1.3-0.9,2.4-1.3,3.2c-0.5,0.8-1,1.4-1.3,1.8c-0.3,0.4-0.5,0.6-0.5,0.6s0.1-0.2,0.4-0.7     c0.2-0.4,0.6-1.1,0.9-1.9c0.3-0.9,0.6-1.9,0.8-3.2c0.2-1.3,0.2-2.7,0.2-4.3c0-1.6-0.2-3.3-0.3-5.1c0-0.9-0.1-1.8-0.2-2.8     c-0.1-1-0.2-1.9-0.3-2.9c-0.2-2-0.5-4-0.8-6.1c-0.3-2.1-0.7-4.1-1.1-6.2c-0.2-1-0.4-2.1-0.6-3.1c-0.2-1-0.5-2-0.7-3.1     c-0.5-2-1-4-1.5-5.9c-0.3-1-0.6-1.9-0.8-2.8c-0.3-0.9-0.5-1.8-0.8-2.7c-0.6-1.7-1.1-3.4-1.6-4.9c-0.6-1.5-1-2.9-1.5-4.1     c-0.5-1.2-0.9-2.3-1.2-3.1C76.7,45.5,76.3,44.5,76.3,44.5z"></path>
  <path fill="#010101" d="M71.8 46.4c0 0 .6.9 1.5 2.4.5.8 1 1.7 1.6 2.9.6 1.1 1.3 2.4 1.9 3.8.7 1.4 1.4 3 2.1 4.6.3.8.7 1.7 1 2.6.3.9.6 1.8 1 2.7.6 1.9 1.2 3.8 1.8 5.8.3 1 .5 2 .8 3 .2 1 .5 2 .7 3.1.4 2.1.7 4.1 1 6.2.3 2 .5 4.1.6 6 .1 1 .1 1.9.2 2.9 0 .9.1 1.9.1 2.8 0 1.8-.1 3.5-.2 5.1-.3 3.1-.9 5.7-1.4 7.5-.3.9-.5 1.5-.7 2-.2.5-.3.7-.3.7s.2-1 .5-2.8c.2-1.8.4-4.3.3-7.4 0-1.5-.2-3.2-.3-4.9-.1-1.7-.4-3.6-.6-5.5-.1-.9-.3-1.9-.4-2.9-.2-1-.3-2-.5-3-.2-1-.3-2-.5-3-.2-1-.4-2-.6-3-.2-1-.4-2-.6-3-.2-1-.5-2-.7-3-.3-1-.5-1.9-.7-2.9-.3-1-.5-1.9-.8-2.8-.3-.9-.5-1.8-.8-2.7-.3-.9-.5-1.7-.8-2.6-.6-1.7-1-3.3-1.6-4.7-.5-1.5-1-2.8-1.4-4-.4-1.2-.8-2.2-1.1-3.1C72.1 47.4 71.8 46.4 71.8 46.4zM67.6 86.1c0 0-.7.3-1.9.7-1.2.5-2.9 1.1-4.6 2.2-.9.6-1.7 1.2-2.4 2.1-.7.8-1.2 1.9-1.6 3-.4 1.1-.5 2.4-.4 3.6.1 1.3.3 2.4.9 3.7.5 1.1 1.2 2.2 2.1 3.1.9.9 1.8 1.8 2.9 2.4 1.1.7 2.1 1.2 3.2 1.5 1.1.4 2.2.6 3.2.8 2.1.3 3.8.3 5.1.2 1.3-.1 2-.2 2-.2s-.2.1-.5.2c-.3.1-.8.3-1.4.5-1.2.4-3 .8-5.3.9-1.1 0-2.4-.1-3.7-.4-1.3-.3-2.7-.7-3.9-1.4-1.3-.7-2.6-1.6-3.7-2.7-1.1-1.1-2-2.4-2.7-4-.6-1.4-1-3.1-1-4.7-.1-1.6.3-3.2.8-4.6.6-1.4 1.4-2.7 2.4-3.6 1-1 2.1-1.6 3.2-2.1 1.1-.5 2.1-.7 2.9-.9.9-.2 1.7-.3 2.3-.4C66.9 86.1 67.6 86.1 67.6 86.1z"></path>
  <path fill="#010101" d="M67.8 90.3c0 0-.3.2-.7.6-.4.4-1 .9-1.5 1.7-.2.4-.5.8-.7 1.2-.1.2-.2.4-.3.7 0 .1-.1.3-.1.4l-.1.3c-.2 1-.2 2 .1 3 .2 1 .8 1.9 1.4 2.9.6.9 1.3 1.7 1.9 2.4.6.7 1.2 1.2 1.7 1.5.5.3.7.5.7.5s-.3 0-.9 0c-.6-.1-1.5-.3-2.4-.7-1-.5-2-1.2-2.9-2.2-.4-.5-.9-1-1.3-1.6-.4-.6-.7-1.4-.9-2.1-.4-1.5-.2-3.1.3-4.5.1-.2.1-.3.2-.5.1-.2.1-.2.2-.4.2-.3.4-.6.6-.8.4-.5.9-.9 1.3-1.2.9-.6 1.8-.9 2.4-1 .3-.1.5-.1.7-.1C67.7 90.3 67.8 90.3 67.8 90.3zM103.8 107.1c0 0 .2-.3.5-.7.3-.5.9-1.2 1.5-2.1.3-.5.6-.9 1-1.5.3-.6.7-1.2 1-1.9.3-.7.7-1.4 1-2.2.3-.8.6-1.6 1-2.5.6-1.8 1.2-3.7 1.5-5.7.4-2.1.6-4.3.7-6.5 0-2.3-.2-4.6-.6-7-.4-2.3-1.1-4.7-2-6.8-1-2.4-2.1-4.3-3.5-6.3-1.4-1.9-2.9-3.7-4.6-5.3-1.7-1.5-3.4-3-5.1-4.1-1.7-1.2-3.5-2.1-5.2-2.9-.9-.4-1.7-.7-2.5-1-.8-.3-1.6-.5-2.3-.8-.7-.2-1.4-.4-2-.6-.6-.2-1.2-.3-1.8-.4-1.1-.2-1.9-.3-2.5-.4-.6-.1-.9-.1-.9-.1s.3 0 .9 0c.6 0 1.5-.1 2.6 0 .6 0 1.2 0 1.8.1.7.1 1.4.2 2.2.3.8.2 1.6.3 2.4.5.8.2 1.7.5 2.6.8.9.4 1.9.7 2.8 1.1.9.5 1.9.9 2.9 1.5 2 1.1 3.9 2.5 5.7 4 1.8 1.6 3.6 3.5 5.1 5.5 1.5 2.1 2.9 4.5 3.9 6.7 1 2.6 1.7 5 2.1 7.6.4 2.6.5 5.1.4 7.5-.2 2.4-.5 4.8-1.1 6.9-.2 1.1-.6 2.1-1 3.1-.4 1-.8 1.9-1.2 2.8-.4.9-.8 1.7-1.3 2.5-.5.7-.9 1.5-1.3 2.1-.5.6-.9 1.2-1.3 1.8-.4.5-.8 1-1.2 1.4-.7.9-1.4 1.4-1.8 1.8C104 106.9 103.8 107.1 103.8 107.1zM73.3 49.8c0 0-.1.1-.4.2-.3.1-.7.3-1.1.6-.5.2-1 .6-1.6 1-.6.4-1.3.9-2 1.4-.7.6-1.4 1.2-2.2 1.9-.7.7-1.4 1.5-2.2 2.3-.7.8-1.4 1.7-2 2.7-.6.9-1.2 2-1.7 3-.6 1.1-1 2.1-1.4 3.2-.4 1.1-.8 2.2-1.1 3.2-.3 1.1-.6 2.1-.8 3.1-.2 1-.4 2-.6 2.8-.3 1.8-.5 3.3-.6 4.4-.1 1.1-.2 1.7-.2 1.7s0-.2-.1-.4c-.1-.3-.2-.7-.3-1.2-.1-.5-.2-1.2-.3-1.9-.1-.8-.2-1.6-.2-2.6 0-.9 0-2 .1-3 .1-1.1.2-2.2.4-3.4.2-1.2.5-2.4.9-3.6.4-1.2.9-2.4 1.5-3.5.6-1.2 1.3-2.3 2-3.3.8-1 1.6-2 2.4-2.8.9-.8 1.8-1.6 2.7-2.2.9-.7 1.8-1.2 2.6-1.6.4-.2.8-.4 1.2-.6.4-.2.8-.3 1.2-.4.7-.2 1.4-.4 1.9-.5.5-.1 1-.2 1.2-.2C73.2 49.9 73.3 49.8 73.3 49.8z"></path>
  <path fill="#010101" d="M80.7 51.4c0 0 1.1.2 3.2.5 1 .2 2.3.4 3.7.8.4.1.7.2 1.1.3.4.1.7.2 1.1.4.7.3 1.6.6 2.4 1 1.7.7 3.4 1.7 5.1 2.9 1.7 1.2 3.3 2.6 4.9 4.3 1.5 1.6 2.9 3.5 4.1 5.5 1.2 2 2.2 4.2 2.9 6.5.7 2.3 1.2 4.6 1.4 7 .2 2.3.2 4.6-.1 6.8-.3 2.2-.7 4.3-1.3 6.2-.6 1.9-1.3 3.7-2.1 5.3-1.6 3.2-3.4 5.5-4.9 6.9-.7.7-1.4 1.2-1.8 1.5-.5.3-.7.5-.7.5s.2-.2.7-.5c.4-.3 1-.8 1.8-1.6 1.4-1.4 3.2-3.8 4.6-7 .7-1.6 1.4-3.3 1.9-5.3.5-1.9.9-4 1-6.1.2-2.1.1-4.4-.2-6.6-.3-2.2-.8-4.5-1.6-6.6-.8-2.2-1.8-4.2-3-6.1-1.2-1.9-2.6-3.6-4.1-5.1-1.5-1.5-3.1-2.8-4.7-3.8-1.6-1-3.2-1.9-4.8-2.5-.8-.3-1.5-.6-2.2-.8-.4-.1-.8-.2-1.1-.3-.3-.1-.7-.2-1-.2-1.3-.3-2.5-.5-3.5-.6-2-.3-3.1-.4-3.1-.4L80.7 51.4zM75.4 54.8c0 0-.1.1-.4.2-.3.1-.7.3-1.2.6-.5.2-1 .6-1.7.9C71.5 57 70.8 57.4 70 58c-.7.6-1.5 1.2-2.3 2-.8.7-1.6 1.6-2.3 2.5-.8.9-1.5 1.9-2.1 3-.6 1.1-1.2 2.2-1.7 3.3-.5 1.2-.9 2.4-1.3 3.6-.3 1.2-.6 2.4-.7 3.6-.1 1.2-.2 2.4-.2 3.5 0 1.1.1 2.2.1 3.1.1 1 .3 1.8.4 2.6.2.8.3 1.4.5 2 .1.6.3 1 .4 1.3.1.3.1.4.1.4s-.1-.2-.2-.4c-.1-.3-.3-.7-.5-1.2-.2-.5-.4-1.2-.6-2-.2-.8-.4-1.7-.6-2.6-.2-1-.3-2-.4-3.2-.1-1.1-.1-2.3 0-3.6.1-1.2.2-2.5.5-3.8.3-1.3.6-2.6 1.1-3.8.5-1.3 1-2.5 1.6-3.7.6-1.2 1.3-2.3 2-3.3.7-1 1.5-2 2.3-2.8.8-.9 1.6-1.6 2.4-2.3.8-.7 1.5-1.2 2.2-1.7.7-.5 1.3-.9 1.8-1.2.5-.3.9-.5 1.2-.7.3-.1.4-.2.4-.2L75.4 54.8zM102.5 10.7c0 0 0-.1-.2 0-.2.1-.5.4-.7.9-.2.5-.3 1.2-.1 1.9.1.7.5 1.5 1.1 2.3.5.8 1.3 1.7 1.9 2.7.6 1 1.2 2.1 1.7 3.3 1 2.4 1.9 4.8 2.9 7.3.5 1.2 1 2.5 1.5 3.7.5 1.2 1 2.4 1.4 3.6.4 1.2.8 2.3 1.1 3.5.3 1.1.6 2.2.8 3.1.9 3.9 1.2 6.6 1.2 6.6l-.3.1c0 0-1.5-2.3-3.1-6-.4-.9-.8-1.9-1.3-3-.4-1.1-.9-2.2-1.3-3.4-.4-1.2-.7-2.4-1.1-3.7-.4-1.3-.7-2.6-1.1-3.8-.8-2.6-1.5-5.2-2.2-7.5-.4-1.2-.8-2.3-1.3-3.3-.5-1-1.1-1.9-1.6-2.8-.5-.9-.9-1.9-.9-2.7-.1-.9.1-1.7.4-2.2.3-.5.7-.9 1.1-1 .2-.1.4 0 .5.1.1.1.1.1.1.1L102.5 10.7zM27.5 65.6c0 0-.2.1-.4.2-.3.2-.7.4-1.1.7-1 .6-2.3 1.6-3.7 2.9-1.4 1.4-2.9 3.2-4.3 5.3-1.4 2.1-2.6 4.6-3.6 7.1-1 2.5-1.9 5.2-2.8 7.6-.8 2.5-1.5 4.8-1.8 6.8-.2 1-.3 2-.4 2.8-.1.8-.1 1.6-.1 2.2 0 .6 0 1.1 0 1.4 0 .3 0 .5 0 .5s0-.2-.1-.5c0-.3-.1-.8-.1-1.4 0-.6-.1-1.3 0-2.2 0-.8.1-1.8.2-2.8.2-2.1.7-4.5 1.4-7 .7-2.5 1.4-5.2 2.3-7.9.4-1.3.9-2.6 1.5-3.9.5-1.3 1.1-2.5 1.8-3.7 1.3-2.4 2.8-4.4 4.2-6 1.5-1.6 2.9-2.8 3.9-3.5.5-.4 1-.7 1.3-.8.3-.2.4-.3.4-.3L27.5 65.6zM35.1 59.9c0 0 0 .6 0 1.6 0 .5 0 1.1 0 1.9 0 .7 0 1.5-.1 2.4 0 .9-.1 1.8-.2 2.8-.1 1-.2 2.1-.4 3.2-.2 1.1-.3 2.2-.6 3.3-.2 1.1-.5 2.3-.8 3.4-.3 1.1-.6 2.3-.9 3.4-.3 1.1-.7 2.2-1 3.2-.4 1-.7 2-1.1 2.9-.4.9-.7 1.8-1.1 2.6-.4.8-.7 1.5-1 2.1-.3.6-.6 1.2-.8 1.6-.5.9-.8 1.4-.8 1.4s.2-.5.6-1.5c.2-.5.4-1 .7-1.7.3-.7.6-1.4.8-2.2.3-.8.6-1.7.9-2.6.3-.9.6-2 .9-3 .3-1 .6-2.1.8-3.2.3-1.1.4-2.2.7-3.4.2-1.1.4-2.3.5-3.4.1-1.1.2-2.2.3-3.3.1-1.1.1-2.1.1-3.1 0-1 0-1.9 0-2.8 0-.9 0-1.6-.1-2.3 0-.7-.1-1.3-.1-1.8-.1-1-.1-1.6-.1-1.6L35.1 59.9z"></path>
  <path fill="#010101" d="M37.6,63.7c0,0,0,0.5,0,1.2c0,0.8,0,2,0,3.4c0,0.7-0.1,1.4-0.1,2.2c-0.1,0.8-0.2,1.6-0.3,2.5    c-0.2,1.7-0.6,3.5-1,5.3c-0.4,1.8-1,3.5-1.5,5.1c-0.3,0.8-0.6,1.6-0.9,2.3c-0.3,0.7-0.6,1.4-0.9,2c-0.6,1.2-1.1,2.2-1.5,2.9    c-0.4,0.7-0.6,1.1-0.6,1.1s0.2-0.4,0.5-1.1c0.3-0.7,0.7-1.8,1.2-3c0.2-0.6,0.4-1.3,0.7-2.1c0.2-0.7,0.4-1.5,0.6-2.3    c0.4-1.6,0.7-3.4,1-5.1c0.2-1.8,0.4-3.5,0.5-5.2c0-0.8,0-1.6,0-2.4c0-0.8,0-1.5-0.1-2.1c-0.1-1.3-0.2-2.4-0.3-3.2    c-0.1-0.8-0.2-1.2-0.2-1.2L37.6,63.7z"></path>
  <path fill="#010101" d="M40.6,66.7c0,0,0,0.3,0.1,1c0,0.6,0.1,1.6,0.1,2.6c0,0.5,0,1.1-0.1,1.7c0,0.6-0.1,1.3-0.2,1.9    c-0.1,1.3-0.4,2.7-0.7,4.1c-0.3,1.4-0.7,2.7-1.1,4c-0.2,0.6-0.4,1.2-0.7,1.8c-0.2,0.6-0.4,1.1-0.7,1.6c-0.4,1-0.8,1.7-1.1,2.3    c-0.3,0.5-0.5,0.8-0.5,0.8s0.1-0.3,0.3-0.9c0.2-0.6,0.5-1.4,0.8-2.4c0.2-0.5,0.3-1,0.4-1.6c0.2-0.6,0.3-1.2,0.4-1.8    c0.2-1.3,0.4-2.6,0.6-4c0.1-1.4,0.1-2.7,0.1-4c0-0.6,0-1.2-0.1-1.8c0-0.6-0.1-1.1-0.2-1.6c-0.1-1-0.3-1.8-0.4-2.4    c-0.1-0.6-0.2-0.9-0.2-0.9L40.6,66.7z"></path>
  <path fill="#010101" d="M43.6 69.3c0 0 0 .3 0 .7 0 .4 0 1.2 0 1.9 0 1.6-.3 3.6-.6 5.6-.4 2-.9 4-1.3 5.4-.4 1.5-.7 2.4-.7 2.4s.1-1 .2-2.5c.1-1.5.3-3.5.3-5.5 0-2-.1-3.9-.3-5.4-.1-.7-.2-1.2-.3-1.7-.1-.4-.2-.7-.2-.7L43.6 69.3zM46.7 71.4c0 0 0 .2 0 .5 0 .4 0 .9-.1 1.5-.1 1.2-.3 2.8-.7 4.3-.3 1.5-.8 3-1.1 4.1-.3 1.1-.5 1.8-.5 1.8s0-.8.1-1.9c0-1.1.1-2.7.1-4.2 0-1.5-.1-3-.3-4 0-.3-.1-.5-.1-.7 0-.2-.1-.4-.1-.5-.1-.3-.1-.5-.1-.5L46.7 71.4zM71.3 86.2c0 0-.1.4-.2.9-.1.5-.2 1.3-.3 2-.2 1.5-.4 3-.4 3s-.6-1.4-1.1-2.9c-.2-.7-.5-1.5-.6-2-.2-.6-.3-.9-.3-.9L71.3 86.2zM74.2 85.7c0 0-.2 1.6-.4 3.1-.1.8-.2 1.6-.3 2.1-.1.6.1.9.1.9s-.3-.3-.5-.9c-.2-.6-.5-1.3-.7-2.1-.5-1.5-1-3-1-3L74.2 85.7zM77.3 85.8c0 0-.1.3-.2.7-.1.4-.2 1-.3 1.6-.2 1.1-.4 2.3-.4 2.3s-.6-1-1.1-2.1c-.3-.5-.5-1.1-.7-1.5-.2-.4-.3-.7-.3-.7L77.3 85.8z"></path>
  <path fill="#010101" d="M79.8,85c0,0,0,0.3-0.1,0.9c0,0.5-0.1,1.2-0.1,1.9c0,1.4,0.1,2.8,0.1,2.8s-0.8-1.2-1.5-2.4    c-0.3-0.6-0.7-1.3-0.9-1.8c-0.2-0.5-0.4-0.8-0.4-0.8L79.8,85z"></path>
  <polygon fill="#010101" points="82.8 84.7 81.7 89.8 79.9 84.9"></polygon>
  <path fill="#010101" d="M87.6,84.4c0,0-0.1,0.3-0.1,0.8c-0.1,0.5-0.2,1.2-0.2,1.8c-0.1,1.4-0.1,2.7-0.1,2.7s-0.7-1.2-1.3-2.5    c-0.3-0.6-0.6-1.3-0.8-1.8c-0.2-0.5-0.3-0.8-0.3-0.8L87.6,84.4z"></path>
  <polygon fill="#010101" points="92.8 83.2 91.8 88.2 90 83.5"></polygon>
  <polygon fill="#010101" points="71.6 76.8 70.4 82.6 68.7 76.9"></polygon>
  <path fill="#010101" d="M74.3 76.1c0 0 0 .4-.1.9-.1.5-.2 1.3-.3 1.9-.3 1.4-.7 2.7-.7 2.7s-.3-1.4-.7-2.6c-.2-.6-.5-1.2-.7-1.7-.2-.4-.4-.7-.4-.7L74.3 76.1zM78.1 75.9c0 0 0 .4-.1 1.1-.1.6-.2 1.5-.3 2.3-.3 1.7-.7 3.3-.7 3.3s-.3-1.6-.7-3.2c-.2-.8-.4-1.6-.6-2.1-.2-.6-.3-1-.3-1L78.1 75.9z"></path>
  <polygon fill="#010101" points="80.9 75.8 80.1 79.6 78 76.3"></polygon>
  <polygon fill="#010101" points="85.7 74.9 85.1 79.5 82.9 75.5"></polygon>
  <polygon fill="#010101" points="91 74.5 90 79.2 88.1 74.7"></polygon>
  <path fill="#010101" d="M69.4 66c0 0 0 .1 0 .2 0 0 0 .1 0 .1l0 .1 0 0 0 0 0 .1 0 0 0 0 0 0c0 .1 0 .3 0 .5-.1.7-.3 1.3-.4 2-.4 1.3-.7 2.6-.7 2.6s-.4-1.3-.7-2.6c-.2-.7-.3-1.4-.5-1.7 0-.1-.1-.1-.1-.2l0 0 0 0 0 0c0-.1 0 .1 0 .1l0 0 0 0 0 0 0-.1c0 0 0-.1-.1-.1-.1-.1-.1-.2-.1-.2L69.4 66zM72.6 65.4c0 0 0 .3 0 .8 0 .5-.1 1.1-.2 1.8-.2 1.3-.6 2.4-.6 2.4s-.3-1.2-.9-2.2c-.3-.5-.5-1-.8-1.4-.2-.4-.4-.6-.4-.6L72.6 65.4zM75.4 65.1c0 0 0 .3 0 .7 0 .4 0 .9-.1 1.5-.1 1-.4 2-.4 2s-.4-.9-1-1.7c-.3-.4-.6-.7-.8-1-.1-.1-.2-.2-.3-.3-.1-.1-.1-.1-.1-.1L75.4 65.1zM78.4 65c0 0-.1.3-.1.6-.1.4-.2.9-.2 1.4-.1 1-.2 2.1-.2 2.1s-.7-.8-1.2-1.8c-.3-.5-.6-1-.8-1.4-.2-.4-.3-.6-.3-.6L78.4 65zM80.5 65.3C80.5 65.3 80.5 65.4 80.5 65.3c-.2-.4-.2-.9-.1-1.3.1-.4.4-.6.7-.8.3-.1.7-.3 1.4 0 0 0 0 0 0 0 .1 0 .1.1.2.1.1.1.1.1.2.2.1.1.2.3.2.4.1.2.1.3.1.4 0 .1 0 .2 0 .3 0 .5 0 1.1 0 1.7 0 1.2 0 2.4 0 2.4s-.7-1-1.4-2c-.3-.5-.7-1-.9-1.4-.1-.1-.1-.2-.2-.3 0-.1 0 0 0 .2 0 .1.1.2.2.3 0 .1.1.1.2.1.1 0 .1.1.2.1l0 0c.7.3 1 .1 1.2 0 .2-.1.4-.3.6-.7.1-.4.1-.7-.1-1.1 0-.1 0 0 0 0L80.5 65.3zM89.1 63.6c0 0-.1.2-.2.6-.1.4-.2.8-.3 1.3-.2 1-.2 2-.2 2s-.7-.8-1.3-1.7c-.3-.5-.5-1-.7-1.3-.2-.4-.3-.6-.3-.6L89.1 63.6zM83.6 109.3c0 0 .2-.2.4-.4.2-.2.5-.6.8-1.1.7-1 1.3-2.6 1.7-4.3.4-1.7.8-3.5 1.1-4.8.3-1.3.5-2.2.5-2.2s0 .9 0 2.2c0 1.3 0 3.1-.1 4.9-.1 1.8-.4 3.7-1 5.1-.2.7-.6 1.3-.8 1.7-.2.3-.3.5-.3.5L83.6 109.3z"></path>
</svg>
