<svg xmlns="http://www.w3.org/2000/svg" enable-background="new 0 0 128 128" viewBox="0 0 128 128" id="harp">
  <path fill="#010101" d="M44.6,10.5c0,0-0.1-0.1-0.2-0.5c-0.1-0.4,0.1-1,0.5-1.6c0.4-0.6,1.1-1.3,1.4-2.2C46.7,5.2,46,4,45,3.3    c-1.1-0.8-2.6-1-4.1-1c-1.6,0.1-3.4,0.3-5.2,0.7c-1.8,0.4-3.8,1.1-5.3,2.3c-0.8,0.6-1.3,1.4-1.4,2.3c-0.1,0.9,0.2,1.8,0.8,2.7    c0.6,0.9,1.3,1.8,2.1,2.9c0.4,0.5,0.7,1.1,1,1.7c0.3,0.6,0.5,1.3,0.7,1.9c0.8,2.7,0.6,5.4,0.6,8.1C34,30.3,33.9,36,33.8,41.8    c-0.1,5.9-0.3,11.9-0.4,18.1c-0.2,6.2-0.3,12.4-0.5,18.7c-0.2,6.3-0.4,12.5-0.6,18.7c0,1.5-0.1,3.1-0.1,4.6c0,0.8-0.1,1.5-0.1,2.3    c0,0.8-0.1,1.6-0.2,2.4c-0.2,1.6-0.6,3.2-1.4,4.7c-0.7,1.5-2,2.9-3.4,3.8c-1.5,0.9-3.1,1.2-4.4,1.6c-0.6,0.2-1.2,0.4-1.7,0.7    c-0.2,0.1-0.5,0.3-0.6,0.4c-0.1,0.1-0.3,0.3-0.3,0.3c0,0-0.1,0.1-0.1,0.2c-0.4,0.7-0.2,1.9,0.5,2.7c0.6,0.9,1.7,1.5,2.8,1.9    c2.3,0.9,4.9,1.1,7.4,1.3c2.5,0.2,4.9,0.4,7.3,0.5c4.7,0.2,9,0.1,12.8,0c1.9-0.1,3.7-0.1,5.3-0.2c1.6-0.1,3.1-0.2,4.4-0.6    c1.3-0.3,2.4-0.9,3-1.7c0.6-0.8,0.8-1.7,0.7-2.4c-0.1-0.7-0.5-1.2-0.8-1.4c-0.3-0.2-0.5-0.3-0.5-0.3c0,0,0.2,0.1,0.5,0.3    c0.3,0.2,0.7,0.7,0.9,1.4c0.2,0.7,0,1.7-0.6,2.7c-0.6,0.9-1.8,1.6-3.1,2c-1.3,0.4-2.9,0.7-4.5,0.8c-1.6,0.2-3.4,0.4-5.3,0.5    c-3.8,0.3-8.1,0.6-12.9,0.6c-2.4,0-4.8-0.1-7.4-0.2c-2.5-0.2-5.2-0.3-8-1.2c-1.4-0.5-2.8-1.2-3.9-2.6c-0.5-0.7-0.9-1.4-1.1-2.3    c-0.2-0.9-0.2-1.9,0.2-2.8c0.1-0.4,0.6-1,0.8-1.2c0.4-0.4,0.7-0.6,1.1-0.9c0.8-0.5,1.5-0.7,2.2-1c0.7-0.2,1.4-0.4,2.1-0.6    c0.3-0.1,0.6-0.2,0.9-0.4c0.2-0.1,0.5-0.3,0.8-0.4c2.1-1.3,3.1-3.9,3.5-6.7c0.1-0.7,0.1-1.4,0.2-2.1c0-0.8,0-1.5,0.1-2.3    c0-1.5,0.1-3.1,0.1-4.6c0.2-6.2,0.3-12.4,0.5-18.7c0.2-6.3,0.4-12.5,0.6-18.7c0.2-6.2,0.4-12.2,0.6-18.1    c0.2-5.9,0.5-11.5,0.7-16.9c0.1-2.7,0.3-5.2-0.3-7.5c-0.1-0.6-0.3-1.1-0.5-1.6c-0.2-0.5-0.5-1-0.8-1.5c-0.6-1-1.4-2-2-3.1    c-0.3-0.6-0.6-1.1-0.8-1.8c-0.1-0.3-0.1-0.6-0.2-1c0-0.2,0-0.4,0-0.5l0.1-0.5c0.3-1.3,1.1-2.5,2.1-3.1c1.9-1.4,4-1.9,5.9-2.2    c1.9-0.3,3.7-0.5,5.4-0.5c1.7,0,3.3,0.4,4.5,1.3c0.6,0.4,1,1,1.3,1.6c0.3,0.6,0.3,1.3,0.1,1.8c-0.5,1.1-1.2,1.6-1.6,2.2    c-0.5,0.6-0.7,1.1-0.6,1.5C44.5,10.3,44.7,10.5,44.6,10.5z"></path>
  <path fill="#010101" d="M43.5,11.1c0,0,0.1-0.1,0.4-0.4c0.1-0.1,0.3-0.3,0.5-0.5c0.2-0.2,0.5-0.4,0.8-0.6c1.3-0.9,3.4-1.7,6.3-1.9    c1.4-0.1,3.1,0,4.8,0.4c1.7,0.4,3.5,1.1,5.2,2.2c3.5,2.1,6.5,5.7,9.1,9.8c1.3,2,2.5,4.2,4,6.2c0.7,1,1.5,2,2.3,2.9    c0.2,0.2,0.4,0.5,0.6,0.7c0.2,0.2,0.5,0.5,0.7,0.7c0.4,0.4,0.9,0.8,1.4,1.2c2,1.6,4.4,2.8,7,3.4c1.3,0.3,2.6,0.4,4,0.3    c1.4-0.1,2.8-0.4,4.2-0.7c1.4-0.3,2.9-0.7,4.5-0.9c1.6-0.2,3.1-0.3,4.7-0.1c1.6,0.2,3.2,0.8,4.4,2c1.2,1.2,1.8,2.9,1.8,4.6    c0,1.7-0.6,3.3-1.4,4.7c-0.8,1.4-1.7,2.7-2.6,4c-1.8,2.6-3.6,5.2-5.4,7.9c-1.8,2.6-3.6,5.2-5.4,7.8c-1.8,2.6-3.7,5.1-5.5,7.7    c-3.6,5.1-7.3,10.1-10.6,14.9c-1.7,2.4-3.4,4.8-5,7.2c-1.6,2.4-3.2,4.7-4.7,6.9c-1.5,2.3-3,4.5-4.3,6.6c-0.7,1.1-1.4,2.1-2,3.2    c-0.6,1.1-1.3,2.1-1.9,3.1c-1.3,2-2.4,4-3.5,5.9c-0.5,0.9-1.2,2.1-2.4,2.8c-1.2,0.7-2.5,0.6-3.4,0.6c-3.9,0-7.3-0.2-10.1-0.5    c-2.8-0.3-5-0.5-6.4-0.8c-1.5-0.2-2.3-0.4-2.3-0.4l0-0.3c0,0,0.8,0,2.3,0.1c1.5,0.1,3.7,0.2,6.4,0.1c2.8,0,6.1,0,10-0.3    c0.9-0.1,1.8-0.2,2.4-0.5c0.6-0.4,1-1.1,1.5-2.1c1-1.9,2-4,3.2-6.1c2.3-4.2,5-8.7,7.9-13.3c0.7-1.2,1.5-2.3,2.3-3.5    c0.8-1.2,1.6-2.3,2.4-3.5c1.6-2.4,3.3-4.8,5.1-7.2c3.5-4.8,7.2-9.8,11-14.7c1.9-2.5,3.8-5,5.8-7.5c2-2.5,3.9-5,5.9-7.5    c1.9-2.5,3.9-5,5.8-7.6c0.9-1.3,1.9-2.5,2.7-3.8c0.8-1.3,1.3-2.8,1.4-4.2c0-1.5-0.5-2.9-1.5-3.9c-1-1-2.5-1.5-3.9-1.6    c-3-0.3-5.8,0.6-8.7,1.5c-1.4,0.4-2.9,0.8-4.5,1c-1.5,0.2-3.1,0.2-4.6-0.1c-3-0.5-5.8-1.8-8.1-3.5c-2.4-1.7-4.2-3.9-5.7-6.1    c-1.5-2.2-2.7-4.4-4-6.4c-2.4-4.1-5-7.4-8-9.5c-0.4-0.3-0.8-0.5-1.1-0.7c-0.4-0.2-0.7-0.4-1.2-0.6c-0.8-0.4-1.5-0.7-2.3-0.9    c-1.5-0.5-3-0.7-4.3-0.7c-2.7-0.1-4.8,0.6-6.1,1.2c-0.3,0.2-0.6,0.3-0.8,0.5c-0.2,0.1-0.4,0.3-0.6,0.4c-0.3,0.2-0.5,0.4-0.5,0.4    L43.5,11.1z"></path>
  <path fill="#010101" d="M43.1,16.2c0,0-0.1,0.2-0.2,0.7c-0.1,0.5-0.3,1.2-0.4,2.1c-0.4,1.8-0.8,4.5-1,7.9c-0.2,3.4-0.2,7.6,0,12.4    c0.2,4.8,0.5,10.3,0.6,16.2c0.1,6,0.1,12.4-0.2,19.3c-0.2,6.8-0.8,14-1.3,21.4c-0.1,1.9-0.3,3.7-0.4,5.6c-0.2,1.9-0.2,3.7,0.2,5.5    c0.2,0.9,0.5,1.7,1,2.5c0.5,0.7,1.2,1.4,2,1.8c0.4,0.2,0.8,0.4,1.3,0.5c0.4,0.1,0.9,0.2,1.3,0.2c0.9,0.1,1.8,0,2.7-0.3    c1.8-0.5,3.4-1.6,4.7-3c1.3-1.4,2.3-3.1,3.4-4.7c2.1-3.3,4.2-6.7,6.3-10.1c2.1-3.4,4.3-6.7,6.4-10c2.2-3.3,4.4-6.6,6.5-9.8    c4.4-6.5,8.7-12.8,13-18.9c2.1-3.1,4.3-6,6.4-8.9c1.1-1.4,2.1-2.9,3.1-4.3c0.5-0.7,1-1.4,1.6-2.1l0.1-0.1l0-0.1    c0.1-0.1-0.1,0.1,0,0.1c0.1-0.1-0.1,0.2-0.1,0.4c0,0.1,0,0.3,0,0.4c0,0.3,0.2,0.5,0.3,0.7c0.3,0.3,0.5,0.4,0.9,0.4    c0.2,0,0.3,0,0.5-0.1c0.1-0.1,0.1,0,0,0l-0.1,0c-0.4,0.2-0.7,0.4-1.2,0.6c-1.8,0.8-3.6,1.2-5.4,1.4c-1.8,0.2-3.5,0.2-5.2-0.1    c-3.4-0.4-6.5-1.5-9.3-3c-2.7-1.5-5.1-3.3-7.1-5.2c-2.1-1.9-3.8-3.8-5.4-5.6c-1.6-1.8-3.2-3.4-4.7-4.8c-1.5-1.4-3-2.5-4.5-3.2    c-3-1.5-5.9-1.2-7.5-0.6c-0.9,0.3-1.4,0.7-1.8,1c-0.2,0.1-0.3,0.3-0.4,0.3c-0.1,0.1-0.1,0.1-0.1,0.1L49,22.6c0,0,0,0,0.1-0.1    c0.1-0.1,0.2-0.2,0.4-0.4c0.4-0.3,1-0.8,1.8-1.2c0.9-0.4,2.1-0.7,3.5-0.7c1.4-0.1,3,0.1,4.7,0.8c1.7,0.6,3.4,1.7,5,3.1    c1.6,1.4,3.3,3,5,4.7C73,32,76.8,35.9,82,38.5c2.5,1.2,5.4,2.1,8.4,2.4c1.5,0.1,3,0.1,4.6,0c0.8-0.1,1.5-0.2,2.3-0.4    c0.7-0.2,1.5-0.5,2.1-0.7c0.3-0.1,0.7-0.4,1.1-0.6l0.3-0.1c0.2-0.1,0.5-0.2,0.8-0.2c0.5,0,1,0.2,1.4,0.7c0.2,0.2,0.4,0.6,0.4,1    c0,0.2,0,0.4,0,0.6c0,0.2-0.2,0.6-0.2,0.5l-0.1,0.2l0,0.1l-0.1,0.1c-0.5,0.7-1,1.4-1.5,2.1c-1,1.4-2.1,2.8-3.1,4.3    c-2.1,2.9-4.3,5.8-6.5,8.8c-4.4,6-8.9,12.2-13.4,18.6c-4.5,6.4-9.1,12.8-13.7,19.3c-2.2,3.3-4.5,6.5-6.7,9.8    c-1.1,1.6-2.2,3.3-3.6,4.8c-1.4,1.5-3.2,2.6-5.1,3.2c-1,0.3-2,0.4-3,0.3c-0.5,0-1-0.1-1.5-0.3c-0.5-0.1-1-0.3-1.4-0.5    c-1.9-0.9-3.1-2.9-3.6-4.8c-0.5-1.9-0.5-3.9-0.5-5.8c0-1.9,0.1-3.8,0.1-5.6c0.1-7.4,0.2-14.6,0.3-21.4c0.1-6.8,0.3-13.2,0.2-19.2    c0.1-5.9-0.1-11.4-0.1-16.2c0-4.9,0.3-9.1,0.7-12.6c0.5-3.5,1.1-6.2,1.6-8c0.2-0.9,0.5-1.6,0.6-2c0.2-0.5,0.2-0.7,0.2-0.7    L43.1,16.2z"></path>
  <polygon fill="#010101" points="44.6 112.7 46 25.1 47.5 112.7"></polygon>
  <polygon fill="#010101" points="49.3 111.7 50.8 38.9 52.2 111.7"></polygon>
  <polygon fill="#010101" points="55.3 106.9 55 106 54.9 105.7 54.9 105.5 56.4 27.5 57.8 105.5 57.7 105.1 58 106"></polygon>
  <polygon fill="#010101" points="60.2 98.4 61.7 49.6 63.1 98.4"></polygon>
  <polygon fill="#010101" points="66.4 88.8 67.9 59.4 69.3 88.8"></polygon>
  <polygon fill="#010101" points="73.2 79.7 73 79 72.9 78.6 72.9 78.4 74.3 44.4 75.7 78.4 75.6 77.9 75.9 78.6"></polygon>
  <polygon fill="#010101" points="79.6 69.2 81 47.7 82.5 69.2"></polygon>
  <polygon fill="#010101" points="85.7 60.3 87.2 43.7 88.6 60.3"></polygon>
</svg>
