<svg xmlns="http://www.w3.org/2000/svg" enable-background="new 0 0 128 128" viewBox="0 0 128 128" id="headphone">
  <path fill="#010101" d="M90.5,122.7c0,0-0.4,0.4-1.3,1c-0.4,0.3-1,0.6-1.7,1c-0.7,0.3-1.6,0.7-2.6,1c-2,0.6-4.5,0.9-7.4,0.6    c-2.9-0.3-6.1-1.3-9.2-3.2c-1.5-1-3-2.1-4.4-3.5c-0.2-0.2-0.3-0.3-0.5-0.6l-0.5-0.5c-0.3-0.4-0.6-0.7-0.9-1.1    c-0.3-0.4-0.6-0.8-0.9-1.3c-0.3-0.4-0.5-0.9-0.8-1.3c-1-1.8-1.8-3.7-2.5-5.7c-0.6-2-1.1-4.1-1.4-6.3c-0.5-4.3-0.6-8.8-0.2-13.3    c0.2-2.3,0.4-4.5,0.8-6.8c0.4-2.3,0.9-4.5,1.5-6.7c0.7-2.2,1.5-4.4,2.5-6.5c1-2.1,2.2-4.1,3.6-5.9c1.4-1.8,3-3.6,4.7-5.1    c1.7-1.5,3.6-2.8,5.5-4c1.9-1.1,4-2,6-2.6c1-0.3,2.1-0.6,3.1-0.8c1-0.2,2.1-0.3,3.1-0.4c2.1-0.1,4.1-0.1,6,0.3    c0.4,0.1,0.9,0.2,1.4,0.3c0.5,0.1,1,0.2,1.4,0.4c0.9,0.3,1.8,0.6,2.6,1c3.3,1.5,5.9,3.6,7.8,5.7c1.9,2.1,3.2,4.3,4,6.2    c0.4,0.9,0.6,1.8,0.8,2.6c0.1,0.8,0.3,1.4,0.4,2c0.1,1.1,0.1,1.7,0.1,1.7l-0.3,0c0,0-0.1-0.5-0.4-1.6c-0.1-0.5-0.4-1.1-0.6-1.8    c-0.3-0.7-0.6-1.5-1.1-2.3c-0.9-1.7-2.3-3.6-4.3-5.4c-2-1.8-4.5-3.5-7.5-4.7c-0.7-0.3-1.5-0.5-2.3-0.8c-0.4-0.1-0.8-0.2-1.2-0.3    c-0.4-0.1-0.8-0.2-1.3-0.2c-1.7-0.3-3.5-0.3-5.4-0.1c-3.7,0.3-7.5,1.5-11,3.4c-1.8,0.9-3.5,2.1-5.1,3.5c-1.6,1.3-3.1,2.8-4.5,4.5    c-1.4,1.7-2.6,3.5-3.7,5.4c-1.1,1.9-2.1,3.9-2.9,6c-0.8,2.1-1.5,4.2-2,6.4c-0.5,2.2-0.8,4.4-1,6.6c-0.4,4.4-0.1,8.8,0.9,12.9    c0.9,4.1,2.5,7.8,4.5,11c0.3,0.4,0.5,0.8,0.8,1.2c0.3,0.4,0.5,0.7,0.8,1.1c0.2,0.4,0.6,0.7,0.9,1.1l0.4,0.5    c0.1,0.1,0.3,0.3,0.4,0.4c1.1,1.3,2.5,2.3,3.8,3.2c2.7,1.8,5.5,2.9,8.1,3.3c2.6,0.5,5,0.4,6.8,0.1c1-0.1,1.8-0.4,2.5-0.6    c0.7-0.3,1.3-0.5,1.8-0.7c0.9-0.5,1.4-0.8,1.4-0.8L90.5,122.7z"></path>
  <path fill="#010101" d="M85.6 122.4c0 0-.1 0-.4-.1-.3-.1-.7-.2-1.2-.4-1-.4-2.4-1.3-3.8-2.7-.7-.7-1.4-1.6-2-2.7-.6-1.1-1.2-2.3-1.6-3.7-.9-2.7-1.3-6-1.4-9.5 0-3.5.5-7.4 1.7-11.2.3-1 .7-1.9 1-2.9.4-1 .8-1.9 1.3-2.9.9-1.9 2-3.7 3.3-5.5 2.5-3.5 5.7-6.9 9.4-9.5 1.9-1.3 3.9-2.4 6.1-3.2 2.2-.8 4.6-1.2 6.9-1.2 1.2 0 2.4.2 3.7.6.6.2 1.2.5 1.7.9.1.1.2.2.4.3l.3.3c.3.2.5.5.7.7.9 1 1.4 2.2 1.8 3.4.4 1.2.6 2.3.8 3.5.1 1.1.3 2.2.4 3.4.1 1.2.1 2.3.1 3.4 0 2.3-.2 4.5-.4 6.7-.2 1.1-.3 2.2-.6 3.2-.3 1-.5 2.1-.8 3.1-.3 1-.6 2-1 3-.2.5-.4 1-.5 1.4-.2.5-.4.9-.6 1.4-1.6 3.7-3.6 7-5.8 9.7-.5.7-1.1 1.3-1.7 2-.6.6-1.1 1.2-1.7 1.8-1.1 1.1-2.3 2.1-3.4 3-2.3 1.7-4.5 2.8-6.5 3.4-2 .6-3.6.6-4.7.5-.5 0-1-.1-1.2-.2C85.8 122.4 85.6 122.4 85.6 122.4zM85.7 122.1c0 0 .1 0 .4.1.3.1.7.1 1.2.2 1 .1 2.6 0 4.5-.7 1.8-.7 3.9-2 5.8-3.9 1-.9 1.9-2 2.9-3.3.5-.6 1-1.2 1.4-1.9.5-.7.9-1.3 1.4-2 1.8-2.8 3.6-6 5-9.5.2-.4.4-.9.5-1.3.2-.5.3-.9.5-1.4.3-.9.6-1.9.9-2.8.6-1.9 1-3.9 1.4-6 .3-2.1.6-4.2.6-6.3.1-1.1 0-2.1 0-3.2 0-1.1-.2-2.2-.2-3.3-.2-2.1-.6-4.3-1.8-5.8-1.1-1.6-3.1-2.3-5.3-2.5-2.2-.2-4.4 0-6.5.7-2.1.6-4.1 1.7-6 2.9-3.7 2.5-6.5 5.9-8.6 9.6-2.1 3.6-3.5 7.5-4.5 11.1-.5 1.8-.9 3.7-1.2 5.4-.3 1.8-.5 3.5-.6 5.2-.2 3.3-.2 6.4.3 9.1.5 2.7 1.6 4.9 2.9 6.3 1.2 1.5 2.6 2.4 3.6 2.8.5.2.8.4 1.1.4C85.6 122.1 85.7 122.1 85.7 122.1zM42.3 110.3c0 0-.1 0-.4.1-.3 0-.7.1-1.2.1-1.1.1-2.7 0-4.6-.5-1-.3-2-.7-3.1-1.2-1.1-.6-2.2-1.3-3.3-2.1-2.2-1.8-4.4-4.3-6-7.3-.8-1.6-1.6-3.3-2.2-5.1-.6-1.8-1-3.7-1.3-5.7-.5-4-.2-8.2.7-12.4.4-2.1 1.1-4.2 1.8-6.3.7-2.1 1.6-4.1 2.7-6.1 1.1-2 2.4-3.9 4.2-5.4.8-.8 1.8-1.5 2.9-2 .5-.3 1.1-.5 1.7-.7.5-.2 1.1-.3 1.7-.5 2.4-.5 4.9-.2 7.1.5 2.3.8 4.4 2.1 6.1 3.6 3.5 3.2 5.8 7.4 7.3 11.4.8 2.1 1.4 4.2 1.8 6.2.2 1 .4 2.1.5 3.1.1 1 .2 2 .2 3.1.2 4-.4 7.9-1.5 11.2-1.1 3.4-2.6 6.2-4.3 8.5-1.7 2.3-3.5 4-5.1 5.2-1.6 1.2-3.1 1.8-4.1 2.2-.5.2-.9.3-1.2.3C42.4 110.3 42.3 110.3 42.3 110.3zM42.2 110c0 0 .1 0 .4-.1.3-.1.6-.2 1.1-.3 1-.4 2.4-1 3.9-2.3 1.5-1.2 3-3.1 4.3-5.4 1.3-2.3 2.4-5.2 3.1-8.4.7-3.2 1-6.7.8-10.4-.2-3.7-1-7.6-2.3-11.4-1.4-3.9-3.3-7.7-6.3-10.6-1.5-1.5-3.2-2.7-5.1-3.4-1.9-.8-4.1-1.2-6.2-1-.5.1-1 .1-1.6.3-.5.1-1 .3-1.5.5-1 .4-1.9 1-2.7 1.7-.8.7-1.6 1.5-2.3 2.3-.7.9-1.3 1.8-1.8 2.7-2.1 3.8-3.2 8.1-3.7 12.2-.2 2.1-.3 4.1-.3 6.1 0 1 .1 2 .2 2.9 0 .5.1 1 .1 1.4.1.5.1.9.2 1.4.5 3.7 1.7 7.1 2.9 10 1.4 3 3 5.6 4.8 7.5 1.8 1.9 3.9 3.2 5.8 3.8 1.8.6 3.4.7 4.4.7.5 0 .9-.1 1.2-.1C42.1 110 42.2 110 42.2 110z"></path>
  <path fill="#010101" d="M28.9 58.4c0 0-.2.1-.7.3-.4.2-1 .6-1.8 1-1.5 1-3.4 2.6-5.1 5.1-.9 1.2-1.7 2.6-2.4 4.2-.7 1.5-1.3 3.2-1.8 5-.1.5-.2.9-.3 1.4-.1.5-.2 1-.3 1.4-.2.9-.3 1.9-.4 2.9-.2 1.9-.2 3.9-.1 5.9.1 2 .4 3.9.9 5.8.5 1.9 1.1 3.7 1.8 5.4.7 1.7 1.5 3.3 2.5 4.7.9 1.4 2 2.5 3.2 3.4 2.3 1.8 4.8 2.6 6.5 3.1 1.7.5 2.7.8 2.7.8s-.3 0-.7 0c-.5 0-1.2-.1-2.1-.2-.9-.1-2-.3-3.3-.6-1.2-.3-2.7-.8-4.1-1.7-1.4-.9-2.8-2-3.9-3.5-1.2-1.5-2.2-3.1-3.1-5-.8-1.8-1.6-3.7-2.1-5.8-.5-2-.9-4.2-1.1-6.3-.1-2.1-.1-4.3.2-6.4.1-1.1.3-2.1.6-3.1.1-.5.2-1 .4-1.5.1-.5.3-1 .4-1.5 1.2-3.8 3.2-7.1 5.3-9.5 1.1-1.2 2.2-2.2 3.3-2.9 1-.8 2.1-1.3 2.9-1.6.9-.4 1.5-.6 2-.7C28.7 58.5 28.9 58.4 28.9 58.4zM47.7 91.3c0 0 .1-.3.2-.9.1-.6.2-1.4.2-2.5 0-1.1-.1-2.4-.3-3.9-.3-1.5-.7-3.1-1.2-4.9-.5-1.8-1.1-3.6-1.8-5.6-.7-1.9-1.5-4-2.9-5.8-.3-.5-.7-.9-1.1-1.3-.4-.4-.9-.8-1.2-.9-.9-.3-2 .3-2.8 1.1-1.7 1.7-2.6 4.1-3 6.5-.4 2.4-.2 4.8 0 7.2.3 2.4.7 4.8 1.1 7.1.4 2.2 1 4.3 1.8 6 .4.9.9 1.6 1.5 2.3.5.6 1.2 1.2 1.8 1.5.3.2.6.3 1 .4.3.1.7.1 1 .1.7 0 1.4-.3 2-.6.6-.3 1.1-.7 1.6-1.2.4-.5.8-1 1-1.4.5-.9.8-1.8 1-2.3C47.6 91.6 47.7 91.3 47.7 91.3zM48 91.4c0 0-.1.3-.2.9-.1.6-.4 1.4-.8 2.5-.4 1-1.1 2.3-2.3 3.5-.6.6-1.4 1.1-2.4 1.4-.5.1-1 .2-1.6.2-.5 0-1.1-.1-1.7-.3-1.1-.4-2.1-1-3-1.9-.8-.8-1.5-1.8-2.1-2.8-.6-1.1-1-2.2-1.3-3.4-.3-1.2-.6-2.4-.7-3.6-.3-2.4-.6-4.8-.7-7.4-.1-2.5.2-5.2 1-7.7.8-2.5 2.1-4.8 3.9-6.7.5-.5 1-.9 1.6-1.2.6-.3 1.4-.5 2.1-.3.8.2 1.3.6 1.8 1 .5.4 1 .8 1.5 1.2 1.8 1.7 3.2 3.8 4.1 5.9.9 2.1 1.5 4.1 1.7 6 .3 1.9.3 3.7.2 5.3-.1 1.6-.3 2.9-.4 4-.2 1.1-.3 2-.4 2.5C48.1 91.1 48 91.4 48 91.4zM113.1 87.4c0 0 0-.3-.2-.9-.1-.5-.4-1.3-.9-2.2-.5-.8-1.4-1.7-2.5-2.5-1.1-.7-2.6-1.3-4.2-1.5-1.7-.2-3.5-.1-5.3.5-1.8.5-3.8 1.5-5.6 2.8-1.8 1.3-3.6 3-4.8 5-1.1 2.1-2.1 4.4-2.8 6.7-.7 2.3-1.1 4.7-1.4 7-.3 2.3-.3 4.6-.1 6.8 0 .6.1 1.1.2 1.6.1.5.1 1 .2 1.5.2 1 .5 1.9.8 2.8.2.4.4.8.6 1.2.2.3.5.7.7 1 .5.6 1.2 1.1 1.8 1.4.3.2.7.3 1 .4.1 0 .4.1.5.1.2 0 .4 0 .6 0 .6 0 1.3-.1 1.9-.3 1.3-.5 2.3-1.2 3.2-1.8.8-.6 1.5-1.2 1.9-1.6.4-.4.7-.6.7-.6l.2.2c0 0-.2.3-.5.8-.3.5-.8 1.2-1.5 2.1-.7.8-1.7 1.9-3.2 2.7-.8.4-1.6.7-2.7.8-.2 0-.4 0-.7 0-.4 0-.6 0-.8-.1-.5-.1-1.1-.2-1.6-.4-1-.4-2-1-2.9-1.8-.4-.4-.8-.9-1.2-1.4-.3-.5-.7-1-.9-1.5-.5-1.1-.9-2.3-1.1-3.4-.1-.6-.2-1.2-.3-1.8-.1-.6-.1-1.2-.1-1.8-.1-2.4.1-4.9.5-7.4.4-2.5 1.3-4.9 2.4-7.2 1.1-2.3 2.3-4.4 3.5-6.6 1.4-2.1 2.9-4 4.5-5.7 1.7-1.7 3.6-3.2 5.8-4 2.2-.8 4.5-.8 6.5-.5 2 .4 3.7 1.2 5 2.4 1.3 1.1 2 2.4 2.4 3.5.4 1.1.4 2 .4 2.6 0 .3-.1.5-.1.7 0 .1 0 .2 0 .2L113.1 87.4z"></path>
  <path fill="#010101" d="M23.7,61.2c0,0-0.1-0.6-0.2-1.7c-0.1-1.1-0.4-2.8-0.5-4.9c-0.1-2.1-0.1-4.7,0-7.7c0.2-3,0.6-6.3,1.5-9.9    c0.9-3.6,2.1-7.4,4.1-11.2c1.9-3.8,4.4-7.6,7.6-11c1.6-1.7,3.3-3.3,5.2-4.8c1.9-1.5,3.9-2.9,6.1-4c2.2-1.2,4.4-2.1,6.9-2.9    l1.7-0.5c0.6-0.2,1.2-0.3,1.9-0.4c0.6-0.2,1.2-0.2,1.9-0.3c0.6-0.1,1.2-0.2,1.9-0.2c5-0.5,10.1,0.1,14.8,1.6    c4.7,1.5,9,4.1,12.4,7.4c0.9,0.8,1.6,1.7,2.4,2.5c0.4,0.5,0.7,0.9,1.1,1.4c0.3,0.4,0.6,0.9,1,1.3c0.7,0.9,1.2,1.9,1.8,2.8    c0.5,1,1.1,1.9,1.6,2.8c1.9,3.8,3.1,7.7,4,11.2c0.8,3.6,1.3,6.9,1.5,9.9c0.2,3,0.3,5.5,0.3,7.7c0,2.1-0.1,3.8-0.2,4.9    c-0.1,1.1-0.1,1.7-0.1,1.7s0-0.6,0-1.7c0-1.1-0.1-2.8-0.2-4.9c-0.1-2.1-0.4-4.7-0.8-7.6c-0.4-2.9-1.1-6.1-2-9.6    c-1-3.4-2.3-7.1-4.3-10.7c-0.5-0.9-1-1.8-1.6-2.6c-0.3-0.4-0.6-0.8-0.9-1.3c-0.3-0.4-0.6-0.9-0.9-1.3c-0.3-0.4-0.7-0.9-1-1.3    c-0.3-0.4-0.7-0.8-1-1.2c-0.7-0.8-1.5-1.6-2.3-2.3c-1.6-1.4-3.4-2.8-5.3-3.9c-2-1.1-4-2-6.2-2.7C71.3,4.6,66.6,4,62,4.5    c-0.6,0-1.2,0.1-1.7,0.2c-0.6,0.1-1.2,0.2-1.7,0.3c-0.6,0.1-1.1,0.2-1.7,0.4l-1.7,0.5c-2.1,0.7-4.3,1.6-6.4,2.6    c-4.1,2.1-7.7,4.9-10.8,8.1c-3.1,3.2-5.6,6.6-7.6,10.2c-2,3.6-3.3,7.2-4.4,10.6c-2,6.9-2.5,12.9-2.5,17.2c0,2.1,0,3.8,0.1,4.9    C23.6,60.6,23.7,61.2,23.7,61.2z"></path>
  <path fill="#010101" d="M34.5 55.7c0 0-.1-.4-.2-1.2-.1-.8-.3-1.9-.4-3.4-.1-1.5-.2-3.3 0-5.3.1-2.1.4-4.4 1.1-6.9.3-1.2.7-2.5 1.2-3.8.3-.6.5-1.3.8-1.9.2-.3.3-.7.5-1 .2-.3.3-.6.5-.9 1.4-2.6 3.3-5.1 5.6-7.4 2.3-2.3 5.1-4.3 8.2-5.8 1.6-.7 3.2-1.3 4.9-1.8l1.2-.3 1.3-.3c.9-.1 1.7-.3 2.6-.4 1.7-.2 3.5-.1 5.2 0 1.7.2 3.5.5 5.1 1 3.3.9 6.4 2.6 8.9 4.7 1.2 1.1 2.4 2.2 3.3 3.5.2.3.5.6.7.9.2.3.4.7.7 1 .5.6.8 1.3 1.2 1.9 1.5 2.6 2.4 5.2 3 7.7.6 2.5.9 4.8 1.1 6.8.2 2 .2 3.8.1 5.3 0 1.5-.1 2.6-.2 3.4-.1.8-.1 1.2-.1 1.2s0-.4-.1-1.2c0-.8-.1-1.9-.2-3.4-.1-1.4-.3-3.2-.7-5.2-.3-2-.8-4.2-1.6-6.5-.8-2.3-1.8-4.8-3.3-7.1-.4-.6-.7-1.2-1.2-1.7-.2-.3-.4-.6-.6-.8L82.6 26c-.9-1.1-2-2.1-3.1-3.1-1.1-.9-2.4-1.7-3.8-2.4-1.4-.7-2.8-1.2-4.3-1.6-3-.8-6.2-1.1-9.3-.8-.8 0-1.6.2-2.3.3l-1.1.2L57.4 19c-1.5.4-3 1-4.4 1.6-2.8 1.3-5.4 3.1-7.6 5.1-2.2 2-4.1 4.3-5.5 6.6-1.5 2.4-2.5 4.8-3.3 7.1-1.6 4.6-2 8.8-2.1 11.7 0 1.4 0 2.6 0 3.4C34.5 55.3 34.5 55.7 34.5 55.7zM107.5 64c0 0-.2-.1-.5-.2-.3-.1-.7-.3-1.2-.5-1.1-.4-2.7-.9-4.6-1-.5 0-1 0-1.5 0l-.2 0c0 0-.1 0-.1 0l-.1 0-.4.1c-.3 0-.5.1-.8.1-1.1.2-2.3.6-3.4 1.2-1.2.5-2.3 1.2-3.4 2-1.1.8-2.3 1.6-3.3 2.5C85.7 70 83.7 72 81.9 74c-.9 1-1.7 2-2.4 3-.7 1-1.4 1.9-1.9 2.8-.6.9-1.1 1.7-1.5 2.5-.4.8-.8 1.4-1 2-.5 1.1-.8 1.8-.8 1.8s.2-.7.7-1.8c.2-.6.5-1.3.9-2.1.4-.8.8-1.7 1.3-2.6.5-.9 1.1-1.9 1.8-3 .7-1 1.4-2.1 2.2-3.2 1.6-2.1 3.6-4.3 5.7-6.2 1.1-1 2.2-1.9 3.3-2.8 1.1-.9 2.3-1.7 3.5-2.3 1.2-.7 2.5-1.2 3.8-1.6.3-.1.7-.2 1-.2l.4-.1.1 0 .1 0 .2 0c.6-.1 1.2-.1 1.8-.2 2.3-.1 4.2.4 5.5.8.6.2 1.1.4 1.5.5.3.1.5.2.5.2L107.5 64z"></path>
  <path fill="#010101" d="M100.9 57.5c0 0-.6 0-1.7-.1-1.1 0-2.6-.1-4.3.1-.9.1-1.8.3-2.7.6-.9.3-1.9.7-2.9 1.3-1 .5-2 1.2-3 1.8-1 .7-2 1.3-3 2.1-2 1.4-3.9 3-5.5 4.6-.8.8-1.6 1.6-2.3 2.4-.3.4-.7.8-1 1.2-.3.4-.6.8-.9 1.2-.5.8-1 1.5-1.4 2.1-.4.6-.7 1.2-.9 1.7-.5 1-.7 1.5-.7 1.5s.2-.6.6-1.6c.2-.5.5-1.1.8-1.8.3-.7.8-1.4 1.2-2.2.3-.4.5-.8.8-1.2.3-.4.6-.8.9-1.3.6-.9 1.4-1.7 2.1-2.6 1.6-1.8 3.4-3.5 5.3-5.1 1-.8 1.9-1.6 2.9-2.3 1-.7 2-1.5 3-2.1 1-.7 2.1-1.2 3.1-1.7 1.1-.4 2.1-.7 3.1-.9 1.9-.3 3.6-.4 4.7-.4 1.1 0 1.7 0 1.7 0L100.9 57.5zM86.2 54c0 0-.4.2-1.1.4-.4.1-.7.3-1.2.5-.4.2-.9.4-1.5.7-.5.3-1.1.6-1.7.9-.6.3-1.2.8-1.9 1.2-1.3.9-2.6 1.8-3.8 2.9-1.2 1.1-2.4 2.3-3.4 3.4-.5.6-1 1.2-1.4 1.7-.4.6-.8 1.1-1.2 1.6-.4.5-.7 1-.9 1.4-.3.4-.5.8-.7 1.1-.4.6-.6 1-.6 1s.2-.4.5-1.1c.1-.3.3-.7.6-1.2.2-.5.5-1 .8-1.5.3-.6.6-1.1 1-1.8.4-.6.8-1.2 1.3-1.9.9-1.3 2-2.6 3.1-3.9 1.2-1.2 2.4-2.4 3.6-3.5.6-.5 1.2-1 1.8-1.4.6-.4 1.2-.8 1.7-1.2.5-.4 1.1-.7 1.5-.9.5-.3.9-.5 1.2-.7.6-.3 1-.5 1-.5L86.2 54zM28.1 58.5c0 0-.1.1-.2.3-.2.2-.4.4-.7.7-.3.3-.6.7-1 1.2-.4.5-.7 1-1.1 1.6-.8 1.2-1.6 2.6-2.3 4.2-.4.8-.7 1.6-1 2.5-.3.8-.6 1.8-.8 2.6-.3 1-.4 1.8-.6 2.7-.2.9-.3 1.8-.5 2.7-.3 1.7-.4 3.4-.6 4.8-.2 1.4-.3 2.7-.4 3.5-.1.9-.2 1.3-.2 1.3s-.7-1.9-1-4.8c-.2-1.5-.3-3.2-.3-5.1 0-.9.1-1.9.2-2.9.1-1 .4-2 .6-2.9.3-1 .6-2 1-2.9.4-.9.8-1.8 1.3-2.6.5-.8 1-1.6 1.6-2.3.5-.7 1.1-1.3 1.7-1.8.6-.5 1.1-.9 1.6-1.3.5-.3 1-.6 1.4-.8.4-.2.7-.3.9-.4C28 58.5 28.1 58.5 28.1 58.5zM34.9 26.4c0 0 .1-.2.4-.6.2-.4.6-1 1.1-1.8 1-1.5 2.4-3.6 4.5-5.8 1-1.1 2.2-2.3 3.5-3.5 1.3-1.2 2.8-2.3 4.4-3.3.4-.3.8-.5 1.3-.8.4-.2.8-.5 1.3-.7.9-.5 1.8-.9 2.7-1.3 1.9-.8 3.8-1.5 5.9-2 2-.5 4.1-.8 6.2-.8 2-.1 4.1.1 6 .4 3.9.7 7.3 2.1 9.9 3.8 1.3.8 2.4 1.7 3.3 2.6.9.8 1.6 1.7 2.2 2.4.5.7.9 1.3 1.2 1.7.3.4.4.6.4.6s-.2-.2-.5-.5c-.3-.3-.8-.8-1.5-1.4-1.3-1.1-3.3-2.6-5.9-3.9-1.3-.6-2.8-1.2-4.4-1.7-1.6-.5-3.3-.8-5-1-1.8-.2-3.6-.2-5.5-.1-1.9.1-3.8.4-5.6.9-1.9.4-3.7 1-5.5 1.7-.9.4-1.7.8-2.6 1.1-.4.2-.8.4-1.3.6-.4.2-.8.4-1.2.7-1.6.9-3.1 1.9-4.4 2.9-1.3 1-2.6 2-3.7 3-2.2 1.9-4 3.7-5.2 5-.6.6-1.1 1.1-1.4 1.5C35.1 26.2 34.9 26.4 34.9 26.4z"></path>
  <path fill="#010101" d="M66.4 10.7c0 0 .2 0 .6-.1.4 0 1-.1 1.7-.1.8 0 1.7 0 2.7.2 1.1.1 2.2.4 3.5.7 1.3.4 2.6.9 4 1.5 1.4.7 2.8 1.4 4.1 2.4.7.5 1.3 1 2 1.5.6.5 1.3 1.1 1.9 1.7 1.2 1.2 2.4 2.6 3.4 4 1 1.4 2 2.9 2.8 4.4.8 1.5 1.5 3.1 2.1 4.6.1.4.3.8.4 1.1.1.4.3.7.4 1.1.2.8.5 1.5.7 2.2.4 1.4.7 2.8.8 4.1.4 2.6.3 4.8.1 6.3-.1.7-.2 1.3-.3 1.7-.1.4-.1.6-.1.6s0-.9-.2-2.3C97 45 96.7 42.9 96 40.5c-.3-1.2-.8-2.5-1.3-3.8-.2-.7-.5-1.3-.8-2-.2-.3-.3-.7-.5-1.1-.2-.3-.3-.7-.5-1-.6-1.4-1.4-2.8-2.2-4.2-.8-1.4-1.7-2.8-2.7-4.1-1-1.3-2-2.6-3.1-3.7-.6-.6-1.1-1.1-1.7-1.7-.6-.5-1.2-1-1.7-1.5-1.2-.9-2.4-1.8-3.6-2.5-1.2-.7-2.4-1.3-3.5-1.8-1.1-.5-2.2-.9-3.2-1.2-1-.3-1.8-.5-2.6-.7C68 11 67.4 10.8 67 10.8 66.6 10.7 66.4 10.7 66.4 10.7zM96.4 104.4c0 0-.2-.1-.5-.3-.3-.2-.7-.5-1.1-1-.4-.5-.9-1.2-1.2-2.1-.4-.9-.7-2-.6-3.2 0-1.2.4-2.5 1-3.7.7-1.2 1.7-2.2 2.9-3.1l.2-.2.1-.1.1-.1c.1-.1.3-.2.4-.3.3-.2.6-.4 1-.5.6-.3 1.3-.6 2-.9 1.4-.5 3-.8 4.6-.2.2.1.4.2.6.3.1.1.2.1.3.2l.2.1c.4.3.7.6 1 .9.6.7.9 1.5 1.1 2.3.4 1.7.2 3.3-.2 4.8-.2.7-.5 1.4-.7 2-.3.7-.6 1.2-1 1.8-.8 1.1-1.7 2.2-2.8 2.8-1.1.6-2.3.8-3.2.9-.9 0-1.7 0-2.4 0-.6 0-1.2-.2-1.5-.3C96.5 104.4 96.4 104.4 96.4 104.4L96.4 104.4zM96.5 104.1c0 0 .2.1.5.2.3.1.8.1 1.4 0 .6-.1 1.3-.3 2.1-.7.8-.4 1.5-.9 2-1.6.6-.7 1.2-1.4 1.7-2.4.3-.5.5-1 .7-1.5.3-.6.5-1.1.7-1.7.4-1.1.7-2.2.5-3.3-.1-.5-.2-1.1-.4-1.6-.1-.2-.3-.5-.4-.7l-.2-.2c0 0-.1-.1-.1-.1-.1-.1-.2-.2-.3-.3-.9-.7-2.4-.8-3.6-.4-.6.2-1.2.5-1.7.9-.3.2-.5.4-.7.6-.1.1-.2.2-.3.4l-.1.1c0 0 0 .1-.1.1L98 92.1c-.8 1-1.2 2.1-1.7 3.1-.4 1-.8 1.9-1 2.9-.3.9-.4 1.8-.4 2.6 0 .8.1 1.5.4 2.1.3.5.6.9.9 1.1C96.3 104 96.5 104.1 96.5 104.1L96.5 104.1zM33.5 68.5c0 0 .1 0 .3-.1.2-.1.5-.2.9-.3.7-.2 1.8-.5 2.8-.7 2-.4 4-.3 4-.3s-1.9.7-3.5 1.7c-.8.5-1.6 1-2.2 1.5-.3.2-.5.4-.7.5C35 70.9 34.9 71 34.9 71L33.5 68.5zM32.4 71.6c0 0 .6-.1 1.4-.3.8-.2 2-.4 3.1-.6 2.3-.4 4.5-.6 4.5-.6s-2.1.9-4 2c-1 .5-1.9 1.1-2.6 1.5-.7.4-1.2.7-1.2.7L32.4 71.6zM32.1 74.9c0 0 .2-.1.5-.2.3-.1.8-.3 1.4-.4 1.2-.3 2.8-.7 4.4-1 1.6-.3 3.2-.5 4.4-.6 1.2-.1 2-.1 2-.1s-.8.2-1.9.6c-1.1.4-2.6.9-4.1 1.5C37.4 75.2 36 76 35 76.5c-.5.3-.9.5-1.2.7-.3.2-.5.3-.5.3L32.1 74.9zM31.9 79.4c0 0 .2-.1.5-.2.3-.1.8-.3 1.4-.5 1.2-.4 2.7-.9 4.3-1.2 1.6-.3 3.2-.6 4.4-.7 1.2-.1 2-.1 2-.1s-.8.2-1.9.6c-1.1.4-2.6.9-4 1.6-1.4.7-2.8 1.4-3.7 2-.5.3-.9.6-1.2.8-.3.2-.5.3-.5.3L31.9 79.4zM32.4 83.1c0 0 .9-.2 2.2-.6 1.3-.3 3.1-.8 4.9-1.1 3.6-.7 7.1-1.1 7.1-1.1s-3.4 1.1-6.7 2.5c-1.6.7-3.3 1.4-4.5 2-1.2.6-2 1-2 1L32.4 83.1zM33 87.3c0 0 .9-.3 2.4-.7 1.5-.4 3.4-.9 5.4-1.3 3.9-.8 7.9-1.2 7.9-1.2s-3.8 1.1-7.5 2.6c-1.8.7-3.6 1.5-4.9 2.2-1.3.6-2.2 1.1-2.2 1.1L33 87.3zM34.7 91c0 0 .8-.3 2.1-.6 1.2-.4 2.9-.8 4.6-1.2 3.3-.8 6.7-1.3 6.7-1.3s-3.2 1.2-6.2 2.7c-1.5.7-3 1.5-4.1 2.1-1.1.6-1.8 1-1.8 1L34.7 91zM36.5 94.9c0 0 .1-.1.4-.2.2-.1.6-.3 1-.5.8-.4 2-.8 3.1-1.2 1.2-.3 2.3-.6 3.2-.7.9-.1 1.5-.1 1.5-.1s-.5.2-1.3.6c-.8.4-1.8.9-2.7 1.5-.9.6-1.8 1.3-2.4 1.9-.3.3-.5.5-.7.7-.2.2-.3.3-.3.3L36.5 94.9z"></path>
  <path fill="#010101" d="M38.8,96.7c0,0,0.1,0,0.2-0.1c0.1-0.1,0.4-0.2,0.7-0.3c0.6-0.2,1.3-0.5,2.1-0.7c1.5-0.4,3-0.5,3-0.5    s-1.3,0.8-2.4,1.8c-0.5,0.5-1,1-1.3,1.4c-0.2,0.2-0.3,0.4-0.4,0.5c-0.1,0.1-0.2,0.2-0.2,0.2L38.8,96.7z"></path>
</svg>
