<svg xmlns="http://www.w3.org/2000/svg" enable-background="new 0 0 128 128" viewBox="0 0 128 128" id="piano">
  <path fill="#010101" d="M124.4,23.1l1.3-1.4l0.8-0.8L126,22c-0.9,2.2-2,4.4-3.1,6.5c-1.1,2.1-2.3,4.2-3.5,6.3    c-2.4,4.1-5.1,8.2-7.7,12.2c-2.6,4-5.3,8-7.9,12c-1.3,2-2.5,4-3.7,6.1c-1.2,2-2.4,4.1-3.6,6.2c-2.3,4.2-4.6,8.4-7,12.5    c-1.2,2.1-2.4,4.2-3.7,6.2c-1.3,2-2.5,4.1-3.9,6.1c-1.4,2-2.8,3.9-4.2,5.9c-1.5,1.9-3,3.8-4.5,5.6c-3,3.7-5.8,7.5-7.9,11.7    l-0.3,0.5l-0.5-0.2c-1.5-0.7-3.1-1.4-4.6-2.2c-1.5-0.8-3-1.6-4.4-2.4c-1.5-0.8-2.9-1.7-4.3-2.6c-1.4-0.9-2.8-1.8-4.2-2.7    c-2.8-1.8-5.6-3.7-8.4-5.6c-2.8-1.9-5.5-3.8-8.4-5.5c-5.7-3.5-11.5-6.9-17.4-10l-4.5-2.3c-0.7-0.4-1.6-0.8-2.4-1.5    c-0.1-0.1-0.2-0.2-0.3-0.3l-0.1-0.2l-0.1-0.1c-0.2-0.3-0.3-0.5-0.4-0.7c-0.2-0.5-0.4-0.9-0.5-1.3l-2.9-9.7l-0.2-0.7l0.6-0.5    c4.3-4.1,8.9-8,13.7-11.7c2.4-1.8,4.8-3.6,7.3-5.3c1.2-0.8,2.6-1.7,3.7-2.4c0.5-0.4,1-0.8,1.3-1.2c0.2-0.2,0.3-0.4,0.4-0.6    c0.1-0.2,0.2-0.5,0.3-0.8c0.1-0.3,0.2-0.8,0.4-1.3c0.2-0.5,0.5-1,0.8-1.4c0.6-0.8,1.3-1.3,2-1.7l3.6-2.6l7.3-5.2    c4.9-3.4,9.8-6.7,14.8-10c5-3.3,10-6.4,15.1-9.6l7.6-4.7l3.8-2.3l1.9-1.1l1-0.6l0.5-0.3l0.1,0c0,0,0.2-0.1,0.2-0.1l0,0l0.1-0.1    l0.3-0.1c0.7-0.2,1.4-0.1,1.9,0.1c0.5,0.2,0.8,0.5,1.2,0.8c0.6,0.6,1.1,1.1,1.6,1.6c0.5,0.5,1,0.9,1.5,1c0.4,0.2,0.9,0.1,1.6-0.2    c0.3-0.1,0.7-0.3,1.2-0.3l0.3,0c0.1,0,0.2,0,0.4,0c0.2,0,0.4,0,0.6,0c0.8,0.1,1.6,0.2,2.3,0.4c1.4,0.3,2.9,0.4,4.4,0.7    c1.5,0.3,3,0.8,4.4,1.4l4.1,1.8l8.2,3.6l-0.1,0.3l-8.4-3.1l-4.2-1.6c-1.4-0.5-2.7-1-4.2-1.1c-1.4-0.2-2.9-0.2-4.5-0.5    c-0.7-0.1-1.4-0.3-2.1-0.3c-0.7,0-1.1,0.1-1.9,0.4c-0.4,0.1-0.7,0.3-1.2,0.4c-0.4,0.1-1,0.1-1.5-0.1c-1-0.3-1.6-0.9-2.2-1.4    c-0.6-0.5-1.1-1.1-1.6-1.5c-0.2-0.2-0.5-0.4-0.7-0.4c-0.2-0.1-0.3,0-0.3-0.1l-0.3,0.1l-0.1,0.1l0,0c-0.1,0.1,0.1-0.1,0.1,0l-0.1,0    l-0.5,0.3l-0.9,0.6l-1.9,1.2l-3.8,2.4L74,19.6c-5,3.2-9.9,6.6-14.8,9.9c-4.9,3.3-9.8,6.7-14.7,10.1l-7.3,5.1l-3.6,2.6    c-0.6,0.4-1.1,0.8-1.4,1.2c-0.3,0.4-0.4,0.6-0.6,1.4c-0.1,0.4-0.2,0.8-0.4,1.3c-0.2,0.5-0.5,0.9-0.8,1.2c-0.6,0.7-1.3,1.3-2,1.8    c-1.4,0.9-2.6,1.6-3.8,2.4c-2.5,1.6-4.9,3.3-7.2,5C12.6,65.3,8.1,69,3.7,73L4,71.8l2.6,9.7c0.1,0.4,0.2,0.7,0.4,1    c0.1,0.1,0.2,0.3,0.2,0.4L7.3,83l0.1,0.1c0,0.1,0.1,0.1,0.1,0.2c0.4,0.5,1.1,0.8,1.8,1.2l4.4,2.5c5.8,3.4,11.6,6.9,17.1,10.6    c2.8,1.9,5.6,3.8,8.3,5.7c2.8,1.9,5.5,3.8,8.3,5.7c1.4,0.9,2.8,1.8,4.2,2.7c1.4,0.9,2.9,1.7,4.3,2.5c1.5,0.8,2.9,1.6,4.4,2.3    c1.5,0.7,3,1.4,4.6,2l-0.8,0.3c2-4.4,4.8-8.4,7.6-12.3c1.4-1.9,2.9-3.8,4.2-5.8c1.4-1.9,2.7-3.9,4-5.9c2.5-4,4.9-8.1,7.3-12.3    c2.3-4.2,4.7-8.3,7.1-12.5c1.2-2.1,2.4-4.2,3.7-6.2c1.3-2,2.6-4.1,3.9-6.1c2.7-4,5.5-7.9,8.3-11.8c1.4-1.9,2.8-3.9,4.1-5.9    c1.4-2,2.7-3.9,4-5.9c1.3-2,2.6-4,3.8-6.1c1.2-2,2.3-4.2,3.5-6.3l0.3,0.2l-1.4,1.3L124.4,23.1z"></path>
  <path fill="#010101" d="M3.4 70.5c0 0 .1 0 .2 0 .1 0 .2 0 .4 0 .2 0 .3 0 .5.1.7.2 1.7.6 2.6 1.2.9.6 1.8 1.3 3 2.2 1.1.8 2.4 1.8 3.8 2.8 5.6 4.1 13 9.6 20.4 15.1 3.7 2.7 7.4 5.5 10.9 8.1 3.5 2.6 6.7 5 9.5 7.1 2.7 2.1 5 4 6.5 5.3 1.5 1.3 2.3 2.1 2.3 2.1s-.9-.8-2.4-2.1c-1.6-1.3-3.8-3-6.7-5-2.8-2-6.2-4.3-9.7-6.7-3.6-2.4-7.4-5-11.2-7.6-7.6-5.2-15.2-10.4-20.9-14.3-1.4-1-2.7-1.9-3.9-2.7-1.1-.8-2.2-1.5-3-2-.8-.5-1.3-.7-1.6-.7-.1 0-.2 0-.2 0 0 0-.1 0-.1 0-.1 0-.2 0-.2 0L3.4 70.5zM11.7 71.5c.6-.8 1.2-1.5 1.9-2.3.7-.7 1.3-1.5 2-2.2.7-.7 1.4-1.4 2.1-2.1.7-.7 1.4-1.4 2.1-2 1.5-1.3 3-2.6 4.5-3.8.8-.6 1.5-1.2 2.3-1.8.4-.3.8-.6 1.2-.9.5-.3 1-.7 1.8-.8.7-.1 1.5 0 2 .2.6.2 1.1.5 1.5.7.9.5 1.7 1 2.5 1.6 1.6 1.1 3.3 2.1 5 3.2.8.5 1.7 1 2.5 1.5.9.5 1.7 1 2.6 1.4 1.7.9 3.5 1.8 5.2 2.7l.5.3-.3.6c-1.1 2-2.2 3.9-3.4 5.8-1.2 1.9-2.4 3.8-3.7 5.6-1.3 1.8-2.7 3.6-4.1 5.4-.7.9-1.4 1.8-2.1 2.6-.2.2-.3.4-.6.7-.3.3-.7.7-1.4.9l-.1 0-.1 0-.1 0-.2 0c-.2 0-.4 0-.5 0-.3-.1-.6-.2-.8-.3-.4-.2-.7-.4-1-.6-1.8-1.3-3.5-2.8-5.3-4.1l-5.2-4.2c-1.7-1.4-3.5-2.8-5.2-4.1-.9-.7-1.8-1.3-2.7-1.9-.9-.6-1.9-1.2-2.8-1.8l-.1-.1L11.7 71.5zM12.1 71.6c2.1.7 4.1 1.6 6 2.6 2 1.1 3.9 2.3 5.8 3.5 1.9 1.2 3.7 2.5 5.5 3.8 1.8 1.3 3.6 2.6 5.4 4 .2.2.4.3.4.3 0 0 0 0 0 0 0 0 0 0-.1 0l-.1 0 .1 0 0 0 0 0-.1 0 0 0c-.2.1-.1.1 0 0 .1-.1.3-.4.5-.6.7-.8 1.5-1.6 2.2-2.5 1.5-1.7 2.9-3.4 4.3-5.1l4.2-5.2c1.4-1.7 2.7-3.5 4-5.3l.2.8c-1.7-1-3.4-2-5.1-3-.8-.5-1.7-.9-2.6-1.4-.9-.5-1.7-.9-2.6-1.3-1.8-.9-3.5-1.7-5.3-2.5l-2.6-1.2c-.8-.4-1.6-.6-2-.5-.2.1-.5.2-.9.4l-1.1.8-2.3 1.7-2.3 1.7-2.3 1.8C18.1 66.9 15.2 69.3 12.1 71.6z"></path>
  <path fill="#010101" d="M12.5,71.5c0,0,1.2-1,3-2.4c1.8-1.4,4.2-3.3,6.7-5c2.5-1.8,5-3.4,7-4.6c1.9-1.2,3.2-2,3.2-2    s-1.2,0.9-3,2.4c-1.8,1.4-4.1,3.4-6.3,5.4c-2.2,2-4.4,4.1-6,5.7c-1.6,1.6-2.6,2.7-2.6,2.7L12.5,71.5z"></path>
  <path fill="#010101" d="M15 72.7c0 0 .2-.2.6-.6.4-.4.9-.9 1.5-1.5 1.3-1.2 3.1-2.8 4.9-4.2 1.9-1.4 3.8-2.7 5.3-3.7 1.5-.9 2.5-1.5 2.5-1.5s-.9.7-2.2 1.8c-1.3 1.1-3 2.7-4.6 4.4-1.6 1.7-3 3.4-4.1 4.8-.5.7-.9 1.2-1.2 1.6-.3.4-.5.6-.5.6L15 72.7zM17.1 74.5c0 0 .8-.7 2-1.7 1.2-1 2.9-2.3 4.5-3.6 3.3-2.6 6.7-5.1 6.7-5.1s-2.9 3-5.7 6.1c-1.4 1.6-2.8 3.1-3.8 4.3-1 1.2-1.7 2-1.7 2L17.1 74.5zM19.9 76.5c0 0 .2-.2.5-.6.3-.4.9-1 1.5-1.7 1.3-1.3 3-3 4.9-4.6 1.9-1.5 3.9-2.9 5.4-3.8 1.5-.9 2.6-1.5 2.6-1.5s-1 .7-2.3 1.9c-1.4 1.1-3.1 2.8-4.7 4.5-1.6 1.7-3 3.6-4 5-.5.7-.9 1.3-1.2 1.8-.3.4-.4.7-.4.7L19.9 76.5zM22.9 78.3c0 0 .9-1.1 2.4-2.7 1.4-1.6 3.4-3.7 5.5-5.7 2.1-2 4.2-3.9 5.9-5.2 1.7-1.4 2.8-2.2 2.8-2.2s-1 1-2.5 2.5c-1.5 1.5-3.4 3.7-5.1 5.9-1.8 2.2-3.5 4.5-4.6 6.2-1.2 1.7-1.9 2.9-1.9 2.9L22.9 78.3zM25.7 80.4c0 0 .9-1 2.4-2.4 1.4-1.4 3.4-3.3 5.4-5.1 4-3.6 8.4-6.8 8.4-6.8s-3.8 3.8-7.3 7.8c-1.8 2-3.4 4.1-4.7 5.7-1.2 1.6-2 2.7-2 2.7L25.7 80.4zM28.6 82.4c0 0 .8-.9 2.1-2.2 1.2-1.3 2.9-3 4.6-4.6 3.4-3.3 7-6.4 7-6.4s-3.1 3.6-5.9 7.4c-1.4 1.9-2.8 3.8-3.8 5.2-1 1.4-1.7 2.4-1.7 2.4L28.6 82.4z"></path>
  <polygon fill="#010101" points="31 84.7 44.5 72.5 33.1 86.6"></polygon>
  <path fill="#010101" d="M89,10.7c-0.5,0.7-1,1.3-1.5,1.8c-0.5,0.6-1.1,1.2-1.6,1.7c-1.1,1.1-2.3,2.2-3.4,3.2L81.7,18    c0,0,0-0.1,0.1-0.1c0,0,0.1-0.2,0.1-0.2c0.1-0.3,0-0.3,0-0.4c-0.1-0.1,0,0,0,0c0.3,0.3,0.4,0.5,0.6,0.7c0.2,0.2,0.5,0.4,0.8,0.7    c1.1,0.9,2.5,1.5,4,1.8c1.5,0.3,3.1,0.4,4.7,0.7c0.8,0.1,1.7,0.4,2.2,0.3c0.4,0,0.8-0.4,1.3-0.9l1.6-1.6c0.5-0.5,1.1-1.1,1.6-1.7    l1.5-1.7c0.5-0.6,1-1.1,1.6-1.7l0.8,2.6c-2-0.5-4.1-1.1-6.1-1.7c-1-0.3-2-0.7-3-1.1c-0.5-0.2-1.1-0.5-1.5-0.8    c-0.5-0.4-0.9-0.9-1-1.5l0.3-0.1c0.6,0.8,1.6,0.8,2.6,0.9c1,0.1,2.1,0.2,3.2,0.3c2.1,0.2,4.2,0.5,6.3,0.9l2.7,0.5l-1.9,2    c-0.5,0.6-1.1,1.1-1.6,1.7l-1.7,1.6c-0.6,0.5-1.2,1-1.8,1.6c-0.6,0.5-1.3,1-1.9,1.4c-0.3,0.2-0.7,0.5-1.2,0.7    c-0.5,0.2-1.1,0.3-1.7,0.2c-1.1-0.2-1.6-0.7-2.3-0.9c-0.7-0.3-1.4-0.4-2.2-0.6c-0.8-0.1-1.5-0.3-2.3-0.3c-1.6-0.2-3.2-0.3-4.9-1    c-0.4-0.2-0.8-0.4-1.2-0.6c-0.4-0.2-0.8-0.6-1-0.9c-0.2-0.3-0.4-0.5-0.6-1c-0.1-0.3-0.1-0.5,0-1c0-0.1,0.1-0.3,0.2-0.4    c0.1-0.1,0.2-0.3,0.2-0.4c0.2-0.2,0.3-0.3,0.4-0.4l0.2-0.2l0.5-0.4c1.2-0.9,2.5-1.8,3.8-2.7c0.7-0.4,1.3-0.8,2-1.2    c0.7-0.4,1.4-0.7,2.1-1.1L89,10.7z"></path>
  <polygon fill="#010101" points="80.6 18 88.2 13.7 82.4 20.2"></polygon>
  <polygon fill="#010101" points="83.4 19.1 91.7 14 85.2 21.3"></polygon>
  <polygon fill="#010101" points="86.4 19.9 94 15.1 88.2 22"></polygon>
  <path fill="#010101" d="M89.2,20.4c0,0,0.4-0.3,1-0.7c0.6-0.4,1.4-1,2.2-1.5c1.6-1,3.3-1.8,3.3-1.8s-1.3,1.4-2.3,2.9    c-0.5,0.7-1,1.5-1.4,2.1c-0.3,0.6-0.6,1-0.6,1L89.2,20.4z"></path>
  <path fill="#010101" d="M92 20.9c0 0 .4-.2.9-.6.5-.4 1.3-.8 2-1.3 1.5-.9 3-1.7 3-1.7s-1.1 1.3-2 2.7c-.5.7-.9 1.4-1.3 1.9-.3.5-.5.9-.5.9L92 20.9zM32.4 54.5c1-1.2 1.9-2.3 2.9-3.4 1-1.1 2-2.3 3.1-3.3 1-1.1 2.1-2.1 3.2-3.2 1.1-1 2.2-2.1 3.3-3.1 1.1-1 2.2-2 3.4-3 1.2-1 2.3-1.9 3.5-2.9 1.2-1 2.4-1.9 3.6-2.7 1.2-.9 2.5-1.7 3.7-2.6 1.3-.8 2.5-1.6 3.8-2.4 1.3-.8 2.6-1.6 3.9-2.3 1.3-.8 2.6-1.5 3.9-2.2l3.9-2.2 2-1.1c.3-.2.6-.4 1-.6.2-.1.5-.2.8-.1.3.1.5.2.7.3.6.5 1.2 1 1.8 1.4.6.4 1.2.9 1.8 1.2 1.3.8 2.6 1.5 3.9 2 1.4.5 2.8 1 4.2 1.3l1 .2-.6.9c-1.3 1.9-2.6 3.8-4.1 5.6-1.4 1.8-2.9 3.6-4.5 5.3-1.6 1.7-3.2 3.4-4.9 5-1.7 1.6-3.4 3.1-5.2 4.6-1.7 1.5-3.5 3-5.3 4.4L64.7 54c-.9.7-1.8 1.4-2.6 2.2-.9.7-1.7 1.5-2.6 2.2-.8.7-1.7 1.5-2.5 2.3-.8.8-1.6 1.6-2.4 2.4-.8.8-1.5 1.7-2.3 2.5l-.6.7L50.9 66c-2.8-1.5-5.5-3.1-8.2-4.8-1.4-.8-2.7-1.7-4-2.6-1.3-.9-2.6-1.8-3.9-2.7l.1-.2 4.2 2.1 4.2 2.1c2.8 1.4 5.7 2.7 8.5 4l-1.4.3c.7-.9 1.4-1.9 2.2-2.8.7-.9 1.5-1.8 2.3-2.6.8-.8 1.6-1.7 2.5-2.5.8-.8 1.7-1.6 2.6-2.4.9-.8 1.7-1.5 2.6-2.3.9-.8 1.8-1.5 2.7-2.2 1.8-1.5 3.6-2.9 5.3-4.3 1.8-1.4 3.5-2.9 5.2-4.4 1.7-1.5 3.3-3.1 5-4.6 1.6-1.6 3.2-3.2 4.7-4.9 1.5-1.7 3-3.4 4.4-5.2l.4 1.2c-1.5-.5-2.9-1-4.3-1.7-1.4-.7-2.7-1.4-4-2.3-.6-.4-1.3-.8-1.9-1.3-.6-.5-1.2-1-1.7-1.4-.3-.2-.4-.2-.6-.1-.3.1-.6.4-.9.5l-1.9 1.1c-1.3.8-2.5 1.6-3.8 2.4-1.2.8-2.5 1.7-3.7 2.5-1.2.9-2.4 1.7-3.6 2.6-1.2.9-2.4 1.8-3.6 2.7l-7.1 5.4c-1.2.9-2.4 1.8-3.5 2.7-1.2.9-2.3 1.8-3.5 2.8L42.9 46l-3.4 2.9L36 51.8c-1.1 1-2.2 2-3.4 2.9L32.4 54.5z"></path>
  <path fill="#010101" d="M44.1 56.6c0 0-.2-.1-.3-.5 0-.2 0-.4.1-.7.1-.1.1-.3.2-.4.1-.1.2-.2.4-.4.6-.5 1.5-.9 2.6-.9.6 0 1.1.2 1.6.5.5.3 1.1.9 1.3 1.8.2.8 0 1.7-.4 2.2-.4.6-1 .9-1.5 1.1-.3.1-.5.1-.7.2l-.2 0 0 0c.1 0-.2.1-.2 0l0 0 0 0 0 0c0 0 0 0-.1 0-.2 0-.3 0-.5-.1l-.2-.1c-.4-.4-.6-.7-.8-1-.4-.6-.7-1-.9-1.3C44.3 56.7 44.1 56.6 44.1 56.6zM44.1 56.6c0 0 .2.1.5.4.3.2.7.6 1.3.9.3.1.7.3.9.3l.1 0c0 0-.1-.1-.2 0 0 0 0 0 0 0l0 0 0 0 0 0c0 0-.3.1-.2 0l0 0 .1-.1c.1-.1.2-.3.3-.4.2-.3.3-.5.3-.7 0-.2 0-.3 0-.3 0 0 0-.1-.1-.3-.1-.2-.3-.4-.6-.6-.5-.4-1.1-.7-1.7-.5-.3.1-.6.2-.7.4-.2.2-.2.4-.3.6C43.8 56.4 44.1 56.6 44.1 56.6zM53.8 51.9c0 0 0 .3-.2.7-.2.4-.5 1-1.3 1.4-.4.2-.9.3-1.5.2-.6-.1-1.1-.3-1.5-.4-.2-.1-.5-.2-.7-.2-.2-.1-.4-.1-.8-.4-.1-.1-.2-.1-.3-.2-.1-.1-.2-.3-.3-.3-.2-.3-.3-.6-.4-.9-.1-.5 0-1 .1-1.4.1-.4.1-.2.2-.5l.2-.3c.1-.1.1-.2.2-.2.3-.3.5-.6.9-.8.6-.4 1.3-.5 2-.5.6 0 1.2.2 1.7.5.2.1.2.1.3.2.1.1.2.2.3.3.2.2.3.3.5.5.5.7.7 1.3.7 1.8C53.8 51.6 53.8 51.9 53.8 51.9zM53.8 51.9c0 0 0-.1 0-.2 0-.1 0-.3 0-.5-.1-.4-.4-1-1.1-1.3-.2-.1-.3-.1-.5-.2-.1 0-.2 0-.3 0-.1 0-.2 0-.3 0-.4 0-.7.1-1 .3-.3.2-.5.4-.7.6-.1.1-.1.2-.2.3 0 0 0 0 0 .1 0 0 0 0 0 0 0-.1-.1.3-.1.2 0 .1 0 .1 0 .1 0 0 0 0-.1-.2 0 .1 0 0 0 0 0 0 0 0 0 0 0 .1.3.3.4.4.2.2.3.4.5.5.3.4.6.7.8.9.3.2.5.4.9.4.3 0 .7-.1.9-.3.2-.2.4-.4.5-.5C53.7 52.1 53.8 51.9 53.8 51.9zM56.1 47.9c0 0-.2 0-.7 0-.2 0-.5-.1-.7-.2-.3-.1-.6-.3-.9-.7-.1-.1-.1-.2-.2-.3l0-.1 0 0 0 0 0 0c0 0 0 .1 0-.1l0 0 0-.1c-.1-.3-.1-.7 0-1 .1-.6.5-1.2 1-1.6.2-.2.5-.4.8-.5.2-.1.3-.1.5-.2.2 0 .4-.1.5-.1.7 0 1.3.1 1.9.4.5.3 1 .6 1.3 1 .4.3.7.8 1 1.4.1.3.2.7.2 1l0 .1 0 .1 0 0c0 .1 0 .2-.1.3 0 .2-.1.3-.2.5-.1.2-.1.2-.2.4L60 48.4c-.2.2-.4.3-.6.5-.8.4-1.5.3-1.9.2-.2-.1-.4-.2-.4-.2-.1-.1-.1-.1-.1-.1s.3 0 .6-.2c.3-.2.7-.5.9-.9 0-.1.1-.2.1-.3 0 0 0-.1 0-.2 0 0 0-.1 0-.1 0-.2-.1 0-.2-.1-.1-.1-.3-.3-.6-.5-.3-.2-.5-.3-.7-.5-.2-.1-.5-.2-.5-.2-.1 0-.1 0-.1 0 0 0-.1 0-.1 0-.1 0-.1 0-.2 0-.2 0-.3.1-.4.2-.1 0-.1.1-.1.1l0 .1 0 0c0-.1 0 0 0-.1l0 0 0 0 0 0 0 0c0 0 0 .1 0 .1-.1.3.3.8.5 1.2C56 47.7 56.1 47.9 56.1 47.9zM50.9 60.7c0 0-.1-.1-.1-.3-.1-.2-.2-.4-.2-.6-.1-.4-.1-.9.2-1.2.2-.3.6-.4 1.1-.4.2 0 .5.1.6.1.2 0 .3.1.3.1s.1.1.1.3c.1.2.2.4.2.6.1.4.1.9-.2 1.2-.2.3-.7.4-1.1.4-.2 0-.5-.1-.6-.1C51.1 60.7 50.9 60.7 50.9 60.7zM54.4 57.1c0 0-.1-.1-.1-.3-.1-.2-.2-.4-.2-.6-.1-.4-.1-.8.1-1 .2-.2.6-.2 1-.1.2.1.4.1.6.2.2.1.3.1.3.1s.1.1.1.3c.1.2.2.4.2.6.1.4.1.8-.1 1-.2.2-.6.2-1 .1-.2-.1-.4-.1-.6-.2C54.5 57.2 54.4 57.1 54.4 57.1zM58.4 53.3c0 0-.1-.1-.2-.2-.1-.1-.2-.3-.3-.5-.2-.4-.1-.8.1-1 .2-.2.6-.3 1-.1.2.1.4.2.5.3.1.1.2.2.2.2s0 .1.1.3c.1.2.1.4.2.6.1.4.1.7 0 .8-.1.1-.4.1-.8.1-.2 0-.4-.1-.6-.1C58.6 53.3 58.4 53.3 58.4 53.3zM61.2 50.7c0 0-.1-.1-.2-.2-.1-.1-.2-.3-.3-.5-.2-.3-.3-.6-.1-.7.1-.1.4-.1.7.1.2.1.4.2.5.3.2.1.2.2.2.2s.1.1.2.2c.1.1.2.3.3.5.2.3.3.6.1.7-.1.1-.4.1-.7-.1-.2-.1-.4-.2-.5-.3C61.3 50.7 61.2 50.7 61.2 50.7zM63.3 49.1c0 0-.1-.1-.2-.2-.1-.1-.2-.3-.3-.4-.2-.3-.3-.6-.2-.7.1-.1.4-.1.8 0 .2.1.4.1.5.2C63.9 48 64 48 64 48s.1.1.2.2c.1.1.2.3.3.4.2.3.3.6.2.7-.1.1-.4.1-.8 0-.2-.1-.4-.1-.5-.2C63.4 49.1 63.3 49.1 63.3 49.1zM65 47.6c0 0 0-.1-.1-.3 0-.1-.1-.2-.1-.2-.1-.1-.1-.1-.2-.2-.3-.3-.7-.2-.8 0-.1.2.1.5.5.6.2 0 .4 0 .6 0 .2 0 .3-.1.3-.1s.1 0 .3-.1c.2 0 .4 0 .6 0 .4.1.6.5.4.8-.1.3-.6.4-.9.1-.1-.1-.2-.1-.2-.2-.1-.1-.1-.2-.1-.2C65 47.7 65 47.6 65 47.6zM39.1 54.4c0 0-.1-.1-.1-.3-.1-.2-.1-.4-.2-.6-.1-.5 0-1 .4-1.3.3-.3.8-.4 1.3-.3.2.1.5.1.6.2.2.1.3.2.3.2s0 .1.1.3c0 .2.1.4.1.6 0 .5-.1.8-.3 1.1-.2.2-.6.3-1.1.2-.2 0-.4-.1-.6-.1C39.2 54.4 39.1 54.4 39.1 54.4zM43.7 50.3c0 0-.1-.1-.2-.2-.1-.1-.2-.3-.3-.5-.2-.4-.1-.8.1-1 .2-.2.6-.2 1-.1.2.1.4.2.5.3.1.1.2.2.2.2s0 .1.1.3c.1.2.1.4.2.6.1.4.1.7 0 .8-.1.1-.5.1-.8 0-.2-.1-.4-.1-.6-.2C43.8 50.4 43.7 50.3 43.7 50.3zM47.6 46.8c0 0-.1-.1-.2-.2-.1-.1-.3-.2-.4-.4-.3-.3-.4-.5-.3-.6.1-.1.3-.1.7 0 .2 0 .4.1.5.2.2.1.3.1.3.1s.1.1.2.2c.1.1.3.2.4.4.3.3.4.5.3.6-.1.1-.4.1-.7 0-.2 0-.4-.1-.5-.2C47.7 46.9 47.6 46.8 47.6 46.8zM50.4 44.5c0 0-.1-.1-.2-.1-.1-.1-.3-.2-.4-.4-.3-.3-.4-.6-.2-.8.1-.2.5-.2.8-.1.2.1.4.2.5.3.1.1.2.2.2.2s.1.1.2.2c.1.1.2.3.3.5.2.3.4.5.4.5 0 0-.3-.1-.6-.2-.2 0-.4-.1-.5-.1C50.6 44.5 50.4 44.5 50.4 44.5zM52.7 42.6c0 0-.1-.1-.2-.2-.1-.1-.3-.3-.4-.4-.2-.3-.4-.5-.3-.6.1-.1.3 0 .6.2.2.1.3.2.5.3.2.1.2.2.2.2s.1.1.2.2c.1.1.3.3.4.4.2.3.4.5.3.6-.1.1-.3 0-.6-.2-.2-.1-.3-.2-.5-.3C52.8 42.6 52.7 42.6 52.7 42.6zM54.6 41.2c0 0-.1 0-.3-.1-.1-.1-.3-.1-.5-.2-.3-.2-.5-.3-.5-.3 0 0 .3 0 .6.1.2.1.4.1.5.1.2 0 .3.1.3.1s.1 0 .3.1c.1.1.3.1.5.2.3.2.5.3.5.3 0 0-.3 0-.6-.1-.2-.1-.4-.1-.5-.1C54.7 41.2 54.6 41.2 54.6 41.2zM74.2 40.2c-.3 0-.5-.1-.8-.2-.2-.1-.4-.3-.6-.4-.4-.3-.7-.6-1.1-.9-.8-.5-1.5-1.1-2.3-1.6-.8-.5-1.6-1-2.3-1.6-.7-.6-1.4-1.2-2.1-1.8L64.3 33l.5-.9c.4-.6.8-1.2 1.3-1.7.5-.5 1.1-.9 1.6-1.3 1.1-.8 2.3-1.4 3.4-2 1.1-.7 2.2-1.4 3.2-2.2 1-.8 2-1.7 2.9-2.5l.4-.4.6.5 2 1.4c.7.5 1.3.9 1.9 1.4 1.3.9 2.6 1.9 3.9 2.8l1.4 1-1.3 1.3c-.9.9-1.8 1.8-2.8 2.7-.5.4-1 .9-1.5 1.3-.5.4-1 .8-1.5 1.2-1.1.8-2.2 1.5-3.2 2.3-.5.4-1.1.8-1.6 1.2-.3.2-.5.4-.7.6C74.8 39.8 74.6 40.1 74.2 40.2L74.2 40.2zM74.1 39.9c.3-.1.5-.3.7-.5.2-.2.4-.5.6-.7.4-.5.8-1 1.2-1.6.8-1.1 1.5-2.2 2.3-3.2.4-.5.8-1 1.2-1.5.4-.5.9-1 1.3-1.4.9-.9 1.8-1.9 2.7-2.8l.2 2.3c-1.3-1-2.5-2.1-3.7-3.2-.6-.6-1.2-1.1-1.8-1.7-.6-.6-1.1-1.2-1.6-1.8l1.1.1c-1.1.6-2.3 1.2-3.4 1.9-1.1.7-2.2 1.4-3.2 2.2-1 .8-1.9 1.7-2.7 2.7-.8.9-1.5 1.9-2 2.9l-.2-1.6c.7.6 1.3 1.3 1.9 2 .6.7 1.2 1.4 1.7 2.2.6.8 1.1 1.5 1.7 2.2.3.4.6.7.9 1C73.4 39.6 73.7 40 74.1 39.9L74.1 39.9z"></path>
  <path fill="#010101" d="M72.3 41.7c0 .2-.1.3-.2.4-.1.1-.2.2-.2.3-.2.2-.3.4-.4.5-.3.4-.5.8-.8 1.2-.5.8-.9 1.7-1.5 2.5l-2.1-1c-.1.3.1.5.1.5 0 0 0 0-.1 0-.2-.1-.4-.3-.6-.5-.4-.3-.8-.7-1.1-1.1-.7-.8-1.3-1.7-1.9-2.5-.6-.8-1.4-1.5-2.2-2.2-.8-.7-1.6-1.2-2.5-1.8l-.5-.4.5-.9c.7-1.3 1.9-2.4 3.2-3.2.2-.1.5-.3 1.1-.4.6 0 1 .2 1.3.3.5.3.7.5 1 .7.5.4 1.1.8 1.6 1.2.5.4 1 .9 1.5 1.4.5.5.9 1 1.3 1.6.4.6.8 1.1 1.3 1.7.2.3.5.5.7.7l.4.3C72 41.3 72.2 41.4 72.3 41.7L72.3 41.7zM72 41.7c0 0-.1-.1-.3-.2l-.4-.3c-.3-.2-.6-.3-.9-.5-.6-.3-1.3-.6-1.9-.8-.6-.3-1.3-.5-1.9-.9-.6-.3-1.1-.7-1.7-1.1-.5-.4-1.1-.8-1.6-1.2-.2-.2-.6-.5-.6-.5 0 0 .1.1.3 0 .2 0 .2-.1.1 0-.5.2-1 .5-1.5.8-.5.3-1 .7-1.5 1.1l-.1-1.2c.6.8 1.1 1.7 1.8 2.5.7.8 1.4 1.4 2.3 2 .8.6 1.8 1 2.6 1.5.4.3.8.6 1.2.9.2.2.4.3.6.5.1.1.3.2.4.5.2.2.4.7.3 1.2l-2.1-1c.7-.6 1.6-1 2.5-1.5.4-.2.8-.5 1.2-.8.2-.1.4-.3.5-.4C71.7 42 72 41.8 72 41.7L72 41.7zM61.7 112.5c0 0 .2-.4.7-1.1.4-.7 1.1-1.7 1.9-3 1.7-2.5 4.1-6.1 7.1-10.3 5.9-8.5 13.8-19.8 21.7-31.1 7.9-11.3 15.8-22.6 21.7-31.1 3-4.2 5.4-7.8 7.1-10.3.4-.6.8-1.2 1.1-1.7.3-.5.7-.9.8-1.3 0-.2 0-.4-.2-.4-.1 0-.3 0-.3.1-.2.2 0 .3 0 .3 0 0 0 0-.1 0 0 0 0-.1 0-.2.1-.1.2-.2.4-.1.2.1.2.3.2.5-.1.4-.4.8-.7 1.3-.3.5-.7 1.1-1.1 1.7-1.7 2.5-4 6.1-6.9 10.4-5.7 8.6-13.3 20.2-20.8 31.7-7.6 11.5-15.2 23-20.8 31.7-2.8 4.3-5.2 7.9-6.8 10.4-.8 1.3-1.4 2.3-1.8 3-.4.7-.6 1.1-.6 1.1L61.7 112.5zM40 85.6c2.1 1.3 4.1 2.6 6.2 3.8 2.1 1.2 4.2 2.5 6.3 3.6 2.1 1.2 4.2 2.3 6.4 3.4 2.2 1.1 4.3 2.2 6.5 3.2l-1.4.4c2.2-3.4 4.4-6.8 6.7-10.2l3.4-5.1c1.1-1.7 2.3-3.4 3.4-5 2.3-3.4 4.6-6.7 6.9-10 2.3-3.3 4.7-6.6 7.1-9.9 2.4-3.3 4.9-6.5 7.3-9.8 2.5-3.2 5-6.4 7.6-9.6 2.6-3.1 5.2-6.3 7.8-9.4 2.6-3.1 5.4-6.1 8.1-9.1l-7.2 9.8-7.2 9.8c-2.4 3.3-4.8 6.6-7.1 9.9-2.4 3.3-4.7 6.6-7 9.9-2.3 3.3-4.7 6.6-7 9.9l-7 10c-2.3 3.3-4.6 6.7-7 10-2.3 3.3-4.7 6.6-7 9.9l-.6.8-.8-.4c-2.2-1.1-4.3-2.3-6.4-3.6-2.1-1.3-4.2-2.5-6.2-3.9-2-1.3-4.1-2.7-6-4.1C43.8 88.7 41.9 87.2 40 85.6zM40.8 84.9c0 0 4.2-5.4 10.9-13.1 3.3-3.9 7.3-8.4 11.5-13.2 2.2-2.4 4.4-4.8 6.7-7.3 2.3-2.5 4.6-4.9 7-7.4 2.4-2.5 4.8-4.9 7.1-7.3 2.3-2.4 4.7-4.7 7-7 4.6-4.5 8.9-8.6 12.7-12 .4-.4 1.1-1 2-1.2.9-.1 1.5.1 2.1.3 1.1.4 2.2.7 3.2 1 2 .7 3.7 1.2 5.1 1.7 2.8 1 4.4 1.5 4.4 1.5s-1.7-.4-4.6-1c-1.5-.3-3.2-.7-5.3-1.2-1-.2-2.1-.5-3.2-.7-.6-.1-1.1-.2-1.5-.1-.3.1-.7.4-1.1.8C97.8 26.1 88.4 36 79 45.9c-4.7 4.9-9.4 9.9-13.9 14.5-2.2 2.3-4.4 4.5-6.4 6.6-2.1 2.1-4 4.1-5.8 5.9-3.6 3.7-6.6 6.7-8.8 8.8C42.1 83.7 40.8 84.9 40.8 84.9z"></path>
  <path fill="#010101" d="M68.7 96C68.7 96 68.7 96 68.7 96c-.1 0-.4 0-.5 0-.4 0-.9-.1-1.3-.2-1-.3-1.8-.9-2.8-1.4-1.9-1-3.8-2-3.8-2s2.1.3 4.3.7c1 .1 2.2.4 2.8.3.3 0 .5-.1.6-.1.1 0 0 0 .1-.1.1 0 .1 0 .1 0L68.7 96zM71.4 92.7C71.4 92.7 71.3 92.7 71.4 92.7c-.1 0-.4 0-.5 0-.3 0-.8-.2-1.1-.4-.4-.2-.7-.4-1.1-.7-.4-.3-.8-.5-1.1-.8-1.5-1.1-2.9-2.4-2.9-2.4s1.8.6 3.5 1.1c.4.1.9.2 1.3.3.4.1.8.2 1.1.2.3 0 .4 0 .5-.1.1 0 0 0 0 0 .1 0 .1 0 .1 0L71.4 92.7zM73.6 88.8c0 0-1.3-.5-3.3-1.2-2-.7-4.6-1.7-7.3-2.6-5.3-1.9-10.7-3.5-10.7-3.5s5.6 1 11.1 2.1c2.8.6 5.5 1.2 7.6 1.7 2.1.5 3.4.8 3.4.8L73.6 88.8zM76.9 85c0 0-.2 0-.5 0-.4 0-.9 0-1.4-.2-1-.3-2-.9-3.1-1.4-2.1-1-4.1-2.1-4.1-2.1s2.3.3 4.6.7c1.1.2 2.3.4 3 .3.3 0 .6-.1.7-.1 0 0 .1 0 .1-.1.1 0 .1 0 .1 0L76.9 85zM77.8 81.9c0 0-.2 0-.4 0-.3 0-.7-.1-1.1-.2-.8-.3-1.6-.7-2.4-1.2-.8-.4-1.6-.9-2.2-1.2-.3-.2-.6-.3-.7-.4 0 0-.1-.1-.1-.1 0-.1.1-.1.1-.1.1 0 0 .1 0 .1 0 0 0 0 0 0-.1 0 0 .1.1.1.2 0 .5.1.8.1.7.1 1.6.2 2.5.3.9.1 1.9.2 2.4.1.3 0 .4-.1.5-.1 0 0 0 0 .1-.1.1 0 .1 0 .1 0L77.8 81.9zM80.1 79.4c0 0-.4-.2-1.1-.5-.3-.2-.7-.3-1.1-.5-.3-.1-.4-.2-.7-.3-.2-.1-.4-.2-.6-.3-1.7-.9-3.4-1.8-3.4-1.8s1.9.2 3.8.4c.2 0 .5 0 .7.1.2 0 .5.1.7.1.5 0 .9.1 1.2.1.7.1 1.2.1 1.2.1L80.1 79.4zM82.4 76.4c0 0-.1 0-.2 0-.2 0-.4 0-.7 0-.5-.1-1.1-.3-1.5-.5-1-.5-2.3-1.1-3.5-1.7-2.6-1.2-5.2-2.5-5.2-2.5s2.8.6 5.6 1.1c1.4.3 2.8.6 3.9.8.6.1.8.1.9.1 0 0 .1 0 0 0 0 0 .1 0 .1 0L82.4 76.4zM84.4 72.7c0 0-.5-.1-1.3-.4-.8-.2-1.9-.6-2.9-.9-1-.4-2.1-.7-2.8-1-.2-.1-.4-.1-.5-.2-.1-.1-.3-.1-.4-.2-.1-.1-.1-.1 0-.2.1-.1.1 0 .1 0 .1 0 0 .1 0 .1 0 0 0-.1 0 0-.1 0-.1.1 0 .1.1 0 .2 0 .4 0 .2 0 .4 0 .6 0 .8 0 1.9.1 3 .1 1.1 0 2.2 0 3-.1.8-.1 1.3-.1 1.3-.1L84.4 72.7zM86.6 70.3c-.6-.2-1.3-.5-2-.8-.6-.3-1.3-.6-1.9-.9-1.3-.6-2.5-1.3-3.7-2l-.2-.1.2 0 .4-.1L79 66.7l0-.1c1.3.3 2.7.5 4.1.6.7.1 1.3.1 2 .2.7 0 1.3.1 2 .1L86.6 70.3zM89 67.3c0 0-.2 0-.6 0-.4 0-.9-.1-1.6-.3-.3-.1-.7-.2-1-.3-.3-.1-.7-.3-1-.4-.3-.2-.6-.3-1-.5-.2-.1-.3-.1-.5-.2-.1 0-.3-.1-.5-.1-.4-.1-.7-.2-1.1-.3-.4-.1-.7-.2-1.1-.3-.7-.2-1.4-.3-1.9-.5-1.1-.3-1.9-.4-1.9-.4s.8 0 1.9 0c.6 0 1.2 0 2 0 .4 0 .7 0 1.1 0 .4 0 .8 0 1.2 0 .2 0 .3 0 .6 0 .2 0 .4.1.6.1.4.1.8.2 1.1.2.4.1.6.1.9.2.3 0 .6.1.8.1.5 0 .9 0 1.2-.1.3-.1.4-.1.4-.1L89 67.3z"></path>
  <path fill="#010101" d="M90.2 65.5c0 0-.1 0-.4 0-.4 0-.7-.1-1.1-.3-.8-.3-1.6-.9-2.4-1.3-.1-.1-.4-.2-.6-.3-.2-.1-.4-.2-.6-.3-.4-.2-.8-.3-1.1-.5-.7-.3-1.1-.4-1.1-.4s.5 0 1.2 0c.4 0 .8 0 1.2 0 .2 0 .5 0 .7 0 .3 0 .4 0 .8 0 1 .2 1.9.3 2.4.3.3 0 .5-.1.5-.1 0 0 .1 0 .2-.1.1 0 .1 0 .1 0L90.2 65.5zM92.3 63c0 0-.5-.1-1.2-.4-.7-.2-1.7-.6-2.7-.9-1.9-.7-3.7-1.6-3.7-1.6s2 .2 4 .2c1 0 2 0 2.7-.1.7-.1 1.2-.1 1.2-.1L92.3 63z"></path>
  <path fill="#010101" d="M94.3 60.7c0 0-.1 0-.4.1-.4.1-.8.1-1.2 0-.9-.2-1.9-.7-2.7-1.2-.8-.6-1.5-1.1-2.1-1.3-.6-.3-1.1-.3-1.1-.3s.5-.1 1.2-.1c.7 0 1.7.3 2.6.5.9.2 1.7.2 2.2.1.2-.1.4-.2.4-.2 0 0 .1-.1.1-.1 0 0 .1 0 .1 0L94.3 60.7zM94.7 58.7c0 0-.4-.2-1-.5-.6-.3-1.4-.7-2.1-1.2-1.5-.9-2.9-2-2.9-2s1.7.4 3.4.6c.8.1 1.7.2 2.3.2.6 0 1 0 1 0L94.7 58.7zM97.1 55.1c0 0-.5-.1-1.3-.3-.8-.2-1.8-.5-2.8-.8-2-.7-3.8-1.6-3.8-1.6s2 .2 4 .2c1 0 2-.1 2.7-.2.7-.1 1.2-.2 1.2-.2L97.1 55.1zM99.5 52.6c0 0-.1 0-.3-.1-.2 0-.5-.1-.9-.2-.3-.1-.7-.2-1.1-.4-.2-.1-.4-.2-.6-.3-.2-.1-.4-.2-.6-.3-.4-.2-.7-.5-1.1-.7-.3-.2-.6-.4-.9-.5-.5-.3-1-.3-1-.3s.4-.1 1.1-.1c.7 0 1.5.2 2.3.3.2 0 .4 0 .6 0 .2 0 .4 0 .5 0 .4 0 .7-.1.9-.1.3 0 .5-.1.6-.1.2 0 .3-.1.3-.1L99.5 52.6zM102 49C102 49 102 49 102 49c-.2-.1-.1-.1-.1-.1-.1 0-.2-.1-.4-.2-.3 0-.6 0-1.1 0-.3 0-.4 0-.8-.1-.3 0-.5-.1-.8-.1-1-.3-1.8-.7-2.4-1-.6-.3-1-.6-1-.6s.5.1 1.1.2c.7.1 1.6.1 2.4 0 .2 0 .4-.1.6-.1.1 0 .5-.1.5-.2.4-.1.7-.3 1.2-.4.4-.1.9-.2 1.2-.1.3 0 .5.1.5.1L102 49z"></path>
  <path fill="#010101" d="M104 46.9c0 0-.1 0-.3-.1-.2 0-.5-.1-.8-.2-.7-.2-1.5-.4-2.3-.8-1.6-.7-3-1.7-3-1.7s1.7.4 3.3.3c.8 0 1.6-.1 2.2-.2.3-.1.5-.1.7-.1.2 0 .3-.1.3-.1L104 46.9zM105.9 44.2c0 0-1-.3-2.6-.8-1.6-.5-3.6-1.1-5.7-1.7-4.1-1.3-8.3-2.5-8.3-2.5s4.3.6 8.6 1.1c2.1.3 4.3.6 5.9.8 1.6.2 2.7.3 2.7.3L105.9 44.2zM108.6 41.2c0 0-.1 0-.3 0-.3 0-.5 0-.9 0-.7-.1-1.6-.4-2.4-.9-.4-.2-.7-.5-1-.8-.3-.2-.5-.4-.8-.6-.5-.3-.9-.4-.9-.4s.4-.1 1 0c.3 0 .7.1 1 .2.4.1.7.2 1.1.2.7.1 1.3-.1 1.7-.2.2-.1.4-.2.5-.2 0 0 .1-.1.2-.1 0 0 .1 0 .1 0L108.6 41.2zM111 38.1c0 0-.1 0-.2 0-.1 0-.1 0-.2 0-.1 0-.3 0-.5 0-.3 0-.7 0-1.1-.1-.4-.1-.8-.1-1.2-.3-.9-.2-1.8-.6-2.7-.8-.5-.1-.9-.2-1.4-.2-.5 0-1 0-1.6.1-.6 0-1.2 0-1.8-.1-.6-.1-1.1-.2-1.6-.4-1-.3-1.9-.5-2.7-.7-.8-.2-1.5-.4-1.9-.5-.2-.1-.4-.1-.4 0 0 0 .1.1.1 0 0 0 0 0 0 0 0 0 0 0 0 0 0 0-.1 0-.1 0 0-.1.1-.2.2-.2.1 0 .2 0 .3 0 .5 0 1.2.1 2 .2.8.1 1.8.2 2.8.3.5.1 1 .1 1.5.1.5 0 1-.1 1.5-.2.5-.1 1-.3 1.7-.3.6-.1 1.2-.1 1.8 0 1.1.1 2.1.3 2.8.3.4 0 .7 0 1 0 .3 0 .5 0 .6-.1.1 0 .1 0 .2 0 .1 0 .2 0 .2-.1.1 0 .2-.1.2-.1L111 38.1zM111.8 34.9c0 0-.1-.2.1.2.1.2.4.3.5.3.1 0 .1 0-.2-.1-.2 0-.4-.1-.7-.1-1-.2-2.3-.5-3.6-.8-2.6-.6-5.1-1.5-5.1-1.5s2.6.2 5.2.1c1.3 0 2.6-.1 3.5-.2.2 0 .5 0 .7-.1.2 0 .5 0 .9.1.3.1.8.3 1 .6.3.5.2.4.2.4L111.8 34.9zM114.7 32.9c0 0-1-.3-2.4-.7-.7-.2-1.6-.4-2.5-.7-.6-.1-.9-.3-1.4-.4-.5-.2-.9-.3-1.4-.5-.5-.2-.9-.4-1.4-.6-.2-.1-.5-.2-.7-.3-.2-.1-.4-.1-.6-.2-.4-.1-.9-.2-1.3-.3-.4-.1-.8-.2-1.2-.3-1.4-.4-2.4-.7-2.4-.7s1 .1 2.5.3c.3 0 .8 0 1.2.1.4 0 .9 0 1.4.1.2 0 .5.1.7.1.2.1.5.1.7.2.5.1 1 .2 1.5.3.5.1 1 .1 1.5.2.5.1 1 .1 1.4.2.9.1 1.8.2 2.6.2 1.5.1 2.5.2 2.5.2L114.7 32.9zM117.5 28.9c0 0-.1 0-.4 0-.3 0-.7.1-1.1.1-.9 0-2.1-.1-3.1-.5-.5-.2-1-.4-1.5-.7-.4-.3-.8-.5-1.1-.7-.7-.4-1.2-.3-1.2-.3s.1-.1.3-.1c.2-.1.6-.1 1 0 .4 0 .9.2 1.3.3.5.1.9.1 1.4.1 1 0 1.9-.2 2.5-.5.3-.1.6-.2.7-.3.2-.1.3-.2.3-.2L117.5 28.9z"></path>
  <path fill="#010101" d="M119.9,27c0,0-0.3,0-0.8,0c-0.5,0-1.2-0.1-2-0.3c-1.6-0.3-3.6-0.7-5.7-1.1c-4.1-0.8-8.3-1.5-8.3-1.5    s4.2,0.1,8.4,0.1c2.1,0,4.2,0.1,5.8,0.1c0.8,0,1.4,0,1.8-0.1c0.4,0,0.7-0.1,0.7-0.1L119.9,27z"></path>
  <path fill="#010101" d="M122.5 24.4c0 0-.3 0-.7 0-.5 0-1.2 0-2-.1-1.7-.1-3.8-.5-5.9-1.1-1.1-.3-2-.7-3-1-.9-.3-1.8-.5-2.6-.6-.8-.1-1.4-.1-1.9 0-.2 0-.4.1-.5.1-.1 0-.2 0-.2 0s.1 0 .2-.1c.1 0 .3-.1.5-.2.4-.1 1.1-.3 1.9-.3.8 0 1.8.1 2.8.2 1 .1 2 .3 3.1.5 2.1.2 4.1.2 5.6.1.8-.1 1.4-.2 1.8-.2.5-.1.7-.1.7-.1L122.5 24.4zM46.2 86.2l-.5-.5-4.8-4.5 6.1 2.1 8.3 2.8 2.1.7 1 .3c.2.1.4.1.7.3.3.2.6.5.7.8.2.5.3.8.4 1.2l.3 1.1.6 2.1.2.7-.6.2c-.3.1-.6.1-.8 0l-.5-.1-1-.2c-.7-.2-1.3-.3-2-.5-1.3-.4-2.6-.8-3.9-1.2-2.6-.9-5.1-2.1-7.5-3.4l0 0 0 0 .3-.3L44.9 88l0 0c2.5 1.1 5.1 2 7.7 2.7 1.3.4 2.6.7 3.9.9.7.1 1.3.2 2 .3l1 .1c.3.1.7.1.7 0L59.7 93l-.8-2-.4-1c-.1-.3-.3-.8-.4-.9-.1-.1 0 0 0 0 0 0-.1 0-.3-.1l-1.1-.3-2.1-.5L46.2 86l1.3-2.4.6.5L46.2 86.2z"></path>
  <path fill="#010101" d="M50.1 79.7l4.2 1.8c.7.3 1.4.6 2.1.8l.5.2.1 0c0 0 .1 0 0 0l.1 0 .3.1 1.1.3 1.1.3c.3.1.7.2 1.1.2l1.1.2.6.1c.2 0 .4.1.7.2.1.1.3.1.4.3.1.1.2.3.2.4.1.3.1.4.2.6l.2 1.1.5 2.2.1.3-.3 0c-.7.1-1.4.1-2.1 0-.3 0-.7-.1-1-.2-.2 0-.3-.1-.5-.1-.1 0-.2-.1-.2-.1-.1-.1-.1-.2 0-.2-.1 0-.1.1 0 .2.1.1.1.1.2.1.2 0 .3 0 .5.1.3 0 .7 0 1 0 .7 0 1.3-.1 2-.3l-.2.3-.8-2.2-.4-1.1c-.1-.2-.1-.4-.2-.5 0 0 0-.1-.1-.1 0 0 0 0-.1 0-.2 0-.7-.1-1-.1l-1.1-.1c-.4 0-.7-.1-1.2-.1l-1.1-.1L57 84.5l-.3 0-.1 0-.1 0-.1 0-.6-.1c-.8-.2-1.5-.4-2.3-.6l-4.4-1.3L50.1 79.7zM54.8 74.3c1 .4 1.9.8 2.9 1.2 1 .4 1.9.8 2.9 1.1 1.9.7 3.9 1.4 5.9 2.1l.6.2 0 .6c0 .9.4 1.8.9 2.5l.4.5L68 83c-.3.4-.7.5-1 .5-.3 0-.5 0-.7-.1l-1-.2-2-.5c-1.3-.3-2.6-.7-3.9-1.1-2.6-.8-5.2-1.6-7.7-2.6l-.1 0 .1 0 .9-.4L51.8 79l0-.1c2.6.7 5.2 1.3 7.8 1.9 1.3.3 2.6.5 4 .7l2 .3 1 .1c.1 0 .3 0 .3 0 .1 0 0 0-.1.1l0 .9c-.8-.9-1.4-2.1-1.5-3.3l.6.8c-2.1-.5-4.1-1-6.1-1.6-1-.3-2-.6-3-.9-1-.3-2-.6-3-1L54.8 74.3zM57.3 70.3c0 0 4.1 1.3 8.1 2.6.5.2 1 .3 1.5.5.5.2 1 .2 1.6.6.3.2.5.6.5.9 0 .2 0 .5.1.7 0 .4.1.9.2 1.2.2.8.5 1.4.7 1.8.2.4.4.6.4.6S70.3 79 70 78.7c-.3-.4-.7-.9-1-1.7-.2-.4-.3-.8-.5-1.3-.1-.2-.1-.4-.2-.7-.1-.2-.1-.2-.2-.3-.3-.1-.9-.2-1.4-.2-.5-.1-1.1-.2-1.6-.2-4.2-.6-8.5-1.2-8.5-1.2L57.3 70.3z"></path>
  <path fill="#010101" d="M60.1 66.6c0 0 .1 0 .3 0 .2 0 .5.1.8.2.3.1.6.2.9.4.3.1.7.3 1 .5 1.5.7 3.5 1.5 5.6 2.4.5.2 1 .4 1.5.7.3.1.6.3.8.5.3.3.4.6.5.8.2.5.3 1 .4 1.5.1.5.3.9.4 1.3.2.8.4 1.5.5 1.9.1.2.1.4.2.4.1 0 .1-.2.1-.1 0 0 .1.1-.1.2-.2 0-.3-.2-.4-.4-.2-.4-.5-1.1-.8-1.8-.2-.4-.4-.8-.6-1.2-.2-.4-.4-.9-.6-1.3-.2-.4-.4-.5-.9-.7-.5-.1-1.1-.3-1.6-.4-2.1-.5-4.3-1.1-5.9-1.5-.4-.1-.8-.2-1.1-.3-.3-.1-.5-.1-.7-.1-.2 0-.3 0-.3 0 0 0-.2 0-.1 0L60.1 66.6zM63.2 63.7C63.2 63.7 63.2 63.7 63.2 63.7c.1 0 .3-.1.4-.1.3 0 .6 0 .9.1.3.1.5.2.8.3.3.1.6.2.9.3 1.3.5 3.1 1.1 4.9 1.7.9.3 1.8.6 2.6.9.2.1.4.1.6.2.2.1.6.3.7.6.2.4.3.8.4 1.1.5 1.3.8 2.2.8 2.2s-.5-.8-1.2-2c-.2-.3-.4-.7-.6-1-.1-.1-.1-.1-.3-.2-.2 0-.4-.1-.6-.1-.9-.1-1.8-.3-2.8-.4-1.9-.3-3.8-.5-5.2-.7-.4 0-.7-.1-1-.1-.3 0-.6-.1-.7-.1-.1 0-.1 0-.1 0 0 0 .1 0 .1 0 0 0 0 0 0 0L63.2 63.7zM65.7 60.2c0 0 .1 0 .2-.1.3-.1.6-.1 1-.1.4 0 .8.2 1.1.3.2.1.3.2.5.2.1.1.3.2.4.2 1.1.6 2.8 1.3 4.5 1.8.4.1.9.2 1.3.3.4.1.9.2 1.3.2.4.1 1 .2 1.3.6.3.3.5.7.6 1.1.3.7.4 1.2.5 1.6.1.4.1.6.1.6s-.1-.2-.2-.6c-.1-.4-.4-.9-.7-1.5-.2-.3-.4-.6-.7-.7C76.7 64 76.4 64 76 64c-.4 0-.9 0-1.4 0-.5 0-.9 0-1.4-.1-1.9-.1-3.8-.5-5.2-1-.2-.1-.3-.1-.5-.2-.1 0-.3-.1-.3-.1-.2 0-.3 0-.3 0 0 0 0 0 .1 0 .1 0 0 0 0 0 0 0 0 0 0 0L65.7 60.2zM70.7 56.3c0 0 .8.3 2 .9 1.2.5 2.9 1.1 4.5 1.7.8.3 1.7.6 2.5.9.2.1.4.1.6.2.2.1.5.3.6.5.2.4.3.7.4 1.1.2.6.4 1.2.5 1.5 0 .2.2.4 0 .4-.1 0-.1-.1-.1-.1 0 0 0 0 0 0 0 0 0 0 0 0 0 0 0 .1.1.1.1-.1 0-.2-.1-.4-.2-.3-.5-.8-.8-1.4-.2-.3-.3-.7-.5-.9-.1-.1-.2-.1-.3-.2-.1 0-.4 0-.6-.1-.8-.1-1.7-.2-2.6-.3-1.8-.3-3.5-.6-4.9-.8-1.3-.3-2.2-.4-2.2-.4L70.7 56.3zM71.6 53.4c0 0 .1 0 .2 0 .2 0 .5 0 .8 0 .6.1 1.3.3 1.9.6.6.3 1.3.6 2.1.9.8.3 1.6.6 2.5.9.9.3 1.7.6 2.6.8.4.1.8.2 1.2.3.2.1.4.1.6.2.2.1.4.4.4.6.1.7.1 1.3.2 1.7.1.2.1.3.2.4.1.1.1.1.1.1s0 0-.1-.1c-.1-.1-.2-.2-.3-.4-.2-.4-.3-1-.5-1.6-.1-.1-.1-.2-.2-.2-.1 0-.3 0-.5-.1-.4 0-.8-.1-1.3-.1-.9-.1-1.8-.2-2.7-.3-.9-.1-1.9-.3-2.7-.5-.9-.2-1.7-.3-2.4-.5-.7-.2-1.1-.2-1.3-.2-.1 0-.2 0-.2 0-.1 0-.1 0-.1 0L71.6 53.4zM75.9 51.1c0 0 .2.1.6.2.4.1.9.3 1.5.6.6.2 1.3.5 2 .9.7.3 1.5.7 2.2 1.1.7.4 1.4.6 2.1.8.4.1.7.1 1.1.2.2 0 .3 0 .6.1.2 0 .5.2.5.4.2.3.2.6.3.8.1.2.2.4.2.6.1.3.2.5.2.5s-.1-.2-.3-.5c-.1-.2-.2-.3-.4-.6-.1-.2-.3-.5-.4-.7-.1-.1-.1-.1-.3-.1-.1 0-.3 0-.5 0-.4 0-.7.1-1.1.1-.8 0-1.8-.1-2.6-.3-.8-.2-1.6-.4-2.3-.6-.7-.2-1.4-.3-2-.4-.6-.1-1.1-.2-1.4-.2-.4 0-.6-.1-.6-.1L75.9 51.1zM78.1 48.4c0 0 3.2 1 6.4 2.1.8.3 1.6.5 2.3.8.2.1.4.1.5.2l.3.1c.1 0 .3.1.4.3.2.3.2.4.2.6 0 .2.1.3.1.5.3 1.2.4 2 .4 2s-.3-.8-.9-1.9c-.1-.1-.1-.3-.2-.4-.1-.1-.2-.4-.2-.4 0 0-.1 0-.3 0-.2 0-.4 0-.6-.1-.8-.1-1.6-.2-2.4-.2-3.3-.3-6.7-.7-6.7-.7L78.1 48.4z"></path>
  <path fill="#010101" d="M80.3 46.5L91.1 50l-.9.9L90 49.4c-.1-.5-.1-1.1-.2-1.4-.1-.2-.1-.2-.2-.3-.1-.1-.4-.1-.7-.2L87.4 47c-2-.6-4-1-6.1-1.4 2.1.1 4.1.3 6.2.6l1.5.3c.3.1.5.1.8.2.3.1.7.4.9.8.2.3.2.6.3.9l.2.8.4 1.5.3 1.1-1.2-.2-11.1-2.2L80.3 46.5zM85.8 40.8c0 0 .7.3 1.7.8 1 .5 2.4 1 3.8 1.6.7.3 1.4.5 2.1.8.2.1.3.1.6.2.2.1.4.4.5.5.1.3.2.6.3.9.4 1.1.5 1.9.5 1.9s-.3-.7-.9-1.7c-.1-.2-.3-.5-.5-.7-.1-.1-.1-.1-.2-.2-.1 0-.3 0-.4 0-.7-.1-1.5-.2-2.2-.2-1.5-.2-3-.4-4.2-.7-1.1-.2-1.9-.4-1.9-.4L85.8 40.8zM90.3 35.3c0 0 .2 0 .5.1.3.1.8.1 1.4.3 1.2.2 2.7.6 4.1 1.2.7.3 1.4.5 2.1.8.2.1.3.1.5.2.1.1.3.1.6.3.2.3.2.5.2.6 0 .2 0 .3 0 .4.1 1.1.2 1.9.2 1.9s-.3-.7-.6-1.8c0-.1-.1-.3-.1-.4 0-.2-.1-.3-.1-.3 0 0-.2 0-.3-.1-.2 0-.3-.1-.5-.1-.7-.1-1.4-.2-2.2-.3C94.6 38 93.1 38 92 38c-.5 0-1 0-1.3.1-.3 0-.5 0-.5 0L90.3 35.3zM93.5 30.5l.1-.3.4-1.7 1.3.6 3.6 1.5.5.2.1 0 0 0c-.1 0 0 0 0 0l.1 0 .2.1.9.3.2.1c0 0 .1 0 .1 0l.1 0c.1 0 .3.1.4.1.3.1.6.1.9.1l.4 0 0 .4.2 3.4-1.1-3.3.5.4c-.3.1-.7.1-1 .2-.2 0-.4 0-.5 0l-.1 0-.2 0-.2 0-1-.1-.2 0-.1 0c0 0 0 0-.1 0l0 0-.1 0-.5-.1-3.9-.6 1.8-1.2 0 .3L93.5 30.5zM100.4 23.8c0 0 2.8.9 5.7 1.9.4.1.7.2 1.1.4.2.1.3.1.5.2.2.1.3.1.6.2 0 0 .1 0 .1.1l.1.1 0 0c.1.1.1.2.2.2.1.2.1.3.1.4 0 .2-.1.4-.1.5-.1.3-.1.6-.1.9 0 .5.1 1 .1 1.3.1.3.1.5.1.5s-.1-.2-.3-.4c-.2-.3-.3-.7-.5-1.3-.1-.3-.1-.6-.1-1 0-.2 0-.3 0-.4 0-.1 0-.1 0-.1 0 0 0 0 0 0l0 0c0 0 0 0 0 0 0 0 0 0 0 0 0 0-.3 0-.4 0-.2 0-.4 0-.5 0-.4 0-.7-.1-1.1-.1-3-.2-6-.5-6-.5L100.4 23.8zM103.7 19c0 0 .1-.1.2-.3.2-.4.7-.7 1.2-.8.4-.1.8 0 1.2.1.4.1.6.2.8.3 1 .5 2.3 1.1 3.6 1.7.6.3 1.3.5 1.9.6.3.1.6.1.9.2.3 0 .7 0 1 .4.2.3.2.6.2.8 0 .2.1.4.1.6.1.3.1.5.1.5s-.1-.2-.2-.5c-.1-.1-.1-.3-.2-.5-.1-.2-.2-.5-.3-.6-.1-.1-.3-.1-.6 0-.3 0-.7.1-1 .1-.7 0-1.5 0-2.2-.1-1.5-.2-2.9-.6-4-.7-.3 0-.6-.1-.6-.1-.1 0-.1.1 0 0 .1 0 .4-.1.6-.4 0-.1.1-.2.1-.2 0 0 0 0 0 0 0 0 0 0 0 0L103.7 19z"></path>
</svg>
